STARTFONT 2.3
FONT -FontForge-STIX Two Math-Book-R-Normal--24-240-72-72-P-164-ISO10646-1
SIZE 24 72 72  4
FONTBOUNDINGBOX 98 104 -24 -40
COMMENT "Generated by fontforge, http://fontforge.sourceforge.net"
COMMENT "Copyright 2001-2021 The STIX Fonts Project Authors (https://github.com/stipub/stixfonts)"
STARTPROPERTIES 41
FOUNDRY "FontForge"
FAMILY_NAME "STIX Two Math"
WEIGHT_NAME "Book"
SLANT "R"
SETWIDTH_NAME "Normal"
ADD_STYLE_NAME ""
PIXEL_SIZE 24
POINT_SIZE 240
RESOLUTION_X 72
RESOLUTION_Y 72
SPACING "P"
AVERAGE_WIDTH 164
CHARSET_REGISTRY "ISO10646"
CHARSET_ENCODING "1"
FONTNAME_REGISTRY ""
CHARSET_COLLECTIONS "ASCII ISOLatin1Encoding ISO8859-2 ISO8859-5 ISO8859-7 ISO8859-9 ISO8859-4 ISO10646-1"
BITS_PER_PIXEL 4
FONT_NAME "STIXTwoMath-Regular"
FACE_NAME "STIX Two Math Regular"
COPYRIGHT "Copyright 2001-2021 The STIX Fonts Project Authors (https://github.com/stipub/stixfonts)"
FONT_VERSION "2.12 b168a"
FONT_ASCENT 18
FONT_DESCENT 6
UNDERLINE_POSITION -2
UNDERLINE_THICKNESS 2
X_HEIGHT 11
CAP_HEIGHT 15
RAW_ASCENT 762
RAW_DESCENT 238
NORM_SPACE 6
RELATIVE_WEIGHT 40
RELATIVE_SETWIDTH 50
SUPERSCRIPT_X 0
SUPERSCRIPT_Y 12
SUPERSCRIPT_SIZE 12
SUBSCRIPT_X 0
SUBSCRIPT_Y 6
SUBSCRIPT_SIZE 12
FIGURE_WIDTH 12
AVG_LOWERCASE_WIDTH 119
AVG_UPPERCASE_WIDTH 163
ENDPROPERTIES
CHARS 6611
STARTCHAR space
ENCODING 32
SWIDTH 235 0
DWIDTH 6 0
BBX 1 1 0 0
BITMAP
00
ENDCHAR
STARTCHAR exclam
ENCODING 33
SWIDTH 283 0
DWIDTH 7 0
BBX 3 16 2 0
BITMAP
8E50
DF90
DF90
CF80
AF70
9F50
8F40
6F30
5F10
4F00
2E00
1900
0000
8D50
FFC0
AE70
ENDCHAR
STARTCHAR quotedbl
ENCODING 34
SWIDTH 334 0
DWIDTH 8 0
BBX 6 5 1 12
BITMAP
BF54FD
BF14F9
BC03F5
B903F2
B503D0
ENDCHAR
STARTCHAR numbersign
ENCODING 35
SWIDTH 702 0
DWIDTH 17 0
BBX 15 17 1 -1
BITMAP
00000E70004F1000
00002F40007E0000
00004F20009C0000
00007E0000B90000
00009C0000D70000
0EEEFFEEEEFEEE70
0000E70004F20000
0001F50005F10000
0002F30007E00000
0004F10009C00000
0006F0000AB00000
AEEFFEEEEFFEED00
000BA0000F600000
000D70002F400000
001F50004F200000
003F20006E000000
006F00009C000000
ENDCHAR
STARTCHAR dollar
ENCODING 36
SWIDTH 495 0
DWIDTH 12 0
BBX 11 19 0 -2
BITMAP
000009600000
002AEFFD9300
04FA2964DF50
0CE009602E60
0FD009600960
0EF509600330
09FF7A600000
01CFFF900000
0019FFFC4000
00003DFFF700
0000099CFF60
00000960BFD0
290009602FF0
2E0009601FF0
2F6009604FB0
2FF71964DD20
029DEFEB7100
000009600000
000009600000
ENDCHAR
STARTCHAR percent
ENCODING 37
SWIDTH 692 0
DWIDTH 17 0
BBX 15 16 1 0
BITMAP
006BA930004BB000
0AD208CAA8AF3000
5F40039001E80000
BE00039009D10000
DC0006603F500000
DC000C20BB000000
9F319705F2000000
1AEC600D80000000
0000007D017B9500
000002E41CC10A20
00000AA08F200570
00003E20DC000570
0000C700FA000850
0006D000FA001D10
001D4000BD11A700
008A00002BEC6000
ENDCHAR
STARTCHAR ampersand
ENCODING 38
SWIDTH 736 0
DWIDTH 18 0
BBX 17 16 0 0
BITMAP
000018DED800000000
0000CE302E80000000
0002FA0009B0000000
0001FD000C90000000
0000CF62AC10000000
00005FED701EFFFF30
00005FF60000BF9100
001AC5FE1000AC0000
01CC10AF9000E40000
09F4002EF406A00000
1FF00007FD2D200000
4FE00000CFE6000000
4FF200002FF8000010
1FFB2002BCFF9102B0
09FFFDEFA06FFFDF50
007DFEB50005CEC500
ENDCHAR
STARTCHAR quotesingle
ENCODING 39
SWIDTH 187 0
DWIDTH 4 0
BBX 3 5 1 12
BITMAP
BF50
BF10
BD00
B900
B500
ENDCHAR
STARTCHAR parenleft
ENCODING 40
SWIDTH 357 0
DWIDTH 9 0
BBX 7 23 1 -5
BITMAP
00000260
00005D40
0007D200
005F3000
02E80000
09F10000
1FB00000
6F700000
9F400000
CF200000
DF100000
EF100000
DF100000
CF200000
9F400000
6F700000
1FB00000
09F10000
02E80000
006F3000
0007D200
00006D30
00000260
ENDCHAR
STARTCHAR parenright
ENCODING 41
SWIDTH 357 0
DWIDTH 9 0
BBX 8 23 0 -5
BITMAP
16000000
08C10000
007D2000
0009D100
0001E900
00008F30
00002F90
00000EE0
00000BF3
000009F5
000008F6
000007F7
000008F6
000009F5
00000BF3
00000DE0
00002F90
00007F30
0001EA00
0009D100
006E2000
08C20000
17000000
ENDCHAR
STARTCHAR asterisk
ENCODING 42
SWIDTH 410 0
DWIDTH 10 0
BBX 9 9 0 8
BITMAP
0000CA0000
0D90CA1BA0
1DF986BFB0
0049DC8300
0049DC8300
0DF885AFA0
0D80A80BB0
0000DB0000
0000B90000
ENDCHAR
STARTCHAR plus
ENCODING 43
SWIDTH 720 0
DWIDTH 17 0
BBX 15 15 1 -1
BITMAP
0000003F80000000
0000003F80000000
0000003F80000000
0000003F80000000
0000003F80000000
0000003F80000000
7DDDDDDFEDDDDDA0
8FFFFFFFFFFFFFC0
0000003F80000000
0000003F80000000
0000003F80000000
0000003F80000000
0000003F80000000
0000003F80000000
0000002740000000
ENDCHAR
STARTCHAR comma
ENCODING 44
SWIDTH 245 0
DWIDTH 6 0
BBX 4 7 1 -4
BITMAP
3CA1
AFF8
5EE9
00A8
01E2
3B40
2100
ENDCHAR
STARTCHAR hyphen
ENCODING 45
SWIDTH 315 0
DWIDTH 8 0
BBX 6 2 1 5
BITMAP
CDDDD6
EFFFF7
ENDCHAR
STARTCHAR period
ENCODING 46
SWIDTH 245 0
DWIDTH 6 0
BBX 4 3 1 0
BITMAP
2DC1
7FF5
3ED2
ENDCHAR
STARTCHAR slash
ENCODING 47
SWIDTH 386 0
DWIDTH 9 0
BBX 9 20 0 -2
BITMAP
0000000730
0000003F20
0000008C00
000000D700
000003F200
000008C000
00000C8000
00002F3000
00007D0000
0000C80000
0002F30000
0006D00000
000B900000
001F400000
006E000000
00B9000000
01F5000000
05E0000000
0AA0000000
1E50000000
ENDCHAR
STARTCHAR zero
ENCODING 48
SWIDTH 495 0
DWIDTH 12 0
BBX 12 16 0 0
BITMAP
0004BEEA3000
005F801AE400
02FC0001EE10
09F700009F70
0EF300006FC0
2FF100004FF1
4FF000002FF2
5FF000002FF3
5FF000002FF3
4FF000002FF2
2FF100003FF0
0EF300005FC0
09F700009F70
03FC0001EE10
007F801AF400
0005CEEB3000
ENDCHAR
STARTCHAR one
ENCODING 49
SWIDTH 495 0
DWIDTH 12 0
BBX 10 16 1 0
BITMAP
0026BF2000
2DDDFF2000
1201FF2000
0000FF2000
0000FF2000
0000FF2000
0000FF2000
0000FF2000
0000FF2000
0000FF2000
0000FF2000
0000FF2000
0000FF2000
0000FF2000
0018FF9100
1EFFFFFFF3
ENDCHAR
STARTCHAR two
ENCODING 50
SWIDTH 495 0
DWIDTH 12 0
BBX 12 16 0 0
BITMAP
0006CFEA3000
008FEEFFF500
04D3002CFE10
0A200003FF40
01000000EF50
00000000EF30
00000001FD00
00000007F500
0000001E9000
000000BB0000
000008C10000
00007C100000
0007C10000B1
007C100005D0
07FEEEEEEFA0
1FFFFFFFFF70
ENDCHAR
STARTCHAR three
ENCODING 51
SWIDTH 495 0
DWIDTH 12 0
BBX 10 16 1 0
BITMAP
004BEEB300
05FEDFFF30
1D5002DF90
3400006FA0
0000006F60
000000CA00
00003B8000
002EFFF910
000027EFB0
0000003FF6
00000009F9
00000005F9
00000006F5
0200000AC0
7FB3017C10
3CFFDA5000
ENDCHAR
STARTCHAR four
ENCODING 52
SWIDTH 495 0
DWIDTH 12 0
BBX 12 16 0 0
BITMAP
0000000BF100
0000007FF100
000003EFF100
00000C6FF100
0000891FF100
0004D11FF100
001D301FF100
00A8001FF100
06C0001FF100
2E20001FF100
AEDDDDDFFDD7
AFFFFFFFFFF8
0000001FF100
0000001FF100
0000001FF100
0000001FF100
ENDCHAR
STARTCHAR five
ENCODING 53
SWIDTH 495 0
DWIDTH 12 0
BBX 10 16 1 0
BITMAP
005FFFFFF4
008FFFFFF2
00B4000000
00E1000000
03C0000000
07FFEC7100
09FFFFFE30
000137EFD1
0000001DF6
00000006F8
00000003F9
00000002F7
00000004F3
1610000BB0
7FE735BB10
3CEFDA5000
ENDCHAR
STARTCHAR six
ENCODING 54
SWIDTH 495 0
DWIDTH 12 0
BBX 10 16 1 0
BITMAP
000005ADC0
0003DE8200
005FD30000
03EE200000
0CF5000000
4FC0000000
9F86CED910
CFE5017FC1
DF70000AF7
EF400005FC
DF400003FE
AF500002FE
7F900004FC
1EE10008F7
05FB105EC1
003AEED810
ENDCHAR
STARTCHAR seven
ENCODING 55
SWIDTH 495 0
DWIDTH 12 0
BBX 11 16 1 0
BITMAP
2FFFFFFFFF20
6FFFFFFFFD00
A8000000E700
B0000005F200
0000000BB000
0000002F6000
0000008E1000
000000EA0000
000005F40000
00000BE00000
00002F800000
00008F300000
0000EC000000
0006F7000000
000CF1000000
003FB0000000
ENDCHAR
STARTCHAR eight
ENCODING 56
SWIDTH 495 0
DWIDTH 12 0
BBX 10 16 1 0
BITMAP
007CEEB500
0CE4007F70
6F70000CE1
8F500009F2
7FA0000BE0
2FF7003F60
06FFB5C500
005EFF7000
005B9FFB10
08C104EFC0
6F40002EF6
CF000007FA
DF100004FB
AF500007F7
3ED4005EC1
028CEEC710
ENDCHAR
STARTCHAR nine
ENCODING 57
SWIDTH 495 0
DWIDTH 12 0
BBX 10 16 1 0
BITMAP
018DEDA300
1DE402BE40
8F70001ED0
DF20000AF5
FF100007F9
FF100006FB
EF300006FC
9F800009FB
1DF6017FFA
029DEB69F8
0000000CF4
0000004FD0
000001CF50
00001BF800
0016EE6000
0CDB710000
ENDCHAR
STARTCHAR colon
ENCODING 58
SWIDTH 245 0
DWIDTH 6 0
BBX 4 12 1 0
BITMAP
2DC1
7FF5
3ED2
0000
0000
0000
0000
0000
0000
2DC1
7FF5
3ED2
ENDCHAR
STARTCHAR semicolon
ENCODING 59
SWIDTH 245 0
DWIDTH 6 0
BBX 4 16 1 -4
BITMAP
2DC1
7FF5
3ED2
0000
0000
0000
0000
0000
0000
3CA1
AFF8
5EE9
00A8
01E2
3B40
2100
ENDCHAR
STARTCHAR less
ENCODING 60
SWIDTH 720 0
DWIDTH 17 0
BBX 15 14 1 -1
BITMAP
0000000000002980
000000000029FF60
000000002AFE8100
0000003AFE810000
00003AFE81000000
004BFE8100000000
2BFF810000000000
04BFE71000000000
0003BFE710000000
000003AFE8100000
00000003AFE81000
00000000029FE810
0000000000029F90
0000000000000140
ENDCHAR
STARTCHAR equal
ENCODING 61
SWIDTH 720 0
DWIDTH 17 0
BBX 15 7 1 3
BITMAP
7DDDDDDDDDDDDDA0
8FFFFFFFFFFFFFC0
0000000000000000
0000000000000000
0000000000000000
7DDDDDDDDDDDDDA0
8FFFFFFFFFFFFFC0
ENDCHAR
STARTCHAR greater
ENCODING 62
SWIDTH 720 0
DWIDTH 17 0
BBX 15 14 1 -1
BITMAP
4B40000000000000
3DFB400000000000
006DFC4000000000
00006DFC50000000
0000006DFC500000
000000006DFD6000
00000000006EFD40
0000000005CFD600
00000005DFD60000
000006DFC5000000
0006DFC500000000
06DFB40000000000
4FB4000000000000
2300000000000000
ENDCHAR
STARTCHAR question
ENCODING 63
SWIDTH 411 0
DWIDTH 10 0
BBX 10 16 0 0
BITMAP
007CEEB500
0AC101BF80
3F90002FF1
4FE0000EF3
1BA0000FF2
0000003FB0
000000AF30
000004F700
00000CA000
00004E1000
0000780000
0000640000
0000000000
0001BA0000
0006FF4000
0003ED1000
ENDCHAR
STARTCHAR at
ENCODING 64
SWIDTH 905 0
DWIDTH 22 0
BBX 20 20 1 -4
BITMAP
00000049CDEDB7200000
00004CB620014AF80000
0007F6000000004EB000
006F400000000003F800
02F80000000000007F30
09E10005CED44F101FA0
1FA0008F602BDF000AE0
4F6003F90002FF0007F2
7F400AF30000DF0006F4
8F300EF00000DF0005F4
8F301FE00000EF0005F3
7F501FE00000EF0007F1
5F600EF00000EE0009C0
1FB00BF40004FE001E60
0BF104FC203BBF21AB00
04F9005CFD813DED8000
009F5000000000000000
000AF700000000000000
00007EC62001247C3000
0000016ACEEDC9510000
ENDCHAR
STARTCHAR A
ENCODING 65
SWIDTH 718 0
DWIDTH 17 0
BBX 18 16 0 0
BITMAP
00000003F300000000
0000000AF900000000
0000001FFF10000000
0000008CDF80000000
000000E67FE0000000
000005E12FF6000000
00000C900BFC000000
00003F3005FF400000
00009C0000EFB00000
0001F600009FF20000
0007FEEEEEEFF90000
000D9000000BFE1000
005F20000004FF7000
00CA00000000DFE100
07F900000001CFF910
DFFFE100004FFFFFF2
ENDCHAR
STARTCHAR B
ENCODING 66
SWIDTH 618 0
DWIDTH 15 0
BBX 14 16 0 0
BITMAP
2CEFFFFFED9300
001FF60027FF60
000DF600008FE0
000CF600004FF3
000CF600004FF1
000CF600007FC0
000CF60016EB20
000CFEEFFF7000
000CF60026ED50
000CF600003FF4
000CF600000AFC
000CF6000008FE
000CF6000009FD
000DF600001EF9
002FF60004CFC1
2CEFFFEEFEB600
ENDCHAR
STARTCHAR C
ENCODING 67
SWIDTH 670 0
DWIDTH 16 0
BBX 14 16 1 0
BITMAP
000049CEEEB689
001BF930029FF9
01DF60000008F9
0AFB00000000D9
2FF40000000089
7FE00000000059
AFC00000000000
BFB00000000000
BFB00000000000
AFC00000000000
7FE00000000000
2FF40000000000
0BFB0000000001
02EF700000004C
002DFA40004AB1
00006BEFDD9400
ENDCHAR
STARTCHAR D
ENCODING 68
SWIDTH 730 0
DWIDTH 18 0
BBX 17 16 0 0
BITMAP
2CEFFFFFEDA6100000
002FF70136CFE60000
000DF6000006FF8000
000CF60000007FF300
000CF60000000DFB00
000CF600000008FF10
000CF600000005FF30
000CF600000004FF40
000CF600000003FF40
000CF600000004FF30
000CF600000006FF10
000CF60000000AFB00
000CF60000003FF300
000DF6000002DF7000
001EF600148EE50000
2BEFFFEFEDA6100000
ENDCHAR
STARTCHAR E
ENCODING 69
SWIDTH 626 0
DWIDTH 15 0
BBX 15 16 0 0
BITMAP
2CEFFFFFFFFFF700
002FF7111236E800
000DF60000006900
000CF60000001300
000CF600002A0000
000CF600004A0000
000CF60002BA0000
000CFEEEEFFA0000
000CF600018A0000
000CF600002A0000
000CF60000000000
000CF60000000840
000CF60000000D20
000DF60000006F00
001EF7111237ED00
2BEFFFFFFFFFFB00
ENDCHAR
STARTCHAR F
ENCODING 70
SWIDTH 588 0
DWIDTH 14 0
BBX 14 16 0 0
BITMAP
2CFFFFFFFFFFFA
002FF7222225DA
000DF60000004B
000CF600000004
000CF600004900
000CF600005900
000CF60002C900
000CFEEEEFF900
000CF600019900
000CF600004900
000CF600000000
000CF600000000
000CF600000000
000DF700000000
003FFC10000000
2EFFFFFD000000
ENDCHAR
STARTCHAR G
ENCODING 71
SWIDTH 720 0
DWIDTH 17 0
BBX 16 16 1 0
BITMAP
000049DEEEB68A00
001BF920029FFA00
01DF60000007FA00
0AFA00000000DA00
2FF3000000008A00
7FE0000000004A00
AFC0000000000000
CFB0000000000000
CFB0000007FFFFF6
BFC00000001BFF20
8FE000000006FD00
4FF400000006FC00
0CFA00000006FC00
03FF60000006FC00
004EF930017EF800
00017BEEEEB72000
ENDCHAR
STARTCHAR H
ENCODING 72
SWIDTH 777 0
DWIDTH 19 0
BBX 18 16 1 0
BITMAP
BFFFFFE100AFFFFFE2
01CFE2000001BFF300
008FC00000006FD000
007FB00000006FC000
007FB00000006FC000
007FB00000006FC000
007FB00000006FC000
007FFEEEEEEEEFC000
007FB00000006FC000
007FB00000006FC000
007FB00000006FC000
007FB00000006FC000
007FB00000006FC000
008FC00000007FD000
01CFE2000001BFF300
BFFFFFE100AFFFFFE2
ENDCHAR
STARTCHAR I
ENCODING 73
SWIDTH 357 0
DWIDTH 9 0
BBX 8 16 0 0
BITMAP
3EFFFFFA
004FFB10
000DF600
000CF600
000CF600
000CF600
000CF600
000CF600
000CF600
000CF600
000CF600
000CF600
000CF600
000DF600
003FFB10
3EFFFFFA
ENDCHAR
STARTCHAR J
ENCODING 74
SWIDTH 396 0
DWIDTH 10 0
BBX 9 16 0 0
BITMAP
00BFFFFFE0
0001BFF300
00007FD000
00006FC000
00006FC000
00006FC000
00006FC000
00006FC000
00006FC000
00006FC000
00006FC000
00006FC000
01006FB000
DE207FA000
DFA0BF4000
4CEEC50000
ENDCHAR
STARTCHAR K
ENCODING 75
SWIDTH 702 0
DWIDTH 17 0
BBX 17 16 0 0
BITMAP
3EFFFFFA03EFFFFA00
004FFB10001FFB2000
000DF600003F900000
000CF60002E8000000
000CF6003E60000000
000CF603E500000000
000CF63E4000000000
000CF9E90000000000
000CFBFF7000000000
000CF65FF700000000
000CF605FF80000000
000CF6004FF8000000
000CF60004FF900000
000DF600005FF90000
003FFB10000EFFA200
3EFFFFFA03EFFFFFA0
ENDCHAR
STARTCHAR L
ENCODING 76
SWIDTH 585 0
DWIDTH 14 0
BBX 13 16 1 0
BITMAP
EFFFFFB0000000
03FFC100000000
00DF7000000000
00CF6000000000
00CF6000000000
00CF6000000000
00CF6000000000
00CF6000000000
00CF6000000000
00CF6000000000
00CF6000000000
00CF6000000260
00CF6000000870
00CF6000001E40
00EF900003BF20
9DFFFFEEFFFF00
ENDCHAR
STARTCHAR M
ENCODING 77
SWIDTH 895 0
DWIDTH 21 0
BBX 21 16 0 0
BITMAP
4FFFFC0000000006FFFF50
007FFF400000000CFFA000
001FFFA00000003FFF5000
001F9FF1000000ACDF4000
001F3FF7000001F5DF4000
001F2AFD000007E0DF4000
001F23FF50000D70DF4000
001F20CFB0004F10DF4000
001F205FF200BA00DF4000
001F200DF902F300DF4000
001F2007FE18C000DF4000
001F2001FF7E6000DF4000
001F20009FFE0000DF4000
002F30003FF80000DF5000
007F80000BF20003FFA000
5FFFFF4005A000EFFFFF60
ENDCHAR
STARTCHAR N
ENCODING 78
SWIDTH 742 0
DWIDTH 18 0
BBX 18 16 0 0
BITMAP
4FFFF3000007FFFFF2
01AFFD1000001CF900
001FFFA0000005F200
001FCFF7000003F000
001F3CFF300003F000
001F22EFD10003F000
001F205FFB0003F000
001F2008FF7003F000
001F2000BFF403F000
001F20001DFE13F000
001F200003EFB3F000
001F2000005FFBF000
001F20000009FFF000
002F30000000BFF000
008F900000001EF000
4FFFFF40000003E000
ENDCHAR
STARTCHAR O
ENCODING 79
SWIDTH 738 0
DWIDTH 18 0
BBX 16 16 1 0
BITMAP
00004ADEEC930000
001BF82004CF9000
01DF5000000BFB00
0AFA00000001EF70
2FF4000000009FD0
7FF0000000004FF3
9FC0000000002FF6
BFC0000000001FF7
BFC0000000001FF7
AFD0000000002FF5
7FF0000000004FF2
2FF4000000008FC0
0AFA00000000DF50
01EF50000008F900
002CF820029F8000
00005ADEED930000
ENDCHAR
STARTCHAR P
ENCODING 80
SWIDTH 569 0
DWIDTH 14 0
BBX 12 16 1 0
BITMAP
AEFFFFFDC810
01EF7014BFE3
00CF60000CFB
00CF600007FF
00CF600005FF
00CF600006FD
00CF60000BF6
00CF7014BF90
00CFEFEC9400
00CF60000000
00CF60000000
00CF60000000
00CF60000000
00DF70000000
03FFB1000000
DFFFFFC00000
ENDCHAR
STARTCHAR Q
ENCODING 81
SWIDTH 737 0
DWIDTH 18 0
BBX 17 20 1 -4
BITMAP
00005ADEEC93000000
001BF82004CF900000
01DF5000000BFA0000
09FA00000002EF6000
2FF3000000009FD000
7FE0000000005FF300
AFC0000000002FF500
BFB0000000001FF700
CFB0000000001FF600
BFC0000000002FF500
8FF0000000004FF200
4FF4000000008FC000
0CFA00000000DF5000
03FF50000008F90000
004EF820039F900000
00018CEEFFA3000000
00000007FF80000000
00000000CFF8000000
000000001CFFC52000
000000000059CDEE20
ENDCHAR
STARTCHAR R
ENCODING 82
SWIDTH 659 0
DWIDTH 16 0
BBX 15 16 1 0
BITMAP
BEFFFFEEB7100000
01EF7003AFE30000
00DF60000CFC0000
00CF600006FF1000
00CF600005FF1000
00CF600007FE0000
00CF60001DF60000
00CF6026DF700000
00CFFFFF81000000
00CF608FD2000000
00CF600CFC100000
00CF6002EFA00000
00CF60006FF60000
00DF70000BFF3000
03FFB00002EFD300
EFFFFFB0006FFFD0
ENDCHAR
STARTCHAR S
ENCODING 83
SWIDTH 504 0
DWIDTH 12 0
BBX 12 16 0 0
BITMAP
0018DEFFFF60
01DD3014DF70
08F600002F70
0CF500000980
0BFB00000480
07FFA1000000
00BFFE600000
0009FFFC4000
00003CFFF900
0000006EFF90
00000001DFF1
2B0000003FF4
1F1000000FF3
1F9000002FE0
0FF92003CF50
0EFFFEEDA300
ENDCHAR
STARTCHAR T
ENCODING 84
SWIDTH 603 0
DWIDTH 14 0
BBX 15 16 0 0
BITMAP
6FFFEEFFEEEFFE00
7E4000DF5002BE00
880000DF50002F00
940000DF50000C10
200000DF50000200
000000DF50000000
000000DF50000000
000000DF50000000
000000DF50000000
000000DF50000000
000000DF50000000
000000DF50000000
000000DF50000000
000000EF60000000
000004FFB1000000
0003EFFFFFA00000
ENDCHAR
STARTCHAR U
ENCODING 85
SWIDTH 752 0
DWIDTH 18 0
BBX 18 16 0 0
BITMAP
7FFFFFF50004FFFFF9
019FF700000008FB10
003FF100000002F600
003FF100000001F600
003FF100000000F500
003FF100000000F500
003FF100000000F500
003FF100000000F500
003FF100000000F500
003FF100000000F500
002FF100000000F500
001FF200000002F300
000CF600000005E000
0006FC0000000B7000
0000AFB30003BA0000
000005BDEEDA500000
ENDCHAR
STARTCHAR V
ENCODING 86
SWIDTH 680 0
DWIDTH 16 0
BBX 18 16 -1 0
BITMAP
3FFFFFF300008FFFF7
01BFFB00000001FE20
001EFB00000001F600
0008FF10000007D000
0002FF7000000D7000
0000AFD000004F1000
00004FF400009A0000
00000DFA0001E40000
000006FF2006C00000
000001EF700C600000
0000008FD03E100000
0000002FF499000000
0000000BFAE3000000
00000004FFC0000000
00000000DF50000000
000000007E00000000
ENDCHAR
STARTCHAR W
ENCODING 87
SWIDTH 944 0
DWIDTH 23 0
BBX 24 16 -1 0
BITMAP
3FFFFFE02FFFFFF2004FFFF9
01BFF800008FF7000001DF40
001EF800000DF7000000C900
0009FD000008FD000000E400
0003FF400003FF400005E000
0000CFA00001FFA0000A9000
00006FF10007EFE1001E3000
00001EF7000D5EF6005D0000
000009FD004D09FC00A80000
000003FF40A803FF31F30000
000000CFA1E200CF86D00000
0000006FF7B0006FDB800000
0000001EFF50001FFF200000
00000009FE00000AFC000000
00000003F8000004F7000000
00000000C3000000D2000000
ENDCHAR
STARTCHAR X
ENCODING 88
SWIDTH 664 0
DWIDTH 16 0
BBX 16 16 0 0
BITMAP
8FFFFFE100CFFFF9
01AFFA000008FA10
001CFD00000DB000
0003FF80007D1000
00007FF203E30000
00000CFB1D600000
000003FFC9000000
0000007FF2000000
0000007FFB000000
000004E4FF700000
00002E507FF30000
0000CA000CFC0000
0008D10003FF8000
005F300000AFF400
05FD0000007FFE30
EFFFF5000CFFFFFC
ENDCHAR
STARTCHAR Y
ENCODING 89
SWIDTH 647 0
DWIDTH 16 0
BBX 17 16 -1 0
BITMAP
2FFFFFF50008FFFF90
018FFC0000002FC200
0009FF2000005E1000
0001DFB00001D50000
00004FF50008B00000
00000AFE102E200000
000001EF90A8000000
0000006FF7D1000000
0000000BFF50000000
00000005FE00000000
00000004FE00000000
00000004FE00000000
00000004FE00000000
00000005FF00000000
0000000AFF60000000
00000AFFFFFF600000
ENDCHAR
STARTCHAR Z
ENCODING 90
SWIDTH 594 0
DWIDTH 14 0
BBX 14 16 0 0
BITMAP
05FFFEEEEEFFF5
06F8100001DFC0
07A0000009FF20
085000004FF700
01000001DFC000
00000009FE2000
0000005FF70000
000001EFC00000
00000AFE200000
00005FF7000000
0001EFC0000000
000AFE20000014
005FF700000077
01EFB0000000D5
0BFE2000002AF2
4FFFEEEEEFFFF0
ENDCHAR
STARTCHAR bracketleft
ENCODING 91
SWIDTH 349 0
DWIDTH 8 0
BBX 6 23 2 -5
BITMAP
CFEEE2
DF1000
DF1000
DF1000
DF1000
DF1000
DF1000
DF1000
DF1000
DF1000
DF1000
DF1000
DF1000
DF1000
DF1000
DF1000
DF1000
DF1000
DF1000
DF1000
DF1000
DF1000
CEEEE2
ENDCHAR
STARTCHAR backslash
ENCODING 92
SWIDTH 385 0
DWIDTH 9 0
BBX 9 20 0 -2
BITMAP
1820000000
0D70000000
08C0000000
03F2000000
00D7000000
008B000000
004F100000
000E600000
0009B00000
0004F10000
0000E50000
0000AA0000
00005E1000
00001E5000
00000AA000
000005E000
000001F400
000000B900
0000006E00
0000001F40
ENDCHAR
STARTCHAR bracketright
ENCODING 93
SWIDTH 349 0
DWIDTH 8 0
BBX 6 23 1 -5
BITMAP
BEEEF3
000AF3
000AF3
000AF3
000AF3
000AF3
000AF3
000AF3
000AF3
000AF3
000AF3
000AF3
000AF3
000AF3
000AF3
000AF3
000AF3
000AF3
000AF3
000AF3
000AF3
000AF3
BEEEE3
ENDCHAR
STARTCHAR asciicircum
ENCODING 94
SWIDTH 480 0
DWIDTH 12 0
BBX 11 9 0 8
BITMAP
00002FA00000
00009DF20000
0002F4BA0000
0009C04F2000
001F500C9000
008C0005F200
01E50000D900
08D000006E10
1E6000000D80
ENDCHAR
STARTCHAR underscore
ENCODING 95
SWIDTH 512 0
DWIDTH 12 0
BBX 13 1 0 -3
BITMAP
EEEEEEEEEEEE40
ENDCHAR
STARTCHAR grave
ENCODING 96
SWIDTH 222 0
DWIDTH 5 0
BBX 5 4 0 13
BITMAP
3FF200
06F800
009E10
000B60
ENDCHAR
STARTCHAR a
ENCODING 97
SWIDTH 480 0
DWIDTH 12 0
BBX 12 12 0 0
BITMAP
0029DEEA1000
02EB008FA000
08F7001EF100
07F5000DF300
0020000CF300
0000159EF300
002AD83CF300
05FB100CF300
0EF2000CF300
1FF1000CF300
0CF8015BF522
02BED913EE90
ENDCHAR
STARTCHAR b
ENCODING 98
SWIDTH 522 0
DWIDTH 13 0
BBX 12 17 0 0
BITMAP
48CD00000000
58FE00000000
01FE00000000
01FE00000000
01FE00000000
01FE03BED700
01FE4EDFFF80
01FEB201AFF2
01FE10001EF7
01FE00000AF9
01FE000009FA
01FE000008F9
01FE000009F7
01FE00000CF2
01FE00003F90
01FF8103DB10
005ADFDC6000
ENDCHAR
STARTCHAR c
ENCODING 99
SWIDTH 446 0
DWIDTH 11 0
BBX 11 12 0 0
BITMAP
0005BDEC7000
008D302EF700
05F30007FC00
0BD000009600
1FB000000000
2FB000000000
3FD000000000
1FF100000000
0DF700000710
07FF50018A00
00CFFEDFD200
0018DFE91000
ENDCHAR
STARTCHAR d
ENCODING 100
SWIDTH 539 0
DWIDTH 13 0
BBX 13 17 0 0
BITMAP
000000059D9000
00000006BF9000
000000006F9000
000000005F9000
000000005F9000
0003ADEDBF9000
005E7104EF9000
02E800008F9000
0AF200005F9000
0EE000005F9000
2FD000005F9000
3FE000005F9000
2FF100005F9000
0EF600005F9000
0AFE4002BFA000
02EFFEEE8FE620
003BEEA24EB920
ENDCHAR
STARTCHAR e
ENCODING 101
SWIDTH 464 0
DWIDTH 11 0
BBX 11 12 0 0
BITMAP
0006CEEB3000
00AC202DE300
06F20004FC00
0CD00000FF20
1FFEEEEEEE40
2FC000000000
2FE000000000
1FF300000000
0CFA00000530
05FF91006C00
009FFFDEE300
0006CEEB3000
ENDCHAR
STARTCHAR f
ENCODING 102
SWIDTH 307 0
DWIDTH 7 0
BBX 10 18 0 0
BITMAP
00007DEC50
0008C07FF1
001F800890
005F700000
007F700000
008F700000
5EEFEEE500
008F700000
008F700000
008F700000
008F700000
008F700000
008F700000
008F700000
008F700000
009F700000
01DFC10000
8FFFFFD000
ENDCHAR
STARTCHAR g
ENCODING 103
SWIDTH 484 0
DWIDTH 12 0
BBX 12 17 0 -5
BITMAP
0019DEFFFEE5
01DD203DF500
08F70006FC00
0BF60004FE00
0BF80005FB00
07FE402CF400
00BCCED92000
004400000000
03F100000000
0BF500000000
0BFFEDDCB710
02CFFFFFFFC0
04C000013BF1
2E70000002F1
7F80000005B0
3FE610017B10
04BEFDC94000
ENDCHAR
STARTCHAR h
ENCODING 104
SWIDTH 577 0
DWIDTH 14 0
BBX 14 17 0 0
BITMAP
27AE6000000000
36DF6000000000
009F6000000000
009F6000000000
009F6000000000
009F607DFC3000
009F6BEDFFE000
009FE7103EF400
009F700009F700
009F600008F800
009F600006F800
009F600006F800
009F600006F800
009F600006F800
009F600007F900
01CF90000AFC10
4FFFFF22FFFFF5
ENDCHAR
STARTCHAR i
ENCODING 105
SWIDTH 285 0
DWIDTH 7 0
BBX 7 16 0 0
BITMAP
007E7000
00DFC000
005C5000
00000000
17BE7000
15CF7000
008F7000
008F7000
008F7000
008F7000
008F7000
008F7000
008F7000
008F7000
00BFA000
3FFFFF20
ENDCHAR
STARTCHAR j
ENCODING 106
SWIDTH 263 0
DWIDTH 6 0
BBX 8 21 -3 -5
BITMAP
00000AE5
00000FFB
000007C4
00000000
00028BE6
00025DF6
000009F6
000009F6
000009F6
000009F6
000009F6
000009F6
000009F6
000009F6
000009F6
000009F6
000009F5
00000AF3
1A600BE0
3FF64F70
08EFD600
ENDCHAR
STARTCHAR k
ENCODING 107
SWIDTH 542 0
DWIDTH 13 0
BBX 13 17 0 0
BITMAP
27AE6000000000
25DF6000000000
009F6000000000
009F6000000000
009F6000000000
009F601FFFFF10
009F6001FD4000
009F600AC10000
009F60AA100000
009F6A90000000
009FDFB0000000
009F7DF9000000
009F62EF700000
009F603EF60000
009F6005FF4000
00CF90009FE500
4FFFFF25FFFFD0
ENDCHAR
STARTCHAR l
ENCODING 108
SWIDTH 283 0
DWIDTH 7 0
BBX 7 17 0 0
BITMAP
16AE6000
37DF6000
009F6000
009F6000
009F6000
009F6000
009F6000
009F6000
009F6000
009F6000
009F6000
009F6000
009F6000
009F6000
009F6000
00CF9000
4FFFFF30
ENDCHAR
STARTCHAR m
ENCODING 109
SWIDTH 852 0
DWIDTH 20 0
BBX 20 12 0 0
BITMAP
19CE618DFC404AEEA100
00AFBA204FEAA118FA00
008FB0000BF90000EF10
008F70000AF50000DF20
008F70000AF50000CF30
008F70000AF50000CF30
008F70000AF50000CF30
008F70000AF50000CF30
008F70000AF50000CF30
008F70000AF60000DF30
00CFA0001DFA0002FF70
3FFFFF37FFFFF38FFFFD
ENDCHAR
STARTCHAR n
ENCODING 110
SWIDTH 576 0
DWIDTH 14 0
BBX 14 12 0 0
BITMAP
29CE629DFC3000
00AFBA205FD000
008FA0000BF500
008F700008F700
008F700007F800
008F700007F800
008F700007F800
008F700007F800
008F700007F800
008F700007F800
00BFA0000AFB00
3FFFFF43FFFFF4
ENDCHAR
STARTCHAR o
ENCODING 111
SWIDTH 514 0
DWIDTH 12 0
BBX 12 12 0 0
BITMAP
0004BDED8100
008F8105ED20
04FA00007FB0
0BF400001FF2
1FF200000DF6
2FF100000BF7
2FF100000BF7
1FF300000CF5
0CF600000EF1
06FB00004F90
00AF9103DC10
0006BEEC7100
ENDCHAR
STARTCHAR p
ENCODING 112
SWIDTH 537 0
DWIDTH 13 0
BBX 12 17 0 -5
BITMAP
16AE319EE910
49FF4DEEFFC0
00BFC5005FF7
00BF500009FC
00BF400004FE
00BF400003FF
00BF400002FE
00BF400003FC
00BF400006F7
00BF60000CE1
00BFF6019E40
00BF9CEDA200
00BF40000000
00BF40000000
00BF40000000
01EF90000000
7FFFFF800000
ENDCHAR
STARTCHAR q
ENCODING 113
SWIDTH 521 0
DWIDTH 13 0
BBX 13 17 0 -5
BITMAP
0003ADEC7A9000
005E6005FF9000
02F800009F9000
0AF200006F9000
0EE000006F9000
2FD000006F9000
3FE000006F9000
2FF100006F9000
0EF600006F9000
0AFE4002BF9000
02EFFEDEAF9000
003BEEA26F9000
000000006F9000
000000006F9000
000000006F9000
00000001BFC100
0000009FFFFF20
ENDCHAR
STARTCHAR r
ENCODING 114
SWIDTH 380 0
DWIDTH 9 0
BBX 9 12 0 0
BITMAP
049D609E90
2AEF69FFE0
009FB82B80
008FB00000
008F700000
008F700000
008F700000
008F700000
008F700000
008F700000
00BFB10000
4FFFFFA000
ENDCHAR
STARTCHAR s
ENCODING 115
SWIDTH 395 0
DWIDTH 9 0
BBX 9 12 0 0
BITMAP
007DEE9B10
09E302BF10
0FB0001E20
0FE3000A20
0AFE700000
01BFFD5000
0006EFF900
000018FF70
1A00007FB0
0F10004FB0
0FC3019F50
0D8DEEB500
ENDCHAR
STARTCHAR t
ENCODING 116
SWIDTH 315 0
DWIDTH 8 0
BBX 8 16 0 0
BITMAP
00042000
000D3000
006F3000
02EF3000
1DFFEED0
00CF3000
00CF3000
00CF3000
00CF3000
00CF3000
00CF3000
00CF3000
00CF3000
00BF4000
008F7073
001BFC50
ENDCHAR
STARTCHAR u
ENCODING 117
SWIDTH 570 0
DWIDTH 14 0
BBX 13 12 0 0
BITMAP
4BDF3006BDF400
14EF30024EF400
00CF30000BF400
00CF30000BF400
00CF30000BF400
00CF30000BF400
00CF30000BF400
00CF30000BF400
00BF30000BF400
009F60001CF400
004FD303BDF600
0006DFD929EC80
ENDCHAR
STARTCHAR v
ENCODING 118
SWIDTH 481 0
DWIDTH 12 0
BBX 13 12 -1 0
BITMAP
4FFFFB003FFFE0
02EF900001EB00
007FB00001F300
001FF20007C000
000AF7000C6000
0005FD003E0000
0000EF30890000
00008F90E20000
00002FE4B00000
00000BFC500000
000006FE000000
000001E8000000
ENDCHAR
STARTCHAR w
ENCODING 119
SWIDTH 749 0
DWIDTH 18 0
BBX 20 12 -1 0
BITMAP
6FFFFB09FFFF600CFFF4
02EF90004FF500009E20
007FB0000BF60000A800
001FF20006FC0001F200
000AF7000BFF2005C000
0004FD002D9F700B6000
0000DF40783FD01E1000
00008FA0D20DF36A0000
00002FE4B007F8B40000
00000BFD5002FDD00000
000005FE0000BF800000
000000E800006F200000
ENDCHAR
STARTCHAR x
ENCODING 120
SWIDTH 479 0
DWIDTH 12 0
BBX 13 12 -1 0
BITMAP
0BFFFF60CFFF20
006FF5000EC100
0008FB004D1000
0000DF51D30000
00003FD9600000
000008FD000000
000007FF700000
00004D3FF20000
0001D407FC0000
000B9000CF8000
019F10006FF500
1FFFE006FFFF80
ENDCHAR
STARTCHAR y
ENCODING 121
SWIDTH 483 0
DWIDTH 12 0
BBX 13 17 -1 -5
BITMAP
4FFFFC004FFFC0
02EF900001E900
008FC00002F100
001EF30007A000
0009FA000C5000
0002FF202E0000
0000AF80780000
00003FE1C20000
00000BF7B00000
000004FF600000
000000DE100000
000000A9000000
000000E3000000
000006C0000000
00101E40000000
0BFDD900000000
08EE8000000000
ENDCHAR
STARTCHAR z
ENCODING 122
SWIDTH 458 0
DWIDTH 11 0
BBX 11 12 0 0
BITMAP
0CFFFFFFFF10
0CB3111CF900
0D30007FD100
090002FF4000
00000CF90000
00007FD10000
0002EF400000
000BF9000000
006FE1000B30
02EF50001F20
0BFA1113BF10
3FFFFFFFFF00
ENDCHAR
STARTCHAR braceleft
ENCODING 123
SWIDTH 327 0
DWIDTH 8 0
BBX 7 23 0 -5
BITMAP
00029DB0
002EC300
008F3000
00AF1000
00AF2000
009F3000
007F5000
006F6000
004F6000
004F3000
02BA0000
6F900000
27D60000
005F2000
004F6000
005F6000
007F5000
008F4000
00AF2000
00AF1000
008F3000
002EB300
00029DB0
ENDCHAR
STARTCHAR bar
ENCODING 124
SWIDTH 267 0
DWIDTH 6 0
BBX 2 22 2 -5
BITMAP
7D
7D
7D
7D
7D
7D
7D
7D
7D
7D
7D
7D
7D
7D
7D
7D
7D
7D
7D
7D
7D
7D
ENDCHAR
STARTCHAR braceright
ENCODING 125
SWIDTH 327 0
DWIDTH 8 0
BBX 7 23 1 -5
BITMAP
DC810000
03DD1000
006F6000
004F8000
005F7000
006F6000
007F5000
008F3000
008F2000
006F2000
000C9100
0001BF40
0009D610
005F3000
008F2000
008F3000
008F4000
006F6000
005F7000
004F8000
006F6000
03DD1000
DC810000
ENDCHAR
STARTCHAR asciitilde
ENCODING 126
SWIDTH 557 0
DWIDTH 13 0
BBX 13 5 0 4
BITMAP
00000000000300
008DFC72005F60
08FEDFFFEDFD10
1FA0016BEEB200
03100000000000
ENDCHAR
STARTCHAR uni00A0
ENCODING 160
SWIDTH 235 0
DWIDTH 6 0
BBX 1 1 0 0
BITMAP
00
ENDCHAR
STARTCHAR exclamdown
ENCODING 161
SWIDTH 282 0
DWIDTH 7 0
BBX 3 17 2 -5
BITMAP
9E70
FFC0
8E60
0000
0700
1E00
3F00
4F10
5F20
7F40
8F50
9F60
BF70
CF80
DF90
CF90
7D40
ENDCHAR
STARTCHAR cent
ENCODING 162
SWIDTH 495 0
DWIDTH 12 0
BBX 10 17 1 -1
BITMAP
00000F0000
00001F0000
00027F8500
008C8ECFB0
08D13D2FF4
3F603D0AF4
8F204C0020
CF004B0000
DF105B0000
DF305A0000
BF806A0000
7FE2690048
1EFDA916E2
05FFFFFF60
003AEEB500
0000870000
0000970000
ENDCHAR
STARTCHAR sterling
ENCODING 163
SWIDTH 495 0
DWIDTH 12 0
BBX 12 16 0 0
BITMAP
000006CEEA20
00008B11BFD0
0003F5001CE0
0008F4000000
000AF4000000
000BF6000000
000AF8000000
0BEEFFEED000
0006FB000000
0004FB000000
0002FA000000
0002F8000000
1BEDF5000045
8707FE6003D1
960BCFFEEF70
3DE903BED600
ENDCHAR
STARTCHAR currency
ENCODING 164
SWIDTH 617 0
DWIDTH 15 0
BBX 13 14 1 0
BITMAP
11000000000210
CC100000003E90
3ED6ADEDA6EC10
02DF8102AFC100
01E7000009D000
07D0000002F500
09A0000000D700
0AA0000000D700
07E0000002F500
02E700000AD000
02DF9202AFC100
3EC5ADEC95EC10
BB100000002D90
10000000000100
ENDCHAR
STARTCHAR yen
ENCODING 165
SWIDTH 495 0
DWIDTH 12 0
BBX 12 16 0 0
BITMAP
EFFFE403EFFC
2EFF10001F91
07FF30002E10
01EF90008900
007FF200D300
001EF804C000
0007FE1A6000
0001EF6E1000
00008FF90000
03EEEFFEEE40
00000FF30000
03EEEFFEEE40
00001FF30000
00001FF40000
00006FF90000
001EFFFFF400
ENDCHAR
STARTCHAR brokenbar
ENCODING 166
SWIDTH 267 0
DWIDTH 6 0
BBX 2 17 2 0
BITMAP
7D
7D
7D
7D
7D
7D
7D
00
00
00
7D
7D
7D
7D
7D
7D
7D
ENDCHAR
STARTCHAR section
ENCODING 167
SWIDTH 491 0
DWIDTH 12 0
BBX 9 21 1 -5
BITMAP
0029DEC500
01D8103E30
06F1000E80
07F3003F80
04FC100410
00AFC20000
001DFE3000
0196BFE400
0A500AFE20
0E50009F90
0FA0000CE0
0BF70005E0
03FF7006A0
006FF96910
0005FFA000
00003EF700
053003EF10
2FA0006F40
2F60004F30
0BA103CB00
019DEC7100
ENDCHAR
STARTCHAR dieresis
ENCODING 168
SWIDTH 392 0
DWIDTH 9 0
BBX 9 3 0 14
BITMAP
0AB1007C30
4FF600FFA0
1CD2009E50
ENDCHAR
STARTCHAR copyright
ENCODING 169
SWIDTH 781 0
DWIDTH 19 0
BBX 17 17 1 0
BITMAP
000017BEEDA5000000
0005D831014AC20000
006C200000004D3000
03C10000000003D100
0C3002AEED9C007800
3C002EA102AD001E00
77009F10001C000B30
9500DE000000000950
A400ED000000000860
9500DE000000000950
77009F400000000B30
3C002ED4104B101E00
0C30029DED91007800
03D10000000003D100
007C200000004D3000
0005D831024AC20000
000017BEEDA5000000
ENDCHAR
STARTCHAR ordfeminine
ENCODING 170
SWIDTH 410 0
DWIDTH 10 0
BBX 10 10 0 6
BITMAP
007BBD8000
07F205F700
0BE000FB00
024000ED00
000159FD00
01AE83ED00
0CE200ED00
2FA000ED00
1FD002DD01
05DD937FA4
ENDCHAR
STARTCHAR guillemotleft
ENCODING 171
SWIDTH 517 0
DWIDTH 12 0
BBX 12 11 0 0
BITMAP
000006000050
0000990008A0
0009C1008D10
009E2009F300
0AF5009F6000
2FE101EF2000
04EB003EC000
003E8003E800
0003E4003E50
00003C0002C1
000001000010
ENDCHAR
STARTCHAR logicalnot
ENCODING 172
SWIDTH 720 0
DWIDTH 17 0
BBX 15 9 1 2
BITMAP
7DDDDDDDDDDDDD40
8FFFFFFFFFFFFF50
0000000000006F50
0000000000006F50
0000000000006F50
0000000000006F50
0000000000006F50
0000000000006F50
0000000000003720
ENDCHAR
STARTCHAR uni00AD
ENCODING 173
SWIDTH 315 0
DWIDTH 8 0
BBX 6 2 1 5
BITMAP
CDDDD6
EFFFF7
ENDCHAR
STARTCHAR registered
ENCODING 174
SWIDTH 413 0
DWIDTH 10 0
BBX 9 9 0 9
BITMAP
0016776000
0181002910
0929874280
080954C090
2709AC3080
08095A7090
093982A480
0281002910
0017776100
ENDCHAR
STARTCHAR macron
ENCODING 175
SWIDTH 350 0
DWIDTH 8 0
BBX 8 1 0 14
BITMAP
4EEEEEEA
ENDCHAR
STARTCHAR degree
ENCODING 176
SWIDTH 409 0
DWIDTH 10 0
BBX 8 8 1 10
BITMAP
02AED810
1E911BB0
8D0001E4
B90000C8
B90000C8
8D0001E5
1E812BC0
02AED910
ENDCHAR
STARTCHAR plusminus
ENCODING 177
SWIDTH 720 0
DWIDTH 17 0
BBX 15 15 1 -1
BITMAP
0000003F70000000
0000003F70000000
0000003F70000000
0000003F70000000
0000003F70000000
8FFFFFFFFFFFFFC0
7DDDDDDFEDDDDDA0
0000003F70000000
0000003F70000000
0000003F70000000
0000003F70000000
0000002C60000000
0000000000000000
7DDDDDDDDDDDDDA0
8FFFFFFFFFFFFFC0
ENDCHAR
STARTCHAR twosuperior
ENCODING 178
SWIDTH 373 0
DWIDTH 9 0
BBX 9 12 0 6
BITMAP
019DEC6000
0B734CF700
240002FD00
000000FE00
000002FA00
000008E200
00003E4000
0002D40000
002D400130
02D4000950
2DEDDDDF30
5FFFFFFF00
ENDCHAR
STARTCHAR threesuperior
ENCODING 179
SWIDTH 374 0
DWIDTH 9 0
BBX 9 12 0 6
BITMAP
018EEC4000
0A735DF200
130006F500
000008E100
00006C2000
004DFD6000
00003CF800
000001EF00
000000AF10
000000BC00
1B5004E300
1CFCA82000
ENDCHAR
STARTCHAR acute
ENCODING 180
SWIDTH 222 0
DWIDTH 5 0
BBX 5 4 0 13
BITMAP
00CF80
03FB00
0AD100
1E2000
ENDCHAR
STARTCHAR uni00B5
ENCODING 181
SWIDTH 556 0
DWIDTH 13 0
BBX 13 18 1 -6
BITMAP
3FF00003FE0000
3FD00004FB0000
3FB00004F90000
3F900004F60000
3F700004F40000
3F500006F10000
3F30000BE00000
3F30002EF00000
4F700098F20000
6FE306E2F80530
8DBFDF80EFDD00
AE2CE9007EC200
BE000000000000
CF000000000000
DF100000000000
DF300000000000
EC200000000000
10000000000000
ENDCHAR
STARTCHAR paragraph
ENCODING 182
SWIDTH 605 0
DWIDTH 15 0
BBX 13 20 1 -4
BITMAP
005BEFFEFFFC10
09F61CD0BF3000
4FA00CD0BE0000
8F600CD0BD0000
AF500CD0BD0000
9F600CD0BD0000
7F700CD0BD0000
2FB00CD0BD0000
06F81CD0BD0000
0038BED0BD0000
00000CD0BD0000
00000CD0BD0000
00000CD0BD0000
00000CD0BD0000
00000CD0BD0000
00000CD0BD0000
00000CD0BD0000
00000CD0BE0000
00002FD0BF4000
000BDEB0AEEB10
ENDCHAR
STARTCHAR periodcentered
ENCODING 183
SWIDTH 282 0
DWIDTH 7 0
BBX 3 3 2 5
BITMAP
8E50
FFB0
AE60
ENDCHAR
STARTCHAR cedilla
ENCODING 184
SWIDTH 247 0
DWIDTH 6 0
BBX 6 6 0 -5
BITMAP
006000
01A000
03ED80
0005F2
1306F1
19DC50
ENDCHAR
STARTCHAR onesuperior
ENCODING 185
SWIDTH 343 0
DWIDTH 8 0
BBX 7 12 1 6
BITMAP
48CF1000
97DF1000
00AF1000
00AF1000
00AF1000
00AF1000
00AF1000
00AF1000
00AF1000
00AF1000
00CF3000
ADFFFC20
ENDCHAR
STARTCHAR ordmasculine
ENCODING 186
SWIDTH 432 0
DWIDTH 10 0
BBX 10 10 0 6
BITMAP
002ACCC600
03E8003F80
0CE1000AF3
2FB00006F7
4FA00005F9
4FA00004F9
2FB00006F7
0CE00009F2
03F9003E70
003ADCC500
ENDCHAR
STARTCHAR guillemotright
ENCODING 187
SWIDTH 517 0
DWIDTH 12 0
BBX 11 11 1 0
BITMAP
410004200000
4D1003D20000
08D2007D2000
00BD200AD200
001DD201DD20
000AF7009F80
006F9005F900
03E8002E8000
1D7000C80000
870008800000
100001000000
ENDCHAR
STARTCHAR onequarter
ENCODING 188
SWIDTH 861 0
DWIDTH 21 0
BBX 19 18 1 0
BITMAP
00010000000003700000
48DC000000000C600000
88FC000000007C000000
00EC00000001E3000000
00EC00000009A0000000
00EC0000003E20000000
00EC000000C700001000
00EC000005D00004F500
00EC00001D50001EF500
02FE20008B0000B9F500
CEEEEB02E2000795F500
0000000B80003D15F500
0000004E1001D505F500
000000D60009B005F500
000007C0001EEEEEFEE0
00001E3000000005F500
0000990000000005F500
0003D100000000027200
ENDCHAR
STARTCHAR onehalf
ENCODING 189
SWIDTH 889 0
DWIDTH 21 0
BBX 20 18 1 -1
BITMAP
01560000000008B00000
AFFC000000002E200000
31FC00000000B8000000
00EC00000004E1000000
00EC0000000D60000000
00EC0000007C00000000
00EC000001E300000000
00EC0000099005CFFB30
00EC00003E106A548FD0
03FE2000C70030000BF3
CEEEEB06D00000000BF1
0000001E400000001E80
0000008A00000001B800
000002E20000002B5003
00000B80000004A2004A
00005D1000006FDDDDF7
0000D5000000DFFFFFF4
00027000000000000000
ENDCHAR
STARTCHAR threequarters
ENCODING 190
SWIDTH 861 0
DWIDTH 21 0
BBX 20 18 0 0
BITMAP
00000000000000370000
007CEC40000000C60000
09502CF2000007C00000
140006F500001E300000
000008E100009A000000
00017C300003E2000000
005FFE81000C70000000
000028FA005D00001830
000000EC01D50000AF50
1E9205F708B000078F50
1BEECA402E2000485F50
00000000B80001C15F50
00000004E1000B505F50
0000000D60008B005F50
0000007C0001EEEEEFEE
000001E3000000005F50
00000990000000005F50
00003D10000000002720
ENDCHAR
STARTCHAR questiondown
ENCODING 191
SWIDTH 411 0
DWIDTH 10 0
BBX 10 17 0 -5
BITMAP
0001DD2000
0004FF6000
0001BB1000
0000000000
0000340000
0000870000
0000D50000
0008E00000
003F700000
01DD000000
07F6000000
0EF1000110
3FE0000EE1
4FE0000EF3
1FF10009F1
07FB202D80
004BDDB500
ENDCHAR
STARTCHAR Agrave
ENCODING 192
SWIDTH 718 0
DWIDTH 17 0
BBX 18 20 0 0
BITMAP
000001DFB000000000
00000019F800000000
000000003D60000000
000000000000000000
00000003F300000000
0000000AF900000000
0000001FFF10000000
0000008CDF80000000
000000E67FE0000000
000005E12FF6000000
00000C900BFC000000
00003F3005FF400000
00009C0000EFB00000
0001F600009FF20000
0007FEEEEEEFF90000
000D9000000BFE1000
005F20000004FF7000
00CA00000000DFE100
07F900000001CFF910
DFFFE100004FFFFFF2
ENDCHAR
STARTCHAR Aacute
ENCODING 193
SWIDTH 718 0
DWIDTH 17 0
BBX 18 20 0 0
BITMAP
00000000AFD1000000
00000008F910000000
0000006D3000000000
000000000000000000
00000003F300000000
0000000AF900000000
0000001FFF10000000
0000008CDF80000000
000000E67FE0000000
000005E12FF6000000
00000C900BFC000000
00003F3005FF400000
00009C0000EFB00000
0001F600009FF20000
0007FEEEEEEFF90000
000D9000000BFE1000
005F20000004FF7000
00CA00000000DFE100
07F900000001CFF910
DFFFE100004FFFFFF2
ENDCHAR
STARTCHAR Acircumflex
ENCODING 194
SWIDTH 718 0
DWIDTH 17 0
BBX 18 21 0 0
BITMAP
000000048400000000
0000002EFE30000000
000001DB3BD1000000
00000A90008A000000
000000000000000000
00000003F300000000
0000000AF900000000
0000001FFF10000000
0000008CDF80000000
000000E67FE0000000
000005E12FF6000000
00000C900BFC000000
00003F3005FF400000
00009C0000EFB00000
0001F600009FF20000
0007FEEEEEEFF90000
000D9000000BFE1000
005F20000004FF7000
00CA00000000DFE100
07F900000001CFF910
DFFFE100004FFFFFF2
ENDCHAR
STARTCHAR Atilde
ENCODING 195
SWIDTH 718 0
DWIDTH 17 0
BBX 18 21 0 0
BITMAP
000002AC4003500000
00000CFFF619200000
000029139DD5000000
000000000000000000
000000000000000000
00000003F300000000
0000000AF900000000
0000001FFF10000000
0000008CDF80000000
000000E67FE0000000
000005E12FF6000000
00000C900BFC000000
00003F3005FF400000
00009C0000EFB00000
0001F600009FF20000
0007FEEEEEEFF90000
000D9000000BFE1000
005F20000004FF7000
00CA00000000DFE100
07F900000001CFF910
DFFFE100004FFFFFF2
ENDCHAR
STARTCHAR Adieresis
ENCODING 196
SWIDTH 718 0
DWIDTH 17 0
BBX 18 20 0 0
BITMAP
00002B90009B200000
00007FF202FF700000
00003EB000CE300000
000000000000000000
00000003F300000000
0000000AF900000000
0000001FFF10000000
0000008CDF80000000
000000E67FE0000000
000005E12FF6000000
00000C900BFC000000
00003F3005FF400000
00009C0000EFB00000
0001F600009FF20000
0007FEEEEEEFF90000
000D9000000BFE1000
005F20000004FF7000
00CA00000000DFE100
07F900000001CFF910
DFFFE100004FFFFFF2
ENDCHAR
STARTCHAR Aring
ENCODING 197
SWIDTH 718 0
DWIDTH 17 0
BBX 18 22 0 0
BITMAP
0000002BEB20000000
000000B607B0000000
000000E102D0000000
000000B707B0000000
0000002BEB20000000
000000000000000000
00000003F300000000
0000000AF900000000
0000001FFF10000000
0000008CDF80000000
000000E67FE0000000
000005E12FF6000000
00000C900BFC000000
00003F3005FF400000
00009C0000EFB00000
0001F600009FF20000
0007FEEEEEEFF90000
000D9000000BFE1000
005F20000004FF7000
00CA00000000DFE100
07F900000001CFF910
DFFFE100004FFFFFF2
ENDCHAR
STARTCHAR AE
ENCODING 198
SWIDTH 894 0
DWIDTH 21 0
BBX 22 16 -1 0
BITMAP
00000002CFFFFFFFFFFFD0
000000000CAFF311225CE0
000000002E3FF2000002E0
00000000A81FF2000000A0
00000003E11FF200000000
0000000B801FF20000B100
0000005E101FF20000D100
000000D7001FF20016F100
000006FEEEEFFEEEFFF100
00001E70001FF20003E100
00008D00001FF20000B100
0002F500001FF200000004
000AB000001FF200000059
004F3000002FF2000000C7
03DF3000007FF311225BF4
8FFFF9006FFFFFFFFFFFF2
ENDCHAR
STARTCHAR Ccedilla
ENCODING 199
SWIDTH 670 0
DWIDTH 16 0
BBX 14 21 1 -5
BITMAP
000049CEEEB689
001BF930029FF9
01DF60000008F9
0AFB00000000D9
2FF40000000089
7FE00000000059
AFC00000000000
BFB00000000000
BFB00000000000
AFC00000000000
7FE00000000000
2FF40000000000
0BFB0000000001
02EF700000004C
002DFA40004AB1
00006BFFDD9400
00000065000000
0000009DC30000
00000000BB0000
00000311BA0000
000004BEB20000
ENDCHAR
STARTCHAR Egrave
ENCODING 200
SWIDTH 626 0
DWIDTH 15 0
BBX 15 20 0 0
BITMAP
00000BFD10000000
0000007EB0000000
00000002B9000000
0000000000000000
2CEFFFFFFFFFF700
002FF7111236E800
000DF60000006900
000CF60000001300
000CF600002A0000
000CF600004A0000
000CF60002BA0000
000CFEEEEFFA0000
000CF600018A0000
000CF600002A0000
000CF60000000000
000CF60000000840
000CF60000000D20
000DF60000006F00
001EF7111237ED00
2BEFFFFFFFFFFB00
ENDCHAR
STARTCHAR Eacute
ENCODING 201
SWIDTH 626 0
DWIDTH 15 0
BBX 15 20 0 0
BITMAP
00000008FE300000
0000005FA2000000
000003D500000000
0000000000000000
2CEFFFFFFFFFF700
002FF7111236E800
000DF60000006900
000CF60000001300
000CF600002A0000
000CF600004A0000
000CF60002BA0000
000CFEEEEFFA0000
000CF600018A0000
000CF600002A0000
000CF60000000000
000CF60000000840
000CF60000000D20
000DF60000006F00
001EF7111237ED00
2BEFFFFFFFFFFB00
ENDCHAR
STARTCHAR Ecircumflex
ENCODING 202
SWIDTH 626 0
DWIDTH 15 0
BBX 15 21 0 0
BITMAP
0000003860000000
000001DFF5000000
00000AD39E200000
00007B1006C00000
0000000000000000
2CEFFFFFFFFFF700
002FF7111236E800
000DF60000006900
000CF60000001300
000CF600002A0000
000CF600004A0000
000CF60002BA0000
000CFEEEEFFA0000
000CF600018A0000
000CF600002A0000
000CF60000000000
000CF60000000840
000CF60000000D20
000DF60000006F00
001EF7111237ED00
2BEFFFFFFFFFFB00
ENDCHAR
STARTCHAR Edieresis
ENCODING 203
SWIDTH 626 0
DWIDTH 15 0
BBX 15 20 0 0
BITMAP
0000AB1007C30000
0004FF500FFA0000
0001DD2009E50000
0000000000000000
2CEFFFFFFFFFF700
002FF7111236E800
000DF60000006900
000CF60000001300
000CF600002A0000
000CF600004A0000
000CF60002BA0000
000CFEEEEFFA0000
000CF600018A0000
000CF600002A0000
000CF60000000000
000CF60000000840
000CF60000000D20
000DF60000006F00
001EF7111237ED00
2BEFFFFFFFFFFB00
ENDCHAR
STARTCHAR Igrave
ENCODING 204
SWIDTH 357 0
DWIDTH 9 0
BBX 8 20 0 0
BITMAP
03EF8000
002BF500
00005D30
00000000
3EFFFFFA
004FFB10
000DF600
000CF600
000CF600
000CF600
000CF600
000CF600
000CF600
000CF600
000CF600
000CF600
000CF600
000DF600
003FFB10
3EFFFFFA
ENDCHAR
STARTCHAR Iacute
ENCODING 205
SWIDTH 357 0
DWIDTH 9 0
BBX 8 20 0 0
BITMAP
0001DFB0
000BE700
009B2000
00000000
3EFFFFFA
004FFB10
000DF600
000CF600
000CF600
000CF600
000CF600
000CF600
000CF600
000CF600
000CF600
000CF600
000CF600
000DF600
003FFB10
3EFFFFFA
ENDCHAR
STARTCHAR Icircumflex
ENCODING 206
SWIDTH 357 0
DWIDTH 9 0
BBX 8 21 0 0
BITMAP
00068300
005FFD10
02E93DA0
1C6001B7
00000000
3EFFFFFA
004FFB10
000DF600
000CF600
000CF600
000CF600
000CF600
000CF600
000CF600
000CF600
000CF600
000CF600
000CF600
000DF600
003FFB10
3EFFFFFA
ENDCHAR
STARTCHAR Idieresis
ENCODING 207
SWIDTH 357 0
DWIDTH 9 0
BBX 9 20 0 0
BITMAP
4C7001BA00
AFE005FF40
5E9002DC10
0000000000
3EFFFFFA00
004FFB1000
000DF60000
000CF60000
000CF60000
000CF60000
000CF60000
000CF60000
000CF60000
000CF60000
000CF60000
000CF60000
000CF60000
000DF60000
003FFB1000
3EFFFFFA00
ENDCHAR
STARTCHAR Eth
ENCODING 208
SWIDTH 737 0
DWIDTH 18 0
BBX 17 16 0 0
BITMAP
1CEFFFFFEDA6100000
001DF80126BFE70000
000BF8000005FF9000
000AF80000006FF500
000AF80000000DFD00
000AF800000008FF20
000AF800000005FF50
1EEFFEEEE90003FF60
000AF800000003FF70
000AF800000004FF50
000AF800000006FF30
000AF80000000AFD00
000AF80000002FF500
000BF8000001CF9000
001EF800137EE70000
0BEFFFEEEDB6100000
ENDCHAR
STARTCHAR Ntilde
ENCODING 209
SWIDTH 742 0
DWIDTH 18 0
BBX 18 21 0 0
BITMAP
0000005CA100700000
000003FFFD32900000
000008415BEB200000
000000000000000000
000000000000000000
4FFFF3000007FFFFF2
01AFFD1000001CF900
001FFFA0000005F200
001FCFF7000003F000
001F3CFF300003F000
001F22EFD10003F000
001F205FFB0003F000
001F2008FF7003F000
001F2000BFF403F000
001F20001DFE13F000
001F200003EFB3F000
001F2000005FFBF000
001F20000009FFF000
002F30000000BFF000
008F900000001EF000
4FFFFF40000003E000
ENDCHAR
STARTCHAR Ograve
ENCODING 210
SWIDTH 738 0
DWIDTH 18 0
BBX 16 20 1 0
BITMAP
000008FE20000000
0000005ED1000000
00000001AB000000
0000000000000000
00004ADEEC930000
001BF82004CF9000
01DF5000000BFB00
0AFA00000001EF70
2FF4000000009FD0
7FF0000000004FF3
9FC0000000002FF6
BFC0000000001FF7
BFC0000000001FF7
AFD0000000002FF5
7FF0000000004FF2
2FF4000000008FC0
0AFA00000000DF50
01EF50000008F900
002CF820029F8000
00005ADEED930000
ENDCHAR
STARTCHAR Oacute
ENCODING 211
SWIDTH 738 0
DWIDTH 18 0
BBX 16 20 1 0
BITMAP
00000005FF500000
0000003FC3000000
000002D700000000
0000000000000000
00004ADEEC930000
001BF82004CF9000
01DF5000000BFB00
0AFA00000001EF70
2FF4000000009FD0
7FF0000000004FF3
9FC0000000002FF6
BFC0000000001FF7
BFC0000000001FF7
AFD0000000002FF5
7FF0000000004FF2
2FF4000000008FC0
0AFA00000000DF50
01EF50000008F900
002CF820029F8000
00005ADEED930000
ENDCHAR
STARTCHAR Ocircumflex
ENCODING 212
SWIDTH 738 0
DWIDTH 18 0
BBX 16 21 1 0
BITMAP
0000001770000000
000000BFF8000000
000008E47F400000
00004C2004D10000
0000000000000000
00004ADEEC930000
001BF82004CF9000
01DF5000000BFB00
0AFA00000001EF70
2FF4000000009FD0
7FF0000000004FF3
9FC0000000002FF6
BFC0000000001FF7
BFC0000000001FF7
AFD0000000002FF5
7FF0000000004FF2
2FF4000000008FC0
0AFA00000000DF50
01EF50000008F900
002CF820029F8000
00005ADEED930000
ENDCHAR
STARTCHAR Otilde
ENCODING 213
SWIDTH 738 0
DWIDTH 18 0
BBX 16 21 1 0
BITMAP
000008C800080000
00007FFFB1470000
0000A216CE900000
0000000000000000
0000000000000000
00004ADEEC930000
001BF82004CF9000
01DF5000000BFB00
0AFA00000001EF70
2FF4000000009FD0
7FF0000000004FF3
9FC0000000002FF6
BFC0000000001FF7
BFC0000000001FF7
AFD0000000002FF5
7FF0000000004FF2
2FF4000000008FC0
0AFA00000000DF50
01EF50000008F900
002CF820029F8000
00005ADEED930000
ENDCHAR
STARTCHAR Odieresis
ENCODING 214
SWIDTH 738 0
DWIDTH 18 0
BBX 16 20 1 0
BITMAP
00008B2005C50000
0002FF800CFC0000
0000BE3007E70000
0000000000000000
00004ADEEC930000
001BF82004CF9000
01DF5000000BFB00
0AFA00000001EF70
2FF4000000009FD0
7FF0000000004FF3
9FC0000000002FF6
BFC0000000001FF7
BFC0000000001FF7
AFD0000000002FF5
7FF0000000004FF2
2FF4000000008FC0
0AFA00000000DF50
01EF50000008F900
002CF820029F8000
00005ADEED930000
ENDCHAR
STARTCHAR multiply
ENCODING 215
SWIDTH 720 0
DWIDTH 17 0
BBX 14 14 2 -1
BITMAP
770000000003B1
BF700000003EE2
1BF7000003EE30
01BF70004EE300
001CF704EE3000
0001CF9EE30000
00001CFE300000
00004EFF700000
0004EE3BF70000
003EE301BF7000
03EE30001BF700
3EE3000001BF70
DE300000001BF3
33000000000150
ENDCHAR
STARTCHAR Oslash
ENCODING 216
SWIDTH 737 0
DWIDTH 18 0
BBX 16 17 1 -1
BITMAP
00004ADEED933C00
001CF82004CFE500
01DF5000001EFA00
0AFA0000008AEF60
2FF3000005C19FD0
7FE000002D205FF3
AFC00001C4002FF6
BFB0000A70001FF7
BFC0007A00001FF6
AFD004D100002FF5
8FE02D2000004FF2
3FF5C50000008FC0
0CFE80000000DF40
02EF50000008F900
04DDF820039F8000
1D306BEEED930000
0100000000000000
ENDCHAR
STARTCHAR Ugrave
ENCODING 217
SWIDTH 752 0
DWIDTH 18 0
BBX 18 20 0 0
BITMAP
0000000DFC00000000
000000008FA0000000
0000000003C7000000
000000000000000000
7FFFFFF50004FFFFF9
019FF700000008FB10
003FF100000002F600
003FF100000001F600
003FF100000000F500
003FF100000000F500
003FF100000000F500
003FF100000000F500
003FF100000000F500
003FF100000000F500
002FF100000000F500
001FF200000002F300
000CF600000005E000
0006FC0000000B7000
0000AFB30003BA0000
000005BDEEDA500000
ENDCHAR
STARTCHAR Uacute
ENCODING 218
SWIDTH 752 0
DWIDTH 18 0
BBX 18 20 0 0
BITMAP
0000000009FE200000
000000007F91000000
00000005D400000000
000000000000000000
7FFFFFF50004FFFFF9
019FF700000008FB10
003FF100000002F600
003FF100000001F600
003FF100000000F500
003FF100000000F500
003FF100000000F500
003FF100000000F500
003FF100000000F500
003FF100000000F500
002FF100000000F500
001FF200000002F300
000CF600000005E000
0006FC0000000B7000
0000AFB30003BA0000
000005BDEEDA500000
ENDCHAR
STARTCHAR Ucircumflex
ENCODING 219
SWIDTH 752 0
DWIDTH 18 0
BBX 18 21 0 0
BITMAP
000000003850000000
00000002EFF4000000
0000000CC3AD100000
0000009A0007B00000
000000000000000000
7FFFFFF50004FFFFF9
019FF700000008FB10
003FF100000002F600
003FF100000001F600
003FF100000000F500
003FF100000000F500
003FF100000000F500
003FF100000000F500
003FF100000000F500
003FF100000000F500
002FF100000000F500
001FF200000002F300
000CF600000005E000
0006FC0000000B7000
0000AFB30003BA0000
000005BDEEDA500000
ENDCHAR
STARTCHAR Udieresis
ENCODING 220
SWIDTH 752 0
DWIDTH 18 0
BBX 18 20 0 0
BITMAP
000001BA0008B20000
000006FF401FF80000
000002DC100BE30000
000000000000000000
7FFFFFF50004FFFFF9
019FF700000008FB10
003FF100000002F600
003FF100000001F600
003FF100000000F500
003FF100000000F500
003FF100000000F500
003FF100000000F500
003FF100000000F500
003FF100000000F500
002FF100000000F500
001FF200000002F300
000CF600000005E000
0006FC0000000B7000
0000AFB30003BA0000
000005BDEEDA500000
ENDCHAR
STARTCHAR Yacute
ENCODING 221
SWIDTH 647 0
DWIDTH 16 0
BBX 17 20 -1 0
BITMAP
000000002EF9000000
00000001CE50000000
0000000BA100000000
000000000000000000
2FFFFFF50008FFFF90
018FFC0000002FC200
0009FF2000005E1000
0001DFB00001D50000
00004FF50008B00000
00000AFE102E200000
000001EF90A8000000
0000006FF7D1000000
0000000BFF50000000
00000005FE00000000
00000004FE00000000
00000004FE00000000
00000004FE00000000
00000005FF00000000
0000000AFF60000000
00000AFFFFFF600000
ENDCHAR
STARTCHAR Thorn
ENCODING 222
SWIDTH 572 0
DWIDTH 14 0
BBX 13 16 0 0
BITMAP
3EFFFFFE000000
004FFC20000000
000DF600000000
000CFEEEDB7100
000CF6014CFD20
000CF60001DFA0
000CF600008FE0
000CF600007FF0
000CF600008FC0
000CF60000DF60
000CF6014BF800
000CFDEDC93000
000CF600000000
000DF700000000
003FFC10000000
3EFFFFFE000000
ENDCHAR
STARTCHAR germandbls
ENCODING 223
SWIDTH 563 0
DWIDTH 14 0
BBX 13 18 0 0
BITMAP
00004ACCB50000
0006E4007FA000
001E90000DF200
005F70000BF400
007F70000DF200
008F70003FA000
3EEF7027E91000
008F70AD500000
008F7027ED5000
008F70002DF600
008F700003FF20
008F700000CF80
008F7000009FB0
008F7000008FB0
008F7030008F90
008F74F900AF40
00BF74FF12EA00
6DFF707DDB6000
ENDCHAR
STARTCHAR agrave
ENCODING 224
SWIDTH 480 0
DWIDTH 12 0
BBX 12 17 0 0
BITMAP
000EF6000000
0003FC000000
00005F300000
000008A00000
000000000000
0029DEEA1000
02EB008FA000
08F7001EF100
07F5000DF300
0020000CF300
0000159EF300
002AD83CF300
05FB100CF300
0EF2000CF300
1FF1000CF300
0CF8015BF522
02BED913EE90
ENDCHAR
STARTCHAR aacute
ENCODING 225
SWIDTH 480 0
DWIDTH 12 0
BBX 12 17 0 0
BITMAP
000004FE1000
00000BF50000
00002F700000
000089000000
000000000000
0029DEEA1000
02EB008FA000
08F7001EF100
07F5000DF300
0020000CF300
0000159EF300
002AD83CF300
05FB100CF300
0EF2000CF300
1FF1000CF300
0CF8015BF522
02BED913EE90
ENDCHAR
STARTCHAR acircumflex
ENCODING 226
SWIDTH 480 0
DWIDTH 12 0
BBX 12 17 0 0
BITMAP
00009FA00000
0003FBF40000
000D807D1000
008900079000
000000000000
0029DEEA1000
02EB008FA000
08F7001EF100
07F5000DF300
0020000CF300
0000159EF300
002AD83CF300
05FB100CF300
0EF2000CF300
1FF1000CF300
0CF8015BF522
02BED913EE90
ENDCHAR
STARTCHAR atilde
ENCODING 227
SWIDTH 480 0
DWIDTH 12 0
BBX 12 16 0 0
BITMAP
001AC5003500
00BFFF71A200
01A139DD5000
000000000000
0029DEEA1000
02EB008FA000
08F7001EF100
07F5000DF300
0020000CF300
0000159EF300
002AD83CF300
05FB100CF300
0EF2000CF300
1FF1000CF300
0CF8015BF522
02BED913EE90
ENDCHAR
STARTCHAR adieresis
ENCODING 228
SWIDTH 480 0
DWIDTH 12 0
BBX 12 17 0 0
BITMAP
01BA0009B200
06FF302FF700
02DC100BE300
000000000000
000000000000
0029DEEA1000
02EB008FA000
08F7001EF100
07F5000DF300
0020000CF300
0000159EF300
002AD83CF300
05FB100CF300
0EF2000CF300
1FF1000CF300
0CF8015BF522
02BED913EE90
ENDCHAR
STARTCHAR aring
ENCODING 229
SWIDTH 480 0
DWIDTH 12 0
BBX 12 18 0 0
BITMAP
0002BEB20000
000A706B0000
000D201E0000
000B707B0000
0002BEB20000
000000000000
0029DEEA1000
02EB008FA000
08F7001EF100
07F5000DF300
0020000CF300
0000159EF300
002AD83CF300
05FB100CF300
0EF2000CF300
1FF1000CF300
0CF8015BF522
02BED913EE90
ENDCHAR
STARTCHAR ae
ENCODING 230
SWIDTH 709 0
DWIDTH 17 0
BBX 17 12 0 0
BITMAP
004BDED706CEEA2000
05F9009FCC203EE200
0AF5002FF40006FA00
0271000FF10002FF00
0000027FFEEEEEEE20
0005CC6FF000000000
01CE400FF100000000
0AF5000EF400000000
0FF1000CF900000720
1FF1002DFF70007B00
0CF902A2BFFEDEE200
02BED81007DEEA2000
ENDCHAR
STARTCHAR ccedilla
ENCODING 231
SWIDTH 446 0
DWIDTH 11 0
BBX 11 17 0 -5
BITMAP
0005BDEC7000
008D302EF700
04F30007FC00
0BD000009600
0FB000000000
2FB000000000
3FD000000000
2FF100000000
0EF700000710
08FF50018A00
01DFFEDFE200
002AEFEA2000
00000A000000
00002EE90000
0000005F3000
0000205F2000
0001ADD60000
ENDCHAR
STARTCHAR egrave
ENCODING 232
SWIDTH 464 0
DWIDTH 11 0
BBX 11 17 0 0
BITMAP
000AFA000000
0001DF100000
00002E700000
000004D00000
000000000000
0006CEEB3000
00AC202DE300
06F20004FC00
0CD00000FF20
1FFEEEEEEE40
2FC000000000
2FE000000000
1FF300000000
0CFA00000530
05FF91006C00
009FFFDEE300
0006CEEB3000
ENDCHAR
STARTCHAR eacute
ENCODING 233
SWIDTH 464 0
DWIDTH 11 0
BBX 11 17 0 0
BITMAP
000001EF5000
000007F80000
00000DB00000
00004C100000
000000000000
0006CEEB3000
00AC202DE300
06F20004FC00
0CD00000FF20
1FFEEEEEEE40
2FC000000000
2FE000000000
1FF300000000
0CFA00000530
05FF91006C00
009FFFDEE300
0006CEEB3000
ENDCHAR
STARTCHAR ecircumflex
ENCODING 234
SWIDTH 464 0
DWIDTH 11 0
BBX 11 17 0 0
BITMAP
00005FD10000
0001DCE90000
0009B13E3000
004C1004C000
000000000000
0006CEEB3000
00AC202DE300
06F20004FC00
0CD00000FF20
1FFEEEEEEE40
2FC000000000
2FE000000000
1FF300000000
0CFA00000530
05FF91006C00
009FFFDEE300
0006CEEB3000
ENDCHAR
STARTCHAR edieresis
ENCODING 235
SWIDTH 464 0
DWIDTH 11 0
BBX 11 17 0 0
BITMAP
009B2006C400
02FF700DFB00
00BE3008E600
000000000000
000000000000
0006CEEB3000
00AC202DE300
06F20004FC00
0CD00000FF20
1FFEEEEEEE40
2FC000000000
2FE000000000
1FF300000000
0CFA00000530
05FF91006C00
009FFFDEE300
0006CEEB3000
ENDCHAR
STARTCHAR igrave
ENCODING 236
SWIDTH 285 0
DWIDTH 7 0
BBX 7 17 0 0
BITMAP
7FC00000
0BF40000
01DA0000
002E2000
00000000
17BE7000
15CF7000
008F7000
008F7000
008F7000
008F7000
008F7000
008F7000
008F7000
008F7000
00BFA000
3FFFFF20
ENDCHAR
STARTCHAR iacute
ENCODING 237
SWIDTH 285 0
DWIDTH 7 0
BBX 7 17 0 0
BITMAP
000CF700
004FB000
00AD1000
02E20000
00000000
17BE7000
15CF7000
008F7000
008F7000
008F7000
008F7000
008F7000
008F7000
008F7000
008F7000
00BFA000
3FFFFF20
ENDCHAR
STARTCHAR icircumflex
ENCODING 238
SWIDTH 285 0
DWIDTH 7 0
BBX 7 17 0 0
BITMAP
02EF2000
0ADDA000
4E22E400
C3003C00
00000000
17BE7000
15CF7000
008F7000
008F7000
008F7000
008F7000
008F7000
008F7000
008F7000
008F7000
00BFA000
3FFFFF20
ENDCHAR
STARTCHAR idieresis
ENCODING 239
SWIDTH 285 0
DWIDTH 7 0
BBX 8 16 -1 0
BITMAP
5E9009E5
AFF00EFA
3C7007C4
00000000
017BE700
015CF700
0008F700
0008F700
0008F700
0008F700
0008F700
0008F700
0008F700
0008F700
000BFA00
03FFFFF2
ENDCHAR
STARTCHAR eth
ENCODING 240
SWIDTH 532 0
DWIDTH 13 0
BBX 12 18 0 0
BITMAP
006CEEB50032
003103AFABB3
0000005EF900
00003CA4EE20
000022007F80
000000001FD0
0005BEEB3DF2
008F7004DFF5
05F900005FF7
0CF400000EF8
1FF200000CF9
2FF100000BF8
2FF100000CF6
1FF300000DF3
0CF500001FE0
06FB00007F60
00AF8104EA00
0006CEEC6000
ENDCHAR
STARTCHAR ntilde
ENCODING 241
SWIDTH 576 0
DWIDTH 14 0
BBX 14 16 0 0
BITMAP
00004BA2007100
0001EFFE42A000
0006714AEB2000
00000000000000
29CE629DFC3000
00AFBA205FD000
008FA0000BF500
008F700008F700
008F700007F800
008F700007F800
008F700007F800
008F700007F800
008F700007F800
008F700007F800
00BFA0000AFB00
3FFFFF43FFFFF4
ENDCHAR
STARTCHAR ograve
ENCODING 242
SWIDTH 514 0
DWIDTH 12 0
BBX 12 17 0 0
BITMAP
0003FF200000
00007F800000
00000AE00000
000000C50000
000000000000
0004BDED8100
008F8105ED20
04FA00007FB0
0BF400001FF2
1FF200000DF6
2FF100000BF7
2FF100000BF7
1FF300000CF5
0CF600000EF1
06FB00004F90
00AF9103DC10
0006BEEC7100
ENDCHAR
STARTCHAR oacute
ENCODING 243
SWIDTH 514 0
DWIDTH 12 0
BBX 12 17 0 0
BITMAP
0000009FB000
000001EE2000
000006E30000
00000C500000
000000000000
0004BDED8100
008F8105ED20
04FA00007FB0
0BF400001FF2
1FF200000DF6
2FF100000BF7
2FF100000BF7
1FF300000CF5
0CF600000EF1
06FB00004F90
00AF9103DC10
0006BEEC7100
ENDCHAR
STARTCHAR ocircumflex
ENCODING 244
SWIDTH 514 0
DWIDTH 12 0
BBX 12 17 0 0
BITMAP
00000CF60000
00008EBE1000
0003E40BA000
000C5000B500
000000000000
0004BDED8100
008F8105ED20
04FA00007FB0
0BF400001FF2
1FF200000DF6
2FF100000BF7
2FF100000BF7
1FF300000CF5
0CF600000EF1
06FB00004F90
00AF9103DC10
0006BEEC7100
ENDCHAR
STARTCHAR otilde
ENCODING 245
SWIDTH 514 0
DWIDTH 12 0
BBX 12 16 0 0
BITMAP
0003BB200710
001EFFE42A00
005714AEC300
000000000000
0004BDED8100
008F8105ED20
04FA00007FB0
0BF400001FF2
1FF200000DF6
2FF100000BF7
2FF100000BF7
1FF300000CF5
0CF600000EF1
06FB00004F90
00AF9103DC10
0006BEEC7100
ENDCHAR
STARTCHAR odieresis
ENCODING 246
SWIDTH 514 0
DWIDTH 12 0
BBX 12 17 0 0
BITMAP
004C7001BA00
00AFE006FF30
005E9002DC10
000000000000
000000000000
0004BDED8100
008F8105ED20
04FA00007FB0
0BF400001FF2
1FF200000DF6
2FF100000BF7
2FF100000BF7
1FF300000CF5
0CF600000EF1
06FB00004F90
00AF9103DC10
0006BEEC7100
ENDCHAR
STARTCHAR divide
ENCODING 247
SWIDTH 720 0
DWIDTH 17 0
BBX 15 13 1 0
BITMAP
0000005E80000000
000000AFE0000000
0000004C60000000
0000000000000000
0000000000000000
7DDDDDDDDDDDDDA0
8FFFFFFFFFFFFFC0
0000000000000000
0000000000000000
0000000000000000
0000004C60000000
000000AFE0000000
0000005E90000000
ENDCHAR
STARTCHAR oslash
ENCODING 248
SWIDTH 514 0
DWIDTH 12 0
BBX 12 14 0 -1
BITMAP
000000000100
0004BDEC7A60
008F8107FF10
04FA0002EFA0
0BF4000C6FF2
1FF200970CF6
2FF106B00BF7
2FF13D100BF7
1FF4C3000CF5
0CFE60000EF1
06FD00004FA0
04FF8103DC10
0C26CEEC7100
010000000000
ENDCHAR
STARTCHAR ugrave
ENCODING 249
SWIDTH 570 0
DWIDTH 14 0
BBX 13 17 0 0
BITMAP
0000DF60000000
00003ED0000000
000005F4000000
0000007A000000
00000000000000
4BDF3006BDF400
14EF30024EF400
00CF30000BF400
00CF30000BF400
00CF30000BF400
00CF30000BF400
00CF30000BF400
00CF30000BF400
00BF30000BF400
009F60001CF400
004FD303BDF600
0006DFD929EC80
ENDCHAR
STARTCHAR uacute
ENCODING 250
SWIDTH 570 0
DWIDTH 14 0
BBX 13 17 0 0
BITMAP
0000003FF20000
000000AF500000
000001F8000000
000007A0000000
00000000000000
4BDF3006BDF400
14EF30024EF400
00CF30000BF400
00CF30000BF400
00CF30000BF400
00CF30000BF400
00CF30000BF400
00CF30000BF400
00BF30000BF400
009F60001CF400
004FD303BDF600
0006DFD929EC80
ENDCHAR
STARTCHAR ucircumflex
ENCODING 251
SWIDTH 570 0
DWIDTH 14 0
BBX 13 17 0 0
BITMAP
000008FB000000
00003FBF500000
0000C906E10000
000790006A0000
00000000000000
4BDF3006BDF400
14EF30024EF400
00CF30000BF400
00CF30000BF400
00CF30000BF400
00CF30000BF400
00CF30000BF400
00CF30000BF400
00BF30000BF400
009F60001CF400
004FD303BDF600
0006DFD929EC80
ENDCHAR
STARTCHAR udieresis
ENCODING 252
SWIDTH 570 0
DWIDTH 14 0
BBX 13 17 0 0
BITMAP
001BA1008C2000
005FF401FF8000
002DD100BE4000
00000000000000
00000000000000
4BDF3006BDF400
14EF30024EF400
00CF30000BF400
00CF30000BF400
00CF30000BF400
00CF30000BF400
00CF30000BF400
00CF30000BF400
00BF30000BF400
009F60001CF400
004FD303BDF600
0006DFD929EC80
ENDCHAR
STARTCHAR yacute
ENCODING 253
SWIDTH 483 0
DWIDTH 12 0
BBX 13 22 -1 -5
BITMAP
00000009FB0000
0000001EE20000
0000006E300000
000000C5000000
00000000000000
4FFFFC004FFFC0
02EF900001E900
008FC00002F100
001EF30007A000
0009FA000C5000
0002FF202E0000
0000AF80780000
00003FE1C20000
00000BF7B00000
000004FF600000
000000DE100000
000000A9000000
000000E3000000
000006C0000000
00101E40000000
0BFDD900000000
08EE8000000000
ENDCHAR
STARTCHAR thorn
ENCODING 254
SWIDTH 524 0
DWIDTH 13 0
BBX 12 22 0 -5
BITMAP
48CE00000000
58FE00000000
01FE00000000
01FE00000000
01FE00000000
01FE03BED700
01FE4EDEFF80
01FFA2009FF2
01FE10000DF7
01FE000009FA
01FE000007FB
01FE000007FA
01FE000008F7
01FE00000BF2
01FE10002FA0
01FFD302CC10
01FE9DED8100
01FE00000000
01FE00000000
01FE00000000
05FF40000000
CFFFFE400000
ENDCHAR
STARTCHAR ydieresis
ENCODING 255
SWIDTH 483 0
DWIDTH 12 0
BBX 13 22 -1 -5
BITMAP
0004C7001BA000
000AFE006FF300
0005E9002DC100
00000000000000
00000000000000
4FFFFC004FFFC0
02EF900001E900
008FC00002F100
001EF30007A000
0009FA000C5000
0002FF202E0000
0000AF80780000
00003FE1C20000
00000BF7B00000
000004FF600000
000000DE100000
000000A9000000
000000E3000000
000006C0000000
00101E40000000
0BFDD900000000
08EE8000000000
ENDCHAR
STARTCHAR Amacron
ENCODING 256
SWIDTH 718 0
DWIDTH 17 0
BBX 18 19 0 0
BITMAP
00000EEEEEEE000000
000000000000000000
000000000000000000
00000003F300000000
0000000AF900000000
0000001FFF10000000
0000008CDF80000000
000000E67FE0000000
000005E12FF6000000
00000C900BFC000000
00003F3005FF400000
00009C0000EFB00000
0001F600009FF20000
0007FEEEEEEFF90000
000D9000000BFE1000
005F20000004FF7000
00CA00000000DFE100
07F900000001CFF910
DFFFE100004FFFFFF2
ENDCHAR
STARTCHAR amacron
ENCODING 257
SWIDTH 480 0
DWIDTH 12 0
BBX 12 15 0 0
BITMAP
00DEEEEEE000
000000000000
000000000000
0029DEEA1000
02EB008FA000
08F7001EF100
07F5000DF300
0020000CF300
0000159EF300
002AD83CF300
05FB100CF300
0EF2000CF300
1FF1000CF300
0CF8015BF522
02BED913EE90
ENDCHAR
STARTCHAR Abreve
ENCODING 258
SWIDTH 718 0
DWIDTH 17 0
BBX 18 22 0 0
BITMAP
00000D00000C000000
00000D70008B000000
000006FEDEF5000000
0000006DED60000000
000000000000000000
000000000000000000
00000003F300000000
0000000AF900000000
0000001FFF10000000
0000008CDF80000000
000000E67FE0000000
000005E12FF6000000
00000C900BFC000000
00003F3005FF400000
00009C0000EFB00000
0001F600009FF20000
0007FEEEEEEFF90000
000D9000000BFE1000
005F20000004FF7000
00CA00000000DFE100
07F900000001CFF910
DFFFE100004FFFFFF2
ENDCHAR
STARTCHAR abreve
ENCODING 259
SWIDTH 480 0
DWIDTH 12 0
BBX 12 17 0 0
BITMAP
00D00000C000
00C80007C000
006FEDEF5000
0006CED60000
000000000000
0029DEEA1000
02EB008FA000
08F7001EF100
07F5000DF300
0020000CF300
0000159EF300
002AD83CF300
05FB100CF300
0EF2000CF300
1FF1000CF300
0CF8015BF522
02BED913EE90
ENDCHAR
STARTCHAR Aogonek
ENCODING 260
SWIDTH 719 0
DWIDTH 17 0
BBX 18 21 0 -5
BITMAP
00000003F300000000
00000009FA00000000
0000001EFF20000000
0000007ABF80000000
000000D34FE1000000
000005C00DF6000000
00000B5006FD000000
00003D0001EF400000
00009700009FB00000
0001EEEEEEEFF30000
0007A000000CF90000
000D40000005FF1000
005E00000000EF7000
00C900000000BFE100
07FA00000004EFFA10
DFFFF20001AFFFFFF2
000000000CE5000000
000000006F50000000
000000009F00000000
000000007F30340000
000000001BEC700000
ENDCHAR
STARTCHAR aogonek
ENCODING 261
SWIDTH 480 0
DWIDTH 12 0
BBX 12 17 0 -5
BITMAP
0029DEEA1000
02EB008FA000
08F7000EF100
06F5000CF300
0010000CF300
000026AEF300
003AD72CF300
05FA000CF300
0EF2000CF300
1FF1000CF300
0CF8016BF643
02BED914EFB0
00000002D700
0000001D7000
0000008F1000
0000008F3044
0000001BED70
ENDCHAR
STARTCHAR Cacute
ENCODING 262
SWIDTH 670 0
DWIDTH 16 0
BBX 14 20 1 0
BITMAP
00000003EF7000
0000002DD40000
000001C9100000
00000000000000
000049CEEEB689
001BF930029FF9
01DF60000008F9
0AFB00000000D9
2FF40000000089
7FE00000000059
AFC00000000000
BFB00000000000
BFB00000000000
AFC00000000000
7FE00000000000
2FF40000000000
0BFB0000000001
02EF700000004C
002DFA40004AB1
00006BEFDD9400
ENDCHAR
STARTCHAR cacute
ENCODING 263
SWIDTH 446 0
DWIDTH 11 0
BBX 11 17 0 0
BITMAP
000001FF4000
000007F80000
00000DA00000
00005C100000
000000000000
0005BDEC7000
008D302EF700
05F30007FC00
0BD000009600
1FB000000000
2FB000000000
3FD000000000
1FF100000000
0DF700000710
07FF50018A00
00CFFEDFD200
0018DFE91000
ENDCHAR
STARTCHAR Ccircumflex
ENCODING 264
SWIDTH 670 0
DWIDTH 16 0
BBX 14 21 1 0
BITMAP
00000007710000
0000009FFA0000
000005F65E7000
00002D3003D300
00000000000000
000049CEEEB689
001BF930029FF9
01DF60000008F9
0AFB00000000D9
2FF40000000089
7FE00000000059
AFC00000000000
BFB00000000000
BFB00000000000
AFC00000000000
7FE00000000000
2FF40000000000
0BFB0000000001
02EF700000004C
002DFA40004AB1
00006BEFDD9400
ENDCHAR
STARTCHAR ccircumflex
ENCODING 265
SWIDTH 446 0
DWIDTH 11 0
BBX 11 17 0 0
BITMAP
00005FD00000
0001EBE80000
000AB04E3000
004B1004C000
000000000000
0005BDEC7000
008D302EF700
05F30007FC00
0BD000009600
1FB000000000
2FB000000000
3FD000000000
1FF100000000
0DF700000710
07FF50018A00
00CFFEDFD200
0018DFE91000
ENDCHAR
STARTCHAR Cdotaccent
ENCODING 266
SWIDTH 670 0
DWIDTH 16 0
BBX 14 20 1 0
BITMAP
0000000AB10000
0000004FF50000
0000001CD20000
00000000000000
000049CEEEB689
001BF930029FF9
01DF60000008F9
0AFB00000000D9
2FF40000000089
7FE00000000059
AFC00000000000
BFB00000000000
BFB00000000000
AFC00000000000
7FE00000000000
2FF40000000000
0BFB0000000001
02EF700000004C
002DFA40004AB1
00006BEFDD9400
ENDCHAR
STARTCHAR cdotaccent
ENCODING 267
SWIDTH 446 0
DWIDTH 11 0
BBX 11 17 0 0
BITMAP
00002C800000
00008FF10000
00004EB00000
000000000000
000000000000
0005BDEC7000
008D302EF700
05F30007FC00
0BD000009600
1FB000000000
2FB000000000
3FD000000000
1FF100000000
0DF700000710
07FF50018A00
00CFFEDFD200
0018DFE91000
ENDCHAR
STARTCHAR Ccaron
ENCODING 268
SWIDTH 670 0
DWIDTH 16 0
BBX 14 21 1 0
BITMAP
00002600005300
00000BA109C000
000001DCBE2000
0000003FF40000
00000000000000
000049CEEEB689
001BF930029FF9
01DF60000008F9
0AFB00000000D9
2FF40000000089
7FE00000000059
AFC00000000000
BFB00000000000
BFB00000000000
AFC00000000000
7FE00000000000
2FF40000000000
0BFB0000000001
02EF700000004C
002DFA40004AB1
00006BEFDD9400
ENDCHAR
STARTCHAR ccaron
ENCODING 269
SWIDTH 446 0
DWIDTH 11 0
BBX 11 17 0 0
BITMAP
004B1004C000
000AB04E3000
0001EBE80000
00005FD00000
000000000000
0005BDEC7000
008D302EF700
05F30007FC00
0BD000009600
1FB000000000
2FB000000000
3FD000000000
1FF100000000
0DF700000710
07FF50018A00
00CFFEDFD200
0018DFE91000
ENDCHAR
STARTCHAR Dcaron
ENCODING 270
SWIDTH 730 0
DWIDTH 18 0
BBX 17 21 0 0
BITMAP
000017100044000000
000008C207D1000000
000000BEAF40000000
0000001EF700000000
000000000000000000
2CEFFFFFEDA6100000
002FF70136CFE60000
000DF6000006FF8000
000CF60000007FF300
000CF60000000DFB00
000CF600000008FF10
000CF600000005FF30
000CF600000004FF40
000CF600000003FF40
000CF600000004FF30
000CF600000006FF10
000CF60000000AFB00
000CF60000003FF300
000DF6000002DF7000
001EF600148EE50000
2BEFFFEFEDA6100000
ENDCHAR
STARTCHAR dcaron
ENCODING 271
SWIDTH 626 0
DWIDTH 15 0
BBX 15 17 0 0
BITMAP
000000059D907F80
00000006BF908F50
000000006F909F10
000000005F90AB00
000000005F909300
0003ADEDBF900000
005E7104EF900000
02E800008F900000
0AF200005F900000
0EE000005F900000
2FD000005F900000
3FE000005F900000
2FF100005F900000
0EF600005F900000
0AFE4002BFA00000
02EFFEEE8FE62000
003BEEA24EB92000
ENDCHAR
STARTCHAR Dcroat
ENCODING 272
SWIDTH 733 0
DWIDTH 18 0
BBX 17 16 0 0
BITMAP
2CEFFFFFEDA6100000
002FF70136CFE60000
000CF6000007FF7000
000CF60000008FF300
000CF60000001EFB00
000CF60000000AFF10
000CF600000007FF30
2EEFFEEEE70005FF50
000CF600000005FF50
000CF600000005FF40
000CF600000008FF10
000CF60000000BFB00
000CF60000004FF400
000DF6000002DF7000
001FF600148FE50000
2CEFFFEFEDA6100000
ENDCHAR
STARTCHAR dcroat
ENCODING 273
SWIDTH 540 0
DWIDTH 13 0
BBX 13 17 0 0
BITMAP
000000059DA000
00000007CFA000
000000006FA000
00000EEEEFFE40
000000006FA000
0003ADECBFA000
005E7103EFA000
02E800008FA000
0AF200006FA000
0EE000006FA000
2FD000006FA000
3FE000006FA000
2FF100006FA000
0EF600006FA000
09FE4002BFA000
02EFFEDE8FE620
003BEEA25EB920
ENDCHAR
STARTCHAR Emacron
ENCODING 274
SWIDTH 626 0
DWIDTH 15 0
BBX 15 19 0 0
BITMAP
0000CEEEEEE30000
0000000000000000
0000000000000000
2CEFFFFFFFFFF700
002FF7111236E800
000DF60000006900
000CF60000001300
000CF600002A0000
000CF600004A0000
000CF60002BA0000
000CFEEEEFFA0000
000CF600018A0000
000CF600002A0000
000CF60000000000
000CF60000000840
000CF60000000D20
000DF60000006F00
001EF7111237ED00
2BEFFFFFFFFFFB00
ENDCHAR
STARTCHAR emacron
ENCODING 275
SWIDTH 464 0
DWIDTH 11 0
BBX 11 15 0 0
BITMAP
009EEEEEE400
000000000000
000000000000
0006CEEB3000
00AC202DE300
06F20004FC00
0CD00000FF20
1FFEEEEEEE40
2FC000000000
2FE000000000
1FF300000000
0CFA00000530
05FF91006C00
009FFFDEE300
0006CEEB3000
ENDCHAR
STARTCHAR Ebreve
ENCODING 276
SWIDTH 626 0
DWIDTH 15 0
BBX 15 22 0 0
BITMAP
0000C10000A20000
0000AA1006E00000
00004FFDEF800000
000004CED8000000
0000000000000000
0000000000000000
2CEFFFFFFFFFF700
002FF7111236E800
000DF60000006900
000CF60000001300
000CF600002A0000
000CF600004A0000
000CF60002BA0000
000CFEEEEFFA0000
000CF600018A0000
000CF600002A0000
000CF60000000000
000CF60000000840
000CF60000000D20
000DF60000006F00
001EF7111237ED00
2BEFFFFFFFFFFB00
ENDCHAR
STARTCHAR ebreve
ENCODING 277
SWIDTH 464 0
DWIDTH 11 0
BBX 11 17 0 0
BITMAP
00A300009400
008B1004E100
002FFDDF9000
0003BED91000
000000000000
0006CEEB3000
00AC202DE300
06F20004FC00
0CD00000FF20
1FFEEEEEEE40
2FC000000000
2FE000000000
1FF300000000
0CFA00000530
05FF91006C00
009FFFDEE300
0006CEEB3000
ENDCHAR
STARTCHAR Edotaccent
ENCODING 278
SWIDTH 626 0
DWIDTH 15 0
BBX 15 20 0 0
BITMAP
0000003C70000000
0000009FF0000000
0000004EA0000000
0000000000000000
2CEFFFFFFFFFF700
002FF7111236E800
000DF60000006900
000CF60000001300
000CF600002A0000
000CF600004A0000
000CF60002BA0000
000CFEEEEFFA0000
000CF600018A0000
000CF600002A0000
000CF60000000000
000CF60000000840
000CF60000000D20
000DF60000006F00
001EF7111237ED00
2BEFFFFFFFFFFB00
ENDCHAR
STARTCHAR edotaccent
ENCODING 279
SWIDTH 464 0
DWIDTH 11 0
BBX 11 17 0 0
BITMAP
00002B900000
00008FF20000
00003EB00000
000000000000
000000000000
0006CEEB3000
00AC202DE300
06F20004FC00
0CD00000FF20
1FFEEEEEEE40
2FC000000000
2FE000000000
1FF300000000
0CFA00000530
05FF91006C00
009FFFDEE300
0006CEEB3000
ENDCHAR
STARTCHAR Eogonek
ENCODING 280
SWIDTH 625 0
DWIDTH 15 0
BBX 15 21 0 -5
BITMAP
19DFFEEEEEFFF700
001EF6000004D800
000DF60000006800
000CF60000001200
000CF600002A0000
000CF600004A0000
000CF60002BA0000
000CFEEEEFFA0000
000CF600018A0000
000CF600002A0000
000CF60000000000
000CF60000000940
000CF60000000D20
000CF60000005F00
000EF6000015ED00
19CFFEEEEEFFFB00
00000000004C2000
0000000004E20000
000000000CB00000
000000000DD10610
0000000004DEC400
ENDCHAR
STARTCHAR eogonek
ENCODING 281
SWIDTH 464 0
DWIDTH 11 0
BBX 11 17 0 -5
BITMAP
0006CEEB3000
00AC202DE300
06F20004FC00
0CD00000FF20
1FFEEEEEEE40
2FC000000000
2FE000000000
1FF300000000
0CFA00000530
05FF91006C00
009FFFDEF300
0006CEFD4000
000004B10000
00003E200000
0000BC000000
0000BE105200
00003DEC5000
ENDCHAR
STARTCHAR Ecaron
ENCODING 282
SWIDTH 626 0
DWIDTH 15 0
BBX 15 21 0 0
BITMAP
0000530001700000
00002E602D700000
000005FAEA000000
0000008FD1000000
0000000000000000
2CEFFFFFFFFFF700
002FF7111236E800
000DF60000006900
000CF60000001300
000CF600002A0000
000CF600004A0000
000CF60002BA0000
000CFEEEEFFA0000
000CF600018A0000
000CF600002A0000
000CF60000000000
000CF60000000840
000CF60000000D20
000DF60000006F00
001EF7111237ED00
2BEFFFFFFFFFFB00
ENDCHAR
STARTCHAR ecaron
ENCODING 283
SWIDTH 464 0
DWIDTH 11 0
BBX 11 17 0 0
BITMAP
004C1004C000
0009B13E3000
0001DBE90000
00005FD10000
000000000000
0006CEEB3000
00AC202DE300
06F20004FC00
0CD00000FF20
1FFEEEEEEE40
2FC000000000
2FE000000000
1FF300000000
0CFA00000530
05FF91006C00
009FFFDEE300
0006CEEB3000
ENDCHAR
STARTCHAR Gcircumflex
ENCODING 284
SWIDTH 720 0
DWIDTH 17 0
BBX 16 21 1 0
BITMAP
0000000771000000
0000009FFA000000
000005F65E600000
00002D3003D30000
0000000000000000
000049DEEEB68A00
001BF920029FFA00
01DF60000007FA00
0AFA00000000DA00
2FF3000000008A00
7FE0000000004A00
AFC0000000000000
CFB0000000000000
CFB0000007FFFFF6
BFC00000001BFF20
8FE000000006FD00
4FF400000006FC00
0CFA00000006FC00
03FF60000006FC00
004EF930017EF800
00017BEEEEB72000
ENDCHAR
STARTCHAR gcircumflex
ENCODING 285
SWIDTH 484 0
DWIDTH 12 0
BBX 12 22 0 -5
BITMAP
00005FD10000
0001DCE90000
0009B13E3000
004C1004C000
000000000000
0019DEFFFEE5
01DD203DF500
08F70006FC00
0BF60004FE00
0BF80005FB00
07FE402CF400
00BCCED92000
004400000000
03F100000000
0BF500000000
0BFFEDDCB710
02CFFFFFFFC0
04C000013BF1
2E70000002F1
7F80000005B0
3FE610017B10
04BEFDC94000
ENDCHAR
STARTCHAR Gbreve
ENCODING 286
SWIDTH 720 0
DWIDTH 17 0
BBX 16 22 1 0
BITMAP
0000760000580000
00005D2002D40000
00000DFDDFD00000
000002AEEA200000
0000000000000000
0000000000000000
000049DEEEB68A00
001BF920029FFA00
01DF60000007FA00
0AFA00000000DA00
2FF3000000008A00
7FE0000000004A00
AFC0000000000000
CFB0000000000000
CFB0000007FFFFF6
BFC00000001BFF20
8FE000000006FD00
4FF400000006FC00
0CFA00000006FC00
03FF60000006FC00
004EF930017EF800
00017BEEEEB72000
ENDCHAR
STARTCHAR gbreve
ENCODING 287
SWIDTH 484 0
DWIDTH 12 0
BBX 12 22 0 -5
BITMAP
00A300009400
008B1004E100
002FFDDF9000
0003BED91000
000000000000
0019DEFFFEE5
01DD203DF500
08F70006FC00
0BF60004FE00
0BF80005FB00
07FE402CF400
00BCCED92000
004400000000
03F100000000
0BF500000000
0BFFEDDCB710
02CFFFFFFFC0
04C000013BF1
2E70000002F1
7F80000005B0
3FE610017B10
04BEFDC94000
ENDCHAR
STARTCHAR Gdotaccent
ENCODING 288
SWIDTH 720 0
DWIDTH 17 0
BBX 16 20 1 0
BITMAP
0000000AB1000000
0000004FF5000000
0000001DD2000000
0000000000000000
000049DEEEB68A00
001BF920029FFA00
01DF60000007FA00
0AFA00000000DA00
2FF3000000008A00
7FE0000000004A00
AFC0000000000000
CFB0000000000000
CFB0000007FFFFF6
BFC00000001BFF20
8FE000000006FD00
4FF400000006FC00
0CFA00000006FC00
03FF60000006FC00
004EF930017EF800
00017BEEEEB72000
ENDCHAR
STARTCHAR gdotaccent
ENCODING 289
SWIDTH 484 0
DWIDTH 12 0
BBX 12 22 0 -5
BITMAP
00002B900000
00008FF20000
00003EB00000
000000000000
000000000000
0019DEFFFEE5
01DD203DF500
08F70006FC00
0BF60004FE00
0BF80005FB00
07FE402CF400
00BCCED92000
004400000000
03F100000000
0BF500000000
0BFFEDDCB710
02CFFFFFFFC0
04C000013BF1
2E70000002F1
7F80000005B0
3FE610017B10
04BEFDC94000
ENDCHAR
STARTCHAR Gcommaaccent
ENCODING 290
SWIDTH 720 0
DWIDTH 17 0
BBX 16 23 1 -7
BITMAP
000049DEEEB68A00
001BF920029FFA00
01DF60000007FA00
0AFA00000000DA00
2FF3000000008A00
7FE0000000004A00
AFC0000000000000
CFB0000000000000
CFB0000007FFFFF6
BFC00000001BFF20
8FE000000006FD00
4FF400000006FC00
0CFA00000006FC00
03FF60000006FC00
004EF930017EF800
00017BEEEEB72000
0000000000000000
0000005C80000000
000000DFF2000000
0000008EF3000000
00000001F1000000
0000000A80000000
0000007500000000
ENDCHAR
STARTCHAR gcommaaccent
ENCODING 291
SWIDTH 484 0
DWIDTH 12 0
BBX 12 24 0 -5
BITMAP
000001710000
00002C500000
0000A7000000
0000DDB10000
0000CFF30000
00005EC10000
000000000000
0019DEFFFEE5
01DD203DF500
08F70006FC00
0BF60004FE00
0BF80005FB00
07FE402CF400
00BCCED92000
004400000000
03F100000000
0BF500000000
0BFFEDDCB710
02CFFFFFFFC0
04C000013BF1
2E70000002F1
7F80000005B0
3FE610017B10
04BEFDC94000
ENDCHAR
STARTCHAR Hcircumflex
ENCODING 292
SWIDTH 777 0
DWIDTH 19 0
BBX 18 21 0 0
BITMAP
000000005830000000
00000004FFE1000000
0000002EA3CB000000
000000B7001A800000
000000000000000000
2EFFFFFB001EFFFFFB
004FFB1000003EFC10
000DF60000000CF700
000CF60000000BF700
000CF60000000BF700
000CF60000000BF700
000CF60000000BF700
000CFEEEEEEEEFF700
000CF60000000BF700
000CF60000000BF700
000CF60000000BF700
000CF60000000BF700
000CF60000000BF700
000DF60000000CF700
003FFB1000002EFB10
2EFFFFFB001EFFFFFB
ENDCHAR
STARTCHAR hcircumflex
ENCODING 293
SWIDTH 577 0
DWIDTH 14 0
BBX 14 22 0 0
BITMAP
00000484000000
00002EFF300000
0001CB3BD10000
000990008A0000
00000000000000
27AE6000000000
36DF6000000000
009F6000000000
009F6000000000
009F6000000000
009F607DFC3000
009F6BEDFFE000
009FE7103EF400
009F700009F700
009F600008F800
009F600006F800
009F600006F800
009F600006F800
009F600006F800
009F600007F900
01CF90000AFC10
4FFFFF22FFFFF5
ENDCHAR
STARTCHAR Hbar
ENCODING 294
SWIDTH 788 0
DWIDTH 19 0
BBX 17 16 1 0
BITMAP
EFFFFFC000DFFFFFE0
02EFC1000002DFD200
00BF80000000AF9000
00AF800000009F9000
EEFFEEEEEEEEFFFED0
00AF800000009F9000
00AF800000009F9000
00AFEEEEEEEEFF9000
00AF800000009F9000
00AF800000009F9000
00AF800000009F9000
00AF800000009F9000
00AF800000009F9000
00BF80000000AF9000
02EFC1000002DFD100
EFFFFFC000DFFFFFD0
ENDCHAR
STARTCHAR hbar
ENCODING 295
SWIDTH 579 0
DWIDTH 14 0
BBX 14 17 0 0
BITMAP
27AE7000000000
37DF7000000000
008F7000000000
6EEFEEEE500000
008F7000000000
008F706DEC4000
008F7AFDFFE100
008FE8102EF500
008F800009F800
008F700007F900
008F700006F900
008F700006F900
008F700006F900
008F700006F900
008F700006F900
00BFA00009FD10
3FFFFF32FFFFF6
ENDCHAR
STARTCHAR Itilde
ENCODING 296
SWIDTH 357 0
DWIDTH 9 0
BBX 9 21 0 0
BITMAP
03BB200530
1EFFE41A00
5714ADC300
0000000000
0000000000
3EFFFFFA00
004FFB1000
000DF60000
000CF60000
000CF60000
000CF60000
000CF60000
000CF60000
000CF60000
000CF60000
000CF60000
000CF60000
000CF60000
000DF60000
003FFB1000
3EFFFFFA00
ENDCHAR
STARTCHAR itilde
ENCODING 297
SWIDTH 285 0
DWIDTH 7 0
BBX 8 16 -1 0
BITMAP
04EB1028
1EEFC184
4703BE80
00000000
017BE700
015CF700
0008F700
0008F700
0008F700
0008F700
0008F700
0008F700
0008F700
0008F700
000BFA00
03FFFFF2
ENDCHAR
STARTCHAR Imacron
ENCODING 298
SWIDTH 357 0
DWIDTH 9 0
BBX 8 19 0 0
BITMAP
3EEEEEEB
00000000
00000000
3EFFFFFA
004FFB10
000DF600
000CF600
000CF600
000CF600
000CF600
000CF600
000CF600
000CF600
000CF600
000CF600
000CF600
000DF600
003FFB10
3EFFFFFA
ENDCHAR
STARTCHAR imacron
ENCODING 299
SWIDTH 285 0
DWIDTH 7 0
BBX 8 15 -1 0
BITMAP
1EEEEEE2
00000000
00000000
017BE700
015CF700
0008F700
0008F700
0008F700
0008F700
0008F700
0008F700
0008F700
0008F700
000BFA00
03FFFFF2
ENDCHAR
STARTCHAR Ibreve
ENCODING 300
SWIDTH 357 0
DWIDTH 9 0
BBX 8 22 0 0
BITMAP
3A00001B
1E5001A8
09FEDFF2
018DEC40
00000000
00000000
3EFFFFFA
004FFB10
000DF600
000CF600
000CF600
000CF600
000CF600
000CF600
000CF600
000CF600
000CF600
000CF600
000CF600
000DF600
003FFB10
3EFFFFFA
ENDCHAR
STARTCHAR ibreve
ENCODING 301
SWIDTH 285 0
DWIDTH 7 0
BBX 8 17 -1 0
BITMAP
2A0000A1
0D0001C0
09811970
008DD700
00000000
017BE700
015CF700
0008F700
0008F700
0008F700
0008F700
0008F700
0008F700
0008F700
0008F700
000BFA00
03FFFFF2
ENDCHAR
STARTCHAR Iogonek
ENCODING 302
SWIDTH 357 0
DWIDTH 9 0
BBX 8 21 0 -5
BITMAP
3EFFFFFA
004FFB10
000DF600
000CF600
000CF600
000CF600
000CF600
000CF600
000CF600
000CF600
000CF600
000CF600
000CF600
000DF600
003FFB10
3EFFFFFA
0004C200
004E1000
00CB0000
00DD1061
004DEB40
ENDCHAR
STARTCHAR iogonek
ENCODING 303
SWIDTH 285 0
DWIDTH 7 0
BBX 7 22 0 -5
BITMAP
007E7000
00DFC000
005C5000
00000000
00000000
17BE7000
15CF7000
008F7000
008F7000
008F7000
008F7000
008F7000
008F7000
008F7000
008F7000
00BFA000
3FFFFF20
005C2000
04E10000
0DB00000
0DD10610
04DEB400
ENDCHAR
STARTCHAR Idotaccent
ENCODING 304
SWIDTH 357 0
DWIDTH 9 0
BBX 8 20 0 0
BITMAP
0007C300
000FF900
000AE400
00000000
3EFFFFFA
004FFB10
000DF600
000CF600
000CF600
000CF600
000CF600
000CF600
000CF600
000CF600
000CF600
000CF600
000CF600
000DF600
003FFB10
3EFFFFFA
ENDCHAR
STARTCHAR dotlessi
ENCODING 305
SWIDTH 285 0
DWIDTH 7 0
BBX 7 12 0 0
BITMAP
17BE7000
15CF7000
008F7000
008F7000
008F7000
008F7000
008F7000
008F7000
008F7000
008F7000
00BFA000
3FFFFF20
ENDCHAR
STARTCHAR IJ
ENCODING 306
SWIDTH 753 0
DWIDTH 18 0
BBX 18 16 0 0
BITMAP
3EFFFFFA003EFFFFF8
004FFB1000004FFB10
000DF60000000EF600
000CF60000000DF500
000CF60000000DF500
000CF60000000DF500
000CF60000000DF500
000CF60000000DF500
000CF60000000DF500
000CF60000000DF500
000CF60000000DF500
000CF60000000DF500
000CF60001000DF500
000DF6004F900EF300
003FFB105FF42FC000
3EFFFFFA08DFD91000
ENDCHAR
STARTCHAR ij
ENCODING 307
SWIDTH 548 0
DWIDTH 13 0
BBX 12 21 0 -5
BITMAP
007E70000CE3
00DFC0003FF8
005C500009B2
000000000000
17BE70038CE4
15CF70035EF4
008F70000BF4
008F70000BF4
008F70000BF4
008F70000BF4
008F70000BF4
008F70000BF4
008F70000BF4
008F70000BF4
00BFA0000BF4
3FFFFF200BF3
000000000BF3
000000000CF1
00002B400DC0
00005FF55F40
000009EFC500
ENDCHAR
STARTCHAR Jcircumflex
ENCODING 308
SWIDTH 396 0
DWIDTH 10 0
BBX 10 21 0 0
BITMAP
0000286000
0001DFF500
000AD39E20
006B1006C1
0000000000
00BFFFFFE0
0001BFF300
00007FD000
00006FC000
00006FC000
00006FC000
00006FC000
00006FC000
00006FC000
00006FC000
00006FC000
00006FC000
01006FB000
DE207FA000
DFA0BF4000
4CEEC50000
ENDCHAR
STARTCHAR jcircumflex
ENCODING 309
SWIDTH 263 0
DWIDTH 6 0
BBX 10 22 -3 -5
BITMAP
00001EF300
0000AECC00
0005E21C70
001D3001C3
0000000000
00028BE600
00025DF600
000009F600
000009F600
000009F600
000009F600
000009F600
000009F600
000009F600
000009F600
000009F600
000009F600
000009F500
00000AF300
1A600BE000
3FF64F7000
08EFD60000
ENDCHAR
STARTCHAR Kcommaaccent
ENCODING 310
SWIDTH 702 0
DWIDTH 17 0
BBX 17 23 0 -7
BITMAP
3EFFFFFA03EFFFFA00
004FFB10001FFB2000
000DF600003F900000
000CF60002E8000000
000CF6003E60000000
000CF603E500000000
000CF63E4000000000
000CF9E90000000000
000CFBFF7000000000
000CF65FF700000000
000CF605FF80000000
000CF6004FF8000000
000CF60004FF900000
000DF600005FF90000
003FFB10000EFFA200
3EFFFFFA03EFFFFFA0
000000000000000000
00000007C600000000
0000000FFE00000000
0000000BEF10000000
000000003E00000000
00000001B600000000
000000084000000000
ENDCHAR
STARTCHAR kcommaaccent
ENCODING 311
SWIDTH 542 0
DWIDTH 13 0
BBX 13 24 0 -7
BITMAP
27AE6000000000
25DF6000000000
009F6000000000
009F6000000000
009F6000000000
009F601FFFFF10
009F6001FD4000
009F600AC10000
009F60AA100000
009F6A90000000
009FDFB0000000
009F7DF9000000
009F62EF700000
009F603EF60000
009F6005FF4000
00CF90009FE500
4FFFFF25FFFFD0
00000000000000
000006C7000000
00000EFF100000
00000AEF200000
0000002E100000
000001A7000000
00000850000000
ENDCHAR
STARTCHAR kgreenlandic
ENCODING 312
SWIDTH 542 0
DWIDTH 13 0
BBX 13 12 0 0
BITMAP
17AE700CFFFF20
26DF7000CF6000
008F7006E30000
008F706E300000
008F75D2000000
008FBF90000000
008F9EF7000000
008F73EF600000
008F704FF50000
008F7005FF4000
00BFA0008FF500
3FFFFF34FFFFE0
ENDCHAR
STARTCHAR Lacute
ENCODING 313
SWIDTH 585 0
DWIDTH 14 0
BBX 13 20 1 0
BITMAP
0001DFB0000000
000BE700000000
009B2000000000
00000000000000
EFFFFFB0000000
03FFC100000000
00DF7000000000
00CF6000000000
00CF6000000000
00CF6000000000
00CF6000000000
00CF6000000000
00CF6000000000
00CF6000000000
00CF6000000000
00CF6000000260
00CF6000000870
00CF6000001E40
00EF900003BF20
9DFFFFEEFFFF00
ENDCHAR
STARTCHAR lacute
ENCODING 314
SWIDTH 283 0
DWIDTH 7 0
BBX 7 21 0 0
BITMAP
0008FE30
006FA100
04D50000
00000000
16AE6000
37DF6000
009F6000
009F6000
009F6000
009F6000
009F6000
009F6000
009F6000
009F6000
009F6000
009F6000
009F6000
009F6000
009F6000
00CF9000
4FFFFF30
ENDCHAR
STARTCHAR Lcommaaccent
ENCODING 315
SWIDTH 585 0
DWIDTH 14 0
BBX 13 23 1 -7
BITMAP
EFFFFFB0000000
03FFC100000000
00DF7000000000
00CF6000000000
00CF6000000000
00CF6000000000
00CF6000000000
00CF6000000000
00CF6000000000
00CF6000000000
00CF6000000000
00CF6000000260
00CF6000000870
00CF6000001E40
00EF900003BF20
9DFFFFEEFFFF00
00000000000000
00002BA1000000
00007FF7000000
00004EF9000000
000000B6000000
000005C1000000
00004810000000
ENDCHAR
STARTCHAR lcommaaccent
ENCODING 316
SWIDTH 283 0
DWIDTH 7 0
BBX 7 24 0 -7
BITMAP
16AE6000
37DF6000
009F6000
009F6000
009F6000
009F6000
009F6000
009F6000
009F6000
009F6000
009F6000
009F6000
009F6000
009F6000
009F6000
00CF9000
4FFFFF30
00000000
008C4000
02FFD000
00CEE000
0005C000
002C4000
00930000
ENDCHAR
STARTCHAR Lcaron
ENCODING 317
SWIDTH 585 0
DWIDTH 14 0
BBX 13 16 1 0
BITMAP
EFFFFFB00CF300
03FFC1000DF100
00DF70000EB000
00CF60000F6000
00CF60000C0000
00CF6000000000
00CF6000000000
00CF6000000000
00CF6000000000
00CF6000000000
00CF6000000000
00CF6000000260
00CF6000000870
00CF6000001E40
00EF900003BF20
9DFFFFEEFFFF00
ENDCHAR
STARTCHAR lcaron
ENCODING 318
SWIDTH 366 0
DWIDTH 9 0
BBX 9 17 0 0
BITMAP
16AE60AF40
37DF60BF20
009F60CD00
009F60D700
009F60C100
009F600000
009F600000
009F600000
009F600000
009F600000
009F600000
009F600000
009F600000
009F600000
009F600000
00CF900000
4FFFFF3000
ENDCHAR
STARTCHAR Ldot
ENCODING 319
SWIDTH 605 0
DWIDTH 15 0
BBX 13 16 1 0
BITMAP
EFFFFFB0000000
03FFC100000000
00DF7000000000
00CF6000000000
00CF6000000000
00CF600004C600
00CF60000BFD00
00CF600006E800
00CF6000000000
00CF6000000000
00CF6000000000
00CF6000000260
00CF6000000870
00CF6000001E40
00EF900003BF20
9DFFFFEEFFFF00
ENDCHAR
STARTCHAR ldot
ENCODING 320
SWIDTH 357 0
DWIDTH 9 0
BBX 9 17 0 0
BITMAP
16AE600000
37DF600000
009F600000
009F600000
009F600000
009F600000
009F603C70
009F60AFF0
009F605EA0
009F600000
009F600000
009F600000
009F600000
009F600000
009F600000
00CF900000
4FFFFF3000
ENDCHAR
STARTCHAR Lslash
ENCODING 321
SWIDTH 590 0
DWIDTH 14 0
BBX 14 16 0 0
BITMAP
0CFFFFFD000000
002EFD20000000
000BF900000000
000AF800000000
000AF800020000
000AF804C60000
000AF9AB200000
000AFE50000000
004EF800000000
1ABCF800000000
050AF800000000
000AF800000017
000AF800000069
000BF8000000D6
000DFB00002AF4
08CFFFFEEFFFF2
ENDCHAR
STARTCHAR lslash
ENCODING 322
SWIDTH 290 0
DWIDTH 7 0
BBX 7 17 0 0
BITMAP
159D8000
27CF8000
007F8000
007F8000
007F8000
007F8230
007FCD50
007FC200
03DF8000
7DAF8000
317F8000
007F8000
007F8000
007F8000
007F8000
00AFB000
2FFFFF50
ENDCHAR
STARTCHAR Nacute
ENCODING 323
SWIDTH 742 0
DWIDTH 18 0
BBX 18 20 0 0
BITMAP
000000002EF8000000
00000001DD50000000
0000000B9100000000
000000000000000000
4FFFF3000007FFFFF2
01AFFD1000001CF900
001FFFA0000005F200
001FCFF7000003F000
001F3CFF300003F000
001F22EFD10003F000
001F205FFB0003F000
001F2008FF7003F000
001F2000BFF403F000
001F20001DFE13F000
001F200003EFB3F000
001F2000005FFBF000
001F20000009FFF000
002F30000000BFF000
008F900000001EF000
4FFFFF40000003E000
ENDCHAR
STARTCHAR nacute
ENCODING 324
SWIDTH 576 0
DWIDTH 14 0
BBX 14 17 0 0
BITMAP
00000009FB0000
0000001ED10000
0000007E300000
000000D5000000
00000000000000
29CE629DFC3000
00AFBA205FD000
008FA0000BF500
008F700008F700
008F700007F800
008F700007F800
008F700007F800
008F700007F800
008F700007F800
008F700007F800
00BFA0000AFB00
3FFFFF43FFFFF4
ENDCHAR
STARTCHAR Ncommaaccent
ENCODING 325
SWIDTH 742 0
DWIDTH 18 0
BBX 18 23 0 -7
BITMAP
4FFFF3000007FFFFF2
01AFFD1000001CF900
001FFFA0000005F200
001FCFF7000003F000
001F3CFF300003F000
001F22EFD10003F000
001F205FFB0003F000
001F2008FF7003F000
001F2000BFF403F000
001F20001DFE13F000
001F200003EFB3F000
001F2000005FFBF000
001F20000009FFF000
002F30000000BFF000
008F900000001EF000
4FFFFF40000003E000
000000000000000000
00000005C800000000
0000000DFF20000000
00000008EF30000000
000000001F10000000
00000000A800000000
000000075000000000
ENDCHAR
STARTCHAR ncommaaccent
ENCODING 326
SWIDTH 576 0
DWIDTH 14 0
BBX 14 19 0 -7
BITMAP
29CE629DFC3000
00AFBA205FD000
008FA0000BF500
008F700008F700
008F700007F800
008F700007F800
008F700007F800
008F700007F800
008F700007F800
008F700007F800
00BFA0000AFB00
3FFFFF43FFFFF4
00000000000000
000004C9000000
00000BFF400000
000007EF500000
0000000E300000
0000008A000000
00000660000000
ENDCHAR
STARTCHAR Ncaron
ENCODING 327
SWIDTH 742 0
DWIDTH 18 0
BBX 18 21 0 0
BITMAP
000002600005300000
000000AB108C100000
0000001DDBE2000000
00000003EF50000000
000000000000000000
4FFFF3000007FFFFF2
01AFFD1000001CF900
001FFFA0000005F200
001FCFF7000003F000
001F3CFF300003F000
001F22EFD10003F000
001F205FFB0003F000
001F2008FF7003F000
001F2000BFF403F000
001F20001DFE13F000
001F200003EFB3F000
001F2000005FFBF000
001F20000009FFF000
002F30000000BFF000
008F900000001EF000
4FFFFF40000003E000
ENDCHAR
STARTCHAR ncaron
ENCODING 328
SWIDTH 576 0
DWIDTH 14 0
BBX 14 17 0 0
BITMAP
0000C4001B4000
00003E40BA0000
000008EBE10000
000000DF500000
00000000000000
29CE629DFC3000
00AFBA205FD000
008FA0000BF500
008F700008F700
008F700007F800
008F700007F800
008F700007F800
008F700007F800
008F700007F800
008F700007F800
00BFA0000AFB00
3FFFFF43FFFFF4
ENDCHAR
STARTCHAR napostrophe
ENCODING 329
SWIDTH 576 0
DWIDTH 14 0
BBX 18 17 -4 0
BITMAP
3ED300000000000000
8FF900000000000000
3CDA00000000000000
00A800000000000000
03D100000000000000
4A2029CE629DFC3000
000000AFBA205FD000
0000008FA0000BF500
0000008F700008F700
0000008F700007F800
0000008F700007F800
0000008F700007F800
0000008F700007F800
0000008F700007F800
0000008F700007F800
000000BFA0000AFB00
00003FFFFF43FFFFF4
ENDCHAR
STARTCHAR Eng
ENCODING 330
SWIDTH 742 0
DWIDTH 18 0
BBX 18 21 0 -5
BITMAP
4FFFF3000007FFFFF2
01AFFD1000001BF800
001FFFA0000005F100
001FCFF6000004F000
001F3DFE300003F000
001F23EFD10003F000
001F206FF90003F000
001F2009FF5003F000
001F2001DFE203F000
001F20002EFC03F000
001F200006FF93F000
001F2000009FF9F000
001F2000001CFFF000
002F30000002EFF000
008F900000005FF000
4FFFFF40000009F000
00000000000003E000
00000000000005D000
00000000482008A000
00000000CFD47E3000
000000004CFEB40000
ENDCHAR
STARTCHAR eng
ENCODING 331
SWIDTH 559 0
DWIDTH 13 0
BBX 12 17 0 -5
BITMAP
29CE629DFC30
00AFBA204FE0
008FA0000AF5
008F700008F7
008F700007F8
008F700007F8
008F700007F8
008F700007F8
008F700007F8
008F700007F8
00BFA00007F8
3FFFFF4007F8
0000000007F7
0000000007F5
0000065009F2
00001FF73D90
000007DFD800
ENDCHAR
STARTCHAR Omacron
ENCODING 332
SWIDTH 738 0
DWIDTH 18 0
BBX 16 19 1 0
BITMAP
00009EEEEEE50000
0000000000000000
0000000000000000
00004ADEEC930000
001BF82004CF9000
01DF5000000BFB00
0AFA00000001EF70
2FF4000000009FD0
7FF0000000004FF3
9FC0000000002FF6
BFC0000000001FF7
BFC0000000001FF7
AFD0000000002FF5
7FF0000000004FF2
2FF4000000008FC0
0AFA00000000DF50
01EF50000008F900
002CF820029F8000
00005ADEED930000
ENDCHAR
STARTCHAR omacron
ENCODING 333
SWIDTH 514 0
DWIDTH 12 0
BBX 12 15 0 0
BITMAP
003EEEEEEA00
000000000000
000000000000
0004BDED8100
008F8105ED20
04FA00007FB0
0BF400001FF2
1FF200000DF6
2FF100000BF7
2FF100000BF7
1FF300000CF5
0CF600000EF1
06FB00004F90
00AF9103DC10
0006BEEC7100
ENDCHAR
STARTCHAR Obreve
ENCODING 334
SWIDTH 738 0
DWIDTH 18 0
BBX 16 22 1 0
BITMAP
0000A30000850000
00007C1004E20000
00002EFDEFB00000
000003BED9100000
0000000000000000
0000000000000000
00004ADEEC930000
001BF82004CF9000
01DF5000000BFB00
0AFA00000001EF70
2FF4000000009FD0
7FF0000000004FF3
9FC0000000002FF6
BFC0000000001FF7
BFC0000000001FF7
AFD0000000002FF5
7FF0000000004FF2
2FF4000000008FC0
0AFA00000000DF50
01EF50000008F900
002CF820029F8000
00005ADEED930000
ENDCHAR
STARTCHAR obreve
ENCODING 335
SWIDTH 514 0
DWIDTH 12 0
BBX 12 17 0 0
BITMAP
003A00002A00
001E4001B700
000AFEDFE200
00018DEC3000
000000000000
0004BDED8100
008F8105ED20
04FA00007FB0
0BF400001FF2
1FF200000DF6
2FF100000BF7
2FF100000BF7
1FF300000CF5
0CF600000EF1
06FB00004F90
00AF9103DC10
0006BEEC7100
ENDCHAR
STARTCHAR Ohungarumlaut
ENCODING 336
SWIDTH 738 0
DWIDTH 18 0
BBX 16 20 1 0
BITMAP
0000001DF68FD000
0000009E53FA1000
000004C20C600000
0000000000000000
00004ADEEC930000
001BF82004CF9000
01DF5000000BFB00
0AFA00000001EF70
2FF4000000009FD0
7FF0000000004FF3
9FC0000000002FF6
BFC0000000001FF7
BFC0000000001FF7
AFD0000000002FF5
7FF0000000004FF2
2FF4000000008FC0
0AFA00000000DF50
01EF50000008F900
002CF820029F8000
00005ADEED930000
ENDCHAR
STARTCHAR ohungarumlaut
ENCODING 337
SWIDTH 514 0
DWIDTH 12 0
BBX 12 17 0 0
BITMAP
00000AFA7FC0
00001FD1DE20
00006E24F500
0000C50A7000
000000000000
0004BDED8100
008F8105ED20
04FA00007FB0
0BF400001FF2
1FF200000DF6
2FF100000BF7
2FF100000BF7
1FF300000CF5
0CF600000EF1
06FB00004F90
00AF9103DC10
0006BEEC7100
ENDCHAR
STARTCHAR OE
ENCODING 338
SWIDTH 945 0
DWIDTH 23 0
BBX 21 16 1 0
BITMAP
00004ADEFFFFFFFFFFFF20
001BF92007FF5112249F30
01DF600000EF4000000B30
0AFB000000EF4000000310
2FF4000000EF4000075000
7FE0000000EF4000095000
AFC0000000EF40004E5000
BFB0000000EFEEEFFF5000
BFC0000000EF40002C5000
AFD0000000EF4000085000
7FF0000000EF4000000000
2FF4000000EF40000000C0
0BFA000000EF40000004C0
02EF500000EF4000000BA0
002CF82007FF511224AF80
00005BDEFFFFFFFFFFFF60
ENDCHAR
STARTCHAR oe
ENCODING 339
SWIDTH 807 0
DWIDTH 19 0
BBX 19 12 0 0
BITMAP
0005BDEC6003ADEC5000
008F7006FA4E501AF600
05FA00008FF80001EE10
0CF400002FF40000BF60
1FF200000EFEEEEEEE80
2FF100000DF300000000
2FF100000DF400000000
1FF300000EF800000000
0CF500002FFE10000260
06FB00006FEFC3004D20
00AF8104E83EFFDEF600
0006CEEB5002AEFC5000
ENDCHAR
STARTCHAR Racute
ENCODING 340
SWIDTH 659 0
DWIDTH 16 0
BBX 15 20 1 0
BITMAP
000000AFD1000000
000008F910000000
00006D3000000000
0000000000000000
BEFFFFEEB7100000
01EF7003AFE30000
00DF60000CFC0000
00CF600006FF1000
00CF600005FF1000
00CF600007FE0000
00CF60001DF60000
00CF6026DF700000
00CFFFFF81000000
00CF608FD2000000
00CF600CFC100000
00CF6002EFA00000
00CF60006FF60000
00DF70000BFF3000
03FFB00002EFD300
EFFFFFB0006FFFD0
ENDCHAR
STARTCHAR racute
ENCODING 341
SWIDTH 380 0
DWIDTH 9 0
BBX 9 17 0 0
BITMAP
00002FF400
00008F7000
0000EA0000
0005C00000
0000000000
049D609E90
2AEF69FFE0
009FB82B80
008FB00000
008F700000
008F700000
008F700000
008F700000
008F700000
008F700000
00BFB10000
4FFFFFA000
ENDCHAR
STARTCHAR Rcommaaccent
ENCODING 342
SWIDTH 659 0
DWIDTH 16 0
BBX 15 23 1 -7
BITMAP
BEFFFFEEB7100000
01EF7003AFE30000
00DF60000CFC0000
00CF600006FF1000
00CF600005FF1000
00CF600007FE0000
00CF60001DF60000
00CF6026DF700000
00CFFFFF81000000
00CF608FD2000000
00CF600CFC100000
00CF6002EFA00000
00CF60006FF60000
00DF70000BFF3000
03FFB00002EFD300
EFFFFFB0006FFFD0
0000000000000000
000002BA10000000
000008FF70000000
000004EF80000000
0000000B60000000
0000005C10000000
0000048100000000
ENDCHAR
STARTCHAR rcommaaccent
ENCODING 343
SWIDTH 380 0
DWIDTH 9 0
BBX 9 19 0 -7
BITMAP
049D609E90
2AEF69FFE0
009FB82B80
008FB00000
008F700000
008F700000
008F700000
008F700000
008F700000
008F700000
00BFB10000
4FFFFFA000
0000000000
004C900000
00BFF40000
007EF50000
0000E30000
0008A00000
0066000000
ENDCHAR
STARTCHAR Rcaron
ENCODING 344
SWIDTH 659 0
DWIDTH 16 0
BBX 15 21 1 0
BITMAP
0006200026000000
0004E404E4000000
00007F9F80000000
00000BFB00000000
0000000000000000
BEFFFFEEB7100000
01EF7003AFE30000
00DF60000CFC0000
00CF600006FF1000
00CF600005FF1000
00CF600007FE0000
00CF60001DF60000
00CF6026DF700000
00CFFFFF81000000
00CF608FD2000000
00CF600CFC100000
00CF6002EFA00000
00CF60006FF60000
00DF70000BFF3000
03FFB00002EFD300
EFFFFFB0006FFFD0
ENDCHAR
STARTCHAR rcaron
ENCODING 345
SWIDTH 380 0
DWIDTH 9 0
BBX 9 17 0 0
BITMAP
05B0004B00
00AA04E200
001EBE7000
0006FC0000
0000000000
049D609E90
2AEF69FFE0
009FB82B80
008FB00000
008F700000
008F700000
008F700000
008F700000
008F700000
008F700000
00BFB10000
4FFFFFA000
ENDCHAR
STARTCHAR Sacute
ENCODING 346
SWIDTH 504 0
DWIDTH 12 0
BBX 12 20 0 0
BITMAP
000003FF7000
00002ED40000
0001C8100000
000000000000
0018DEFFFF60
01DD3014DF70
08F600002F70
0CF500000980
0BFB00000480
07FFA1000000
00BFFE600000
0009FFFC4000
00003CFFF900
0000006EFF90
00000001DFF1
2B0000003FF4
1F1000000FF3
1F9000002FE0
0FF92003CF50
0EFFFEEDA300
ENDCHAR
STARTCHAR sacute
ENCODING 347
SWIDTH 394 0
DWIDTH 9 0
BBX 9 17 0 0
BITMAP
00001EF500
00006F9000
0000DB0000
0004D10000
0000000000
007DEE9B10
09E302BF10
0FB0001E20
0FE3000A20
0AFE700000
01BFFD5000
0006EFF900
000018FF70
1A00007FB0
0F10004FB0
0FC3019F50
0D8DEEB500
ENDCHAR
STARTCHAR Scircumflex
ENCODING 348
SWIDTH 504 0
DWIDTH 12 0
BBX 12 21 0 0
BITMAP
000007710000
00009FFA0000
0006F65E6000
003D3003D300
000000000000
0018DEFFFF60
01DD3014DF70
08F600002F70
0CF500000980
0BFB00000480
07FFA1000000
00BFFE600000
0009FFFC4000
00003CFFF900
0000006EFF90
00000001DFF1
2B0000003FF4
1F1000000FF3
1F9000002FE0
0FF92003CF50
0EFFFEEDA300
ENDCHAR
STARTCHAR scircumflex
ENCODING 349
SWIDTH 394 0
DWIDTH 9 0
BBX 9 17 0 0
BITMAP
0004FD1000
001DCE9000
009C13E400
04C1004C00
0000000000
007DEE9B10
09E302BF10
0FB0001E20
0FE3000A20
0AFE700000
01BFFD5000
0006EFF900
000018FF70
1A00007FB0
0F10004FB0
0FC3019F50
0D8DEEB500
ENDCHAR
STARTCHAR uni015E
ENCODING 350
SWIDTH 504 0
DWIDTH 12 0
BBX 12 21 0 -5
BITMAP
0018DEFFFF60
01DD3014DF70
08F600002F70
0CF500000980
0BFB00000480
07FFA1000000
00BFFE600000
0009FFFC4000
00003CFFF900
0000006EFF90
00000001DFF1
2B0000003FF4
1F1000000FF3
1F9000002FE0
0FF92003CF50
0EFFFFEDA300
00000B000000
00002ED90000
0000004F3000
0000305F2000
00019DD60000
ENDCHAR
STARTCHAR uni015F
ENCODING 351
SWIDTH 394 0
DWIDTH 9 0
BBX 9 17 0 -5
BITMAP
007DEE9B10
09E302BF10
0FB0001E20
0FE3000A20
0AFE700000
01BFFD5000
0006EFF900
000018FF70
1A00007FB0
0F10004FB0
0FC3019F50
0D8DFEB500
0003800000
0006ED6000
000008E000
002208D000
002AEC3000
ENDCHAR
STARTCHAR Scaron
ENCODING 352
SWIDTH 504 0
DWIDTH 12 0
BBX 12 21 0 0
BITMAP
002600005300
000AB108C100
0001DDBE2000
00003EF50000
000000000000
0018DEFFFF60
01DD3014DF70
08F600002F70
0CF500000980
0BFB00000480
07FFA1000000
00BFFE600000
0009FFFC4000
00003CFFF900
0000006EFF90
00000001DFF1
2B0000003FF4
1F1000000FF3
1F9000002FE0
0FF92003CF50
0EFFFEEDA300
ENDCHAR
STARTCHAR scaron
ENCODING 353
SWIDTH 394 0
DWIDTH 9 0
BBX 9 17 0 0
BITMAP
04B1004C00
00AB04E300
001EBE8000
0005FD0000
0000000000
007DEE9B10
09E302BF10
0FB0001E20
0FE3000A20
0AFE700000
01BFFD5000
0006EFF900
000018FF70
1A00007FB0
0F10004FB0
0FC3019F50
0D8DEEB500
ENDCHAR
STARTCHAR uni0162
ENCODING 354
SWIDTH 603 0
DWIDTH 14 0
BBX 15 21 0 -5
BITMAP
6FFFEEFFEEEFFE00
7E4000DF5002BE00
880000DF50002F00
940000DF50000C10
200000DF50000200
000000DF50000000
000000DF50000000
000000DF50000000
000000DF50000000
000000DF50000000
000000DF50000000
000000DF50000000
000000DF50000000
000000EF60000000
000004FFB1000000
0003EFFFFFA00000
0000009200000000
000000BDB2000000
00000000D9000000
00000311D7000000
000005CD91000000
ENDCHAR
STARTCHAR uni0163
ENCODING 355
SWIDTH 315 0
DWIDTH 8 0
BBX 8 21 0 -5
BITMAP
00042000
000D3000
006F3000
02EF3000
1DFFEED0
00CF3000
00CF3000
00CF3000
00CF3000
00CF3000
00CF3000
00CF3000
00CF3000
00BF4000
008F7073
001DFC50
00065000
0008ED40
00000BC0
00210BB0
003BEB20
ENDCHAR
STARTCHAR Tcaron
ENCODING 356
SWIDTH 603 0
DWIDTH 14 0
BBX 15 21 0 0
BITMAP
0001710004400000
00008C206D200000
00000BEAF4000000
000001DF70000000
0000000000000000
6FFFEEFFEEEFFE00
7E4000DF5002BE00
880000DF50002F00
940000DF50000C10
200000DF50000200
000000DF50000000
000000DF50000000
000000DF50000000
000000DF50000000
000000DF50000000
000000DF50000000
000000DF50000000
000000DF50000000
000000EF60000000
000004FFB1000000
0003EFFFFFA00000
ENDCHAR
STARTCHAR tcaron
ENCODING 357
SWIDTH 353 0
DWIDTH 8 0
BBX 9 17 0 0
BITMAP
000000CF30
000420CF10
000D30DC00
006F30E600
02EF30C000
1DFFEED000
00CF300000
00CF300000
00CF300000
00CF300000
00CF300000
00CF300000
00CF300000
00CF300000
00BF400000
008F707300
001BFC5000
ENDCHAR
STARTCHAR Tbar
ENCODING 358
SWIDTH 603 0
DWIDTH 14 0
BBX 15 16 0 0
BITMAP
6FFFEEFFEEEFFE00
7E5000DF5002BE00
880000DF50002F00
940000DF50000D10
310000DF50000300
000000DF50000000
000000DF50000000
000DEEFFEEE60000
000000DF50000000
000000DF50000000
000000DF50000000
000000DF50000000
000000DF50000000
000000EF60000000
000004FFB1000000
0003EFFFFFA00000
ENDCHAR
STARTCHAR tbar
ENCODING 359
SWIDTH 328 0
DWIDTH 8 0
BBX 8 16 0 0
BITMAP
00032000
000C4000
005F4000
02EF4000
0CFFEEE0
00BF4000
00BF4000
00BF4000
1EFFEEE0
00BF4000
00BF4000
00BF4000
00BF4000
00AF5000
007F8064
001BFD60
ENDCHAR
STARTCHAR Utilde
ENCODING 360
SWIDTH 752 0
DWIDTH 18 0
BBX 18 21 0 0
BITMAP
0000001AC500260000
000000BFFF71830000
000001A128DD600000
000000000000000000
000000000000000000
7FFFFFF50004FFFFF9
019FF700000008FB10
003FF100000002F600
003FF100000001F600
003FF100000000F500
003FF100000000F500
003FF100000000F500
003FF100000000F500
003FF100000000F500
003FF100000000F500
002FF100000000F500
001FF200000002F300
000CF600000005E000
0006FC0000000B7000
0000AFB30003BA0000
000005BDEEDA500000
ENDCHAR
STARTCHAR utilde
ENCODING 361
SWIDTH 570 0
DWIDTH 14 0
BBX 13 16 0 0
BITMAP
00019C50026000
000AFFF7192000
001B128DD60000
00000000000000
4BDF3006BDF400
14EF30024EF400
00CF30000BF400
00CF30000BF400
00CF30000BF400
00CF30000BF400
00CF30000BF400
00CF30000BF400
00BF30000BF400
009F60001CF400
004FD303BDF600
0006DFD929EC80
ENDCHAR
STARTCHAR Umacron
ENCODING 362
SWIDTH 752 0
DWIDTH 18 0
BBX 18 19 0 0
BITMAP
000000DEEEEEE10000
000000000000000000
000000000000000000
7FFFFFF50004FFFFF9
019FF700000008FB10
003FF100000002F600
003FF100000001F600
003FF100000000F500
003FF100000000F500
003FF100000000F500
003FF100000000F500
003FF100000000F500
003FF100000000F500
002FF100000000F500
001FF200000002F300
000CF600000005E000
0006FC0000000B7000
0000AFB30003BA0000
000005BDEEDA500000
ENDCHAR
STARTCHAR umacron
ENCODING 363
SWIDTH 570 0
DWIDTH 14 0
BBX 13 15 0 0
BITMAP
000CEEEEEE1000
00000000000000
00000000000000
4BDF3006BDF400
14EF30024EF400
00CF30000BF400
00CF30000BF400
00CF30000BF400
00CF30000BF400
00CF30000BF400
00CF30000BF400
00BF30000BF400
009F60001CF400
004FD303BDF600
0006DFD929EC80
ENDCHAR
STARTCHAR Ubreve
ENCODING 364
SWIDTH 752 0
DWIDTH 18 0
BBX 18 22 0 0
BITMAP
000000D00000C10000
000000B80007D00000
0000005FEDEF600000
00000005CED7000000
000000000000000000
000000000000000000
7FFFFFF50004FFFFF9
019FF700000008FB10
003FF100000002F600
003FF100000001F600
003FF100000000F500
003FF100000000F500
003FF100000000F500
003FF100000000F500
003FF100000000F500
003FF100000000F500
002FF100000000F500
001FF200000002F300
000CF600000005E000
0006FC0000000B7000
0000AFB30003BA0000
000005BDEEDA500000
ENDCHAR
STARTCHAR ubreve
ENCODING 365
SWIDTH 570 0
DWIDTH 14 0
BBX 13 17 0 0
BITMAP
000C10000C1000
000B90006C0000
0005FEDEF60000
00005CED700000
00000000000000
4BDF3006BDF400
14EF30024EF400
00CF30000BF400
00CF30000BF400
00CF30000BF400
00CF30000BF400
00CF30000BF400
00CF30000BF400
00BF30000BF400
009F60001CF400
004FD303BDF600
0006DFD929EC80
ENDCHAR
STARTCHAR Uring
ENCODING 366
SWIDTH 752 0
DWIDTH 18 0
BBX 18 22 0 0
BITMAP
00000002BEB2000000
0000000A806C000000
0000000D301F000000
0000000A806C000000
00000002BEB2000000
000000000000000000
7FFFFFF50004FFFFF9
019FF700000008FB10
003FF100000002F600
003FF100000001F600
003FF100000000F500
003FF100000000F500
003FF100000000F500
003FF100000000F500
003FF100000000F500
003FF100000000F500
002FF100000000F500
001FF200000002F300
000CF600000005E000
0006FC0000000B7000
0000AFB30003BA0000
000005BDEEDA500000
ENDCHAR
STARTCHAR uring
ENCODING 367
SWIDTH 570 0
DWIDTH 14 0
BBX 13 18 0 0
BITMAP
00001AEB300000
00009806C00000
0000C301F00000
0000A806C00000
00001AEB300000
00000000000000
4BDF3006BDF400
14EF30024EF400
00CF30000BF400
00CF30000BF400
00CF30000BF400
00CF30000BF400
00CF30000BF400
00CF30000BF400
00BF30000BF400
009F60001CF400
004FD303BDF600
0006DFD929EC80
ENDCHAR
STARTCHAR Uhungarumlaut
ENCODING 368
SWIDTH 752 0
DWIDTH 18 0
BBX 18 20 0 0
BITMAP
000000004FE3CF8000
00000001DC27F60000
00000008A12D300000
000000000000000000
7FFFFFF50004FFFFF9
019FF700000008FB10
003FF100000002F600
003FF100000001F600
003FF100000000F500
003FF100000000F500
003FF100000000F500
003FF100000000F500
003FF100000000F500
003FF100000000F500
002FF100000000F500
001FF200000002F300
000CF600000005E000
0006FC0000000B7000
0000AFB30003BA0000
000005BDEEDA500000
ENDCHAR
STARTCHAR uhungarumlaut
ENCODING 369
SWIDTH 570 0
DWIDTH 14 0
BBX 13 17 0 0
BITMAP
000005FE3FF300
00000AF48F7000
00001F70DA0000
00007A04C00000
00000000000000
4BDF3006BDF400
14EF30024EF400
00CF30000BF400
00CF30000BF400
00CF30000BF400
00CF30000BF400
00CF30000BF400
00CF30000BF400
00BF30000BF400
009F60001CF400
004FD303BDF600
0006DFD929EC80
ENDCHAR
STARTCHAR Uogonek
ENCODING 370
SWIDTH 753 0
DWIDTH 18 0
BBX 18 21 0 -5
BITMAP
7FFFFFF50004FFFFF9
019FF700000008FC10
003FF100000002F600
003FF100000001F600
003FF100000000F500
003FF100000000F500
003FF100000000F500
003FF100000000F500
003FF100000000F500
003FF100000000F500
002FF100000000F500
001FF200000002F300
000CF600000005F100
0006FC0000000BA000
0000AFB30003BD2000
000005BDEEFFA20000
0000000008B2000000
000000007E10000000
00000000E900000000
00000000EC01700000
000000005DEB300000
ENDCHAR
STARTCHAR uogonek
ENCODING 371
SWIDTH 570 0
DWIDTH 14 0
BBX 13 17 0 -5
BITMAP
5BDF3007BDF400
02EF30002EF400
00CF30000BF400
00CF30000BF400
00CF30000BF400
00CF30000BF400
00CF30000BF400
00CF30000BF400
00BF50000CF400
009FC101AEF500
004FFFDF79FD90
0006DEC40AC840
000000007A0000
00000005E10000
0000000DB00000
0000000CE10610
00000004DEC400
ENDCHAR
STARTCHAR Wcircumflex
ENCODING 372
SWIDTH 944 0
DWIDTH 23 0
BBX 24 21 -1 0
BITMAP
000000000007710000000000
00000000009FFA0000000000
0000000005F65E7000000000
000000002D3003D300000000
000000000000000000000000
3FFFFFE02FFFFFF2004FFFF9
01BFF800008FF7000001DF40
001EF800000DF7000000C900
0009FD000008FD000000E400
0003FF400003FF400005E000
0000CFA00001FFA0000A9000
00006FF10007EFE1001E3000
00001EF7000D5EF6005D0000
000009FD004D09FC00A80000
000003FF40A803FF31F30000
000000CFA1E200CF86D00000
0000006FF7B0006FDB800000
0000001EFF50001FFF200000
00000009FE00000AFC000000
00000003F8000004F7000000
00000000C3000000D2000000
ENDCHAR
STARTCHAR wcircumflex
ENCODING 373
SWIDTH 749 0
DWIDTH 18 0
BBX 20 17 -1 0
BITMAP
000000002FE200000000
00000000CDDB00000000
00000007D22D60000000
0000002D2002C1000000
00000000000000000000
6FFFFB09FFFF600CFFF4
02EF90004FF500009E20
007FB0000BF60000A800
001FF20006FC0001F200
000AF7000BFF2005C000
0004FD002D9F700B6000
0000DF40783FD01E1000
00008FA0D20DF36A0000
00002FE4B007F8B40000
00000BFD5002FDD00000
000005FE0000BF800000
000000E800006F200000
ENDCHAR
STARTCHAR Ycircumflex
ENCODING 374
SWIDTH 647 0
DWIDTH 16 0
BBX 17 21 -1 0
BITMAP
000000006820000000
00000007FFC0000000
0000003F84E9000000
000001D5002C500000
000000000000000000
2FFFFFF50008FFFF90
018FFC0000002FC200
0009FF2000005E1000
0001DFB00001D50000
00004FF50008B00000
00000AFE102E200000
000001EF90A8000000
0000006FF7D1000000
0000000BFF50000000
00000005FE00000000
00000004FE00000000
00000004FE00000000
00000004FE00000000
00000005FF00000000
0000000AFF60000000
00000AFFFFFF600000
ENDCHAR
STARTCHAR ycircumflex
ENCODING 375
SWIDTH 483 0
DWIDTH 12 0
BBX 13 22 -1 -5
BITMAP
000000CF600000
000008EBE10000
00003E40BA0000
0000C5000B5000
00000000000000
4FFFFC004FFFC0
02EF900001E900
008FC00002F100
001EF30007A000
0009FA000C5000
0002FF202E0000
0000AF80780000
00003FE1C20000
00000BF7B00000
000004FF600000
000000DE100000
000000A9000000
000000E3000000
000006C0000000
00101E40000000
0BFDD900000000
08EE8000000000
ENDCHAR
STARTCHAR Ydieresis
ENCODING 376
SWIDTH 647 0
DWIDTH 16 0
BBX 17 20 -1 0
BITMAP
000005C5002B900000
00000CFC007FF20000
000007E7003EB00000
000000000000000000
2FFFFFF50008FFFF90
018FFC0000002FC200
0009FF2000005E1000
0001DFB00001D50000
00004FF50008B00000
00000AFE102E200000
000001EF90A8000000
0000006FF7D1000000
0000000BFF50000000
00000005FE00000000
00000004FE00000000
00000004FE00000000
00000004FE00000000
00000005FF00000000
0000000AFF60000000
00000AFFFFFF600000
ENDCHAR
STARTCHAR Zacute
ENCODING 377
SWIDTH 594 0
DWIDTH 14 0
BBX 14 20 0 0
BITMAP
0000000AFD1000
0000008F910000
000005D4000000
00000000000000
05FFFEEEEEFFF5
06F8100001DFC0
07A0000009FF20
085000004FF700
01000001DFC000
00000009FE2000
0000005FF70000
000001EFC00000
00000AFE200000
00005FF7000000
0001EFC0000000
000AFE20000014
005FF700000077
01EFB0000000D5
0BFE2000002AF2
4FFFEEEEEFFFF0
ENDCHAR
STARTCHAR zacute
ENCODING 378
SWIDTH 458 0
DWIDTH 11 0
BBX 11 17 0 0
BITMAP
000001FF4000
000007F80000
00000DA00000
00005C100000
000000000000
0CFFFFFFFF10
0CB3111CF900
0D30007FD100
090002FF4000
00000CF90000
00007FD10000
0002EF400000
000BF9000000
006FE1000B30
02EF50001F20
0BFA1113BF10
3FFFFFFFFF00
ENDCHAR
STARTCHAR Zdotaccent
ENCODING 379
SWIDTH 594 0
DWIDTH 14 0
BBX 14 20 0 0
BITMAP
0000005C600000
000000BFD00000
0000006E800000
00000000000000
05FFFEEEEEFFF5
06F8100001DFC0
07A0000009FF20
085000004FF700
01000001DFC000
00000009FE2000
0000005FF70000
000001EFC00000
00000AFE200000
00005FF7000000
0001EFC0000000
000AFE20000014
005FF700000077
01EFB0000000D5
0BFE2000002AF2
4FFFEEEEEFFFF0
ENDCHAR
STARTCHAR zdotaccent
ENCODING 380
SWIDTH 458 0
DWIDTH 11 0
BBX 11 17 0 0
BITMAP
00003C800000
00008FF10000
00004EB00000
000000000000
000000000000
0CFFFFFFFF10
0CB3111CF900
0D30007FD100
090002FF4000
00000CF90000
00007FD10000
0002EF400000
000BF9000000
006FE1000B30
02EF50001F20
0BFA1113BF10
3FFFFFFFFF00
ENDCHAR
STARTCHAR Zcaron
ENCODING 381
SWIDTH 594 0
DWIDTH 14 0
BBX 14 21 0 0
BITMAP
00006200027000
00004E403D5000
000007F9F80000
000000AFC00000
00000000000000
05FFFEEEEEFFF5
06F8100001DFC0
07A0000009FF20
085000004FF700
01000001DFC000
00000009FE2000
0000005FF70000
000001EFC00000
00000AFE200000
00005FF7000000
0001EFC0000000
000AFE20000014
005FF700000077
01EFB0000000D5
0BFE2000002AF2
4FFFEEEEEFFFF0
ENDCHAR
STARTCHAR zcaron
ENCODING 382
SWIDTH 458 0
DWIDTH 11 0
BBX 11 17 0 0
BITMAP
005B1004C000
000AB04E3000
0001EBE80000
00005FD00000
000000000000
0CFFFFFFFF10
0CB3111CF900
0D30007FD100
090002FF4000
00000CF90000
00007FD10000
0002EF400000
000BF9000000
006FE1000B30
02EF50001F20
0BFA1113BF10
3FFFFFFFFF00
ENDCHAR
STARTCHAR longs
ENCODING 383
SWIDTH 285 0
DWIDTH 7 0
BBX 10 18 0 0
BITMAP
00007DEC50
0008C07FF1
001F800890
005F700000
007F700000
008F700000
5EEF700000
008F700000
008F700000
008F700000
008F700000
008F700000
008F700000
008F700000
008F700000
009F700000
01DFC10000
8FFFFFD000
ENDCHAR
STARTCHAR uni0180
ENCODING 384
SWIDTH 522 0
DWIDTH 13 0
BBX 12 17 0 0
BITMAP
48CD00000000
59FE00000000
01FE00000000
BEFFEEEE9000
01FE00000000
01FE03BED700
01FE4EDFFF80
01FEB201AFF2
01FE10001EF7
01FE00000AF9
01FE000009FA
01FE000008F9
01FE000009F7
01FE00000CF2
01FE00003F90
01FF8103DB10
005ADFDC6000
ENDCHAR
STARTCHAR uni0188
ENCODING 392
SWIDTH 446 0
DWIDTH 11 0
BBX 13 16 0 0
BITMAP
000000001BED50
00000000A52EC0
00000000E00220
00000002D00000
0005BDEDD00000
008D302EF80000
05F30007FC0000
0BD00000960000
1FB00000000000
2FB00000000000
3FD00000000000
1FF10000000000
0DF70000071000
07FF50018A0000
00CFFEDFD20000
0018DFE9100000
ENDCHAR
STARTCHAR uni0190
ENCODING 400
SWIDTH 518 0
DWIDTH 12 0
BBX 11 16 1 0
BITMAP
006BEEEC9200
1CF8102DFE10
8FB00004FF50
BF7000008B20
AF8000000000
3FD000000000
03CC41000000
002BFFE90000
07FA30000000
6FC000000000
DF7000000000
FF6000000000
EF9000000270
BFF710016E30
2EFFFEDFE400
018CEED92000
ENDCHAR
STARTCHAR uni0192
ENCODING 402
SWIDTH 301 0
DWIDTH 7 0
BBX 12 23 -3 -5
BITMAP
00000008DEC5
0000009B08FE
000002F70099
000007F60000
000008F60000
000009F60000
0006EFFEEE40
000009F60000
000009F60000
000009F60000
000009F60000
000009F60000
000009F60000
000009F60000
000009F60000
000009F60000
000009F60000
000009F60000
000009F50000
00000AF30000
0A600AE10000
1FF31D900000
06DED8000000
ENDCHAR
STARTCHAR uni0195
ENCODING 405
SWIDTH 798 0
DWIDTH 19 0
BBX 18 17 0 0
BITMAP
27AE60000000000000
36DF60000000000000
009F60000000000000
009F60000000000000
009F60000000000000
009F607DEA10002EA0
009F6BEDFFA0001FF6
009FE7005FF10007FA
009F70000DF40000CD
009F60000BF500005F
009F60000AF500002F
009F60000AF500001E
009F60000AF500001C
009F600009F6000048
009F600008F7000092
01CF900003FC101760
4FFFFF20005CEDC500
ENDCHAR
STARTCHAR uni0199
ENCODING 409
SWIDTH 538 0
DWIDTH 13 0
BBX 13 18 0 0
BITMAP
00006CEEA20000
0008B12DFB0000
002F6002B70000
007F4000000000
00AF4000000000
00AF4000000000
00BF403FFFFE00
00BF4002FD4000
00BF401BB10000
00BF40B9000000
00BF5B70000000
00BFDFA0000000
00BF6EF8000000
00BF43EF600000
00BF404FF40000
00BF5006FE3000
01DF8000AFE400
5FFFFE16FFFFC0
ENDCHAR
STARTCHAR uni019A
ENCODING 410
SWIDTH 287 0
DWIDTH 7 0
BBX 7 17 0 0
BITMAP
17AE7000
25CF7000
008F7000
008F7000
008F7000
008F7000
008F7000
4EEFEE40
008F7000
008F7000
008F7000
008F7000
008F7000
008F7000
008F7000
00BFA000
3FFFFF40
ENDCHAR
STARTCHAR uni019B
ENCODING 411
SWIDTH 495 0
DWIDTH 12 0
BBX 14 17 -1 0
BITMAP
01BFD500000000
03FFEF407A0000
004406DD920000
00005CE6000000
0008B37B000000
0000001F200000
0000005F700000
000000DFC00000
000005FAC30000
00000DF4790000
00006FC02E0000
0000DF500C5000
0006FD0007A000
000DF60002F100
006FD00000C600
02DFA00000AD10
3FFFFD000FFFF1
ENDCHAR
STARTCHAR uni019E
ENCODING 414
SWIDTH 559 0
DWIDTH 13 0
BBX 14 17 0 -5
BITMAP
29CE629DFC3000
00AFBA205FE000
008FA0000AF500
008F700008F700
008F700007F800
008F700007F800
008F700007F800
008F700007F800
008F700007F800
008F700007F800
00BFA00007F800
3FFFFF4007F800
0000000007F800
0000000007F800
0000000007F800
0000000007FC10
0000000007FFF6
ENDCHAR
STARTCHAR Ohorn
ENCODING 416
SWIDTH 737 0
DWIDTH 18 0
BBX 17 20 1 0
BITMAP
00000000000003E900
00000000000004FF10
00000000000000CF00
00000000000001C900
00004ADEFFFFED9100
001CF82004CFB10000
01DF5000000BFC0000
0AFA00000002EF7000
2FF3000000009FE000
7FE0000000005FF400
AFC0000000002FF600
BFB0000000001FF700
BFB0000000001FF600
AFC0000000002FF400
7FF0000000004FF100
2FF4000000008FB000
0BFA00000000DF4000
01EF50000008F80000
002CF820039F700000
00005ADEED93000000
ENDCHAR
STARTCHAR ohorn
ENCODING 417
SWIDTH 516 0
DWIDTH 12 0
BBX 13 16 0 0
BITMAP
0000000000CB00
0000000000DF20
00000000007F10
00000000018C00
0004BDFFFFC200
008F8105EC1000
05FA00007F8000
0CF400001FF100
1FF200000DF500
2FF100000BF700
2FF100000BF700
1FF300000CF500
0CF600000EF100
06FB00004FA000
00AF9103DC1000
0006BEEC710000
ENDCHAR
STARTCHAR uni01A5
ENCODING 421
SWIDTH 522 0
DWIDTH 13 0
BBX 12 23 0 -5
BITMAP
00019DED7000
001D607FF500
008F0008E300
00DE00000000
00FE00000000
01FE00000000
01FE03BED600
01FE4FDEFF70
01FFA201AFF2
01FE00001EF6
01FE00000AF9
01FE000008FA
01FE000008F9
01FE000009F7
01FE00000BF2
01FE10002F90
01FFD302CC10
01FE9DED7100
01FE00000000
01FE00000000
01FE00000000
06FF40000000
CFFFFE300000
ENDCHAR
STARTCHAR uni01AA
ENCODING 426
SWIDTH 298 0
DWIDTH 7 0
BBX 12 23 -2 -5
BITMAP
03BEC4000000
2C208F300000
76001F800000
76000ED00000
3C202EF00000
05CEBEF10000
00000DF20000
00000DF20000
00000DF20000
00000DF20000
00000DF20000
00000DF20000
00000DF20000
00000DF20000
00000DF20000
00000DF20000
00000DF20000
00000DF20000
00000DF20000
00000BF20000
000008F201A4
000002E60AF8
0000004CEEA1
ENDCHAR
STARTCHAR uni01AB
ENCODING 427
SWIDTH 321 0
DWIDTH 8 0
BBX 8 21 0 -5
BITMAP
00093000
001E3000
008F3000
03FF3000
1DFFEED0
00CF3000
00CF3000
00CF3000
00CF3000
00CF3000
00CF3000
00CF3000
00CF3000
00BF4000
008F7076
001BECC7
00000087
00000097
002400A5
008F42E1
002CED50
ENDCHAR
STARTCHAR uni01AD
ENCODING 429
SWIDTH 315 0
DWIDTH 8 0
BBX 10 18 0 0
BITMAP
00007CEDA2
0009A03EFA
003F4003B5
008F300000
00AF300000
03EF300000
1DFFEED000
00CF300000
00CF300000
00CF300000
00CF300000
00CF300000
00CF300000
00CF300000
00CF300000
00BF400000
008F707300
001BFC5000
ENDCHAR
STARTCHAR Uhorn
ENCODING 431
SWIDTH 762 0
DWIDTH 18 0
BBX 20 21 0 0
BITMAP
000000000000000007E4
00000000000000000AFB
000000000000000005FA
000000000000000001F4
00000000000000000260
7FFFFFF50004FFFD4000
019FF700000008F70000
003FF100000002F60000
003FF100000001F50000
003FF100000000F50000
003FF100000000F50000
003FF100000000F50000
003FF100000000F50000
003FF100000000F50000
003FF100000000F50000
002FF100000000F40000
001FF200000002F20000
000CF600000005D00000
0006FC0000000B600000
0000AFB30003B9000000
000005BDEEDA40000000
ENDCHAR
STARTCHAR uhorn
ENCODING 432
SWIDTH 574 0
DWIDTH 14 0
BBX 14 16 0 0
BITMAP
00000000000063
000000000003FC
000000000000BD
000000000001AA
39CE3005ACEEA1
38FF30048FF400
00DF30000BF400
00CF30000BF400
00CF30000BF400
00CF30000BF400
00CF30000BF400
00CF30000BF400
00CF30000BF400
009F60000CF400
004FD303BDF600
0006DFD929EC80
ENDCHAR
STARTCHAR uni01B5
ENCODING 437
SWIDTH 594 0
DWIDTH 14 0
BBX 14 16 0 0
BITMAP
04FFFEEEEEEFF6
05F8100001DFC0
06B0000009FF20
076000004FF700
01000001DFB000
00000009FE2000
0000004FF60000
004EEEFFFEEA00
000009FE100000
00004FF6000000
0001DFB0000000
000AFE20000014
005FF600000067
01EFC0000000D5
0AFF2000002AF3
4FFFEEEEEFFFF0
ENDCHAR
STARTCHAR uni01BA
ENCODING 442
SWIDTH 430 0
DWIDTH 10 0
BBX 10 17 0 -5
BITMAP
4FFEEEFFE0
4E4002EF40
49001CF600
1200AF7000
0007F90000
004FE87200
00579BFF70
0000004FF2
0000000DF5
0000000EF4
0000007FC0
00016CE910
01AD951000
0B70000210
0E00006F80
0B8105FF60
02AEEEB600
ENDCHAR
STARTCHAR uni01BB
ENCODING 443
SWIDTH 508 0
DWIDTH 12 0
BBX 12 17 0 0
BITMAP
0006CFEB4000
009FEDFFF700
05D4002BFF20
0B200001EF60
03000000CF70
00000000DF50
00000001FE10
00000007F700
0AEEEEEFEEE5
000000CC0000
000008E20000
00005F400000
0003F6000021
002E800000B2
01CA000006E0
0AFFFFFFFFB0
3FFFFFFFFF90
ENDCHAR
STARTCHAR uni01BE
ENCODING 446
SWIDTH 406 0
DWIDTH 10 0
BBX 9 16 0 0
BITMAP
0002300000
0009700000
003F700000
02EF700000
1DEFEEE500
008F700000
008F810000
0016BFB300
000004EE30
0000007FB0
0000003FE0
0000001FF0
1A00002FE0
1F20004FA0
1FC201BE30
0C8DEEB300
ENDCHAR
STARTCHAR uni01C0
ENCODING 448
SWIDTH 250 0
DWIDTH 6 0
BBX 2 17 2 0
BITMAP
EE
EE
EE
EE
EE
EE
EE
EE
EE
EE
EE
EE
EE
EE
EE
EE
EE
ENDCHAR
STARTCHAR uni01C1
ENCODING 449
SWIDTH 423 0
DWIDTH 10 0
BBX 7 17 2 0
BITMAP
EE00CF20
EE00CF20
EE00CF20
EE00CF20
EE00CF20
EE00CF20
EE00CF20
EE00CF20
EE00CF20
EE00CF20
EE00CF20
EE00CF20
EE00CF20
EE00CF20
EE00CF20
EE00CF20
EE00CF20
ENDCHAR
STARTCHAR uni01C2
ENCODING 450
SWIDTH 422 0
DWIDTH 10 0
BBX 9 17 1 0
BITMAP
000DF00000
000DF00000
000DF00000
000DF00000
000DF00000
EEEFFEEE20
000DF00000
000DF00000
000DF00000
EEEFFEEE20
000DF00000
000DF00000
000DF00000
000DF00000
000DF00000
000DF00000
000DF00000
ENDCHAR
STARTCHAR uni01C3
ENCODING 451
SWIDTH 245 0
DWIDTH 6 0
BBX 4 17 1 0
BITMAP
1DC0
3FF2
2FF1
1FF0
0FE0
0ED0
0DC0
0CB0
0BA0
0A90
0980
0870
0540
0000
1BA0
6FF4
2DD1
ENDCHAR
STARTCHAR uni01DE
ENCODING 478
SWIDTH 718 0
DWIDTH 17 0
BBX 18 22 0 0
BITMAP
00000EEEEEEE000000
000000000000000000
00002B90009B200000
00007FF202FF700000
00003EB000CE300000
000000000000000000
00000003F300000000
0000000AF900000000
0000001FFF10000000
0000008CDF80000000
000000E67FE0000000
000005E12FF6000000
00000C900BFC000000
00003F3005FF400000
00009C0000EFB00000
0001F600009FF20000
0007FEEEEEEFF90000
000D9000000BFE1000
005F20000004FF7000
00CA00000000DFE100
07F900000001CFF910
DFFFE100004FFFFFF2
ENDCHAR
STARTCHAR uni01DF
ENCODING 479
SWIDTH 480 0
DWIDTH 12 0
BBX 12 19 0 0
BITMAP
00DEEEEEE000
000000000000
01BA0009B200
06FF302FF700
02DC100BE300
000000000000
000000000000
0029DEEA1000
02EB008FA000
08F7001EF100
07F5000DF300
0020000CF300
0000159EF300
002AD83CF300
05FB100CF300
0EF2000CF300
1FF1000CF300
0CF8015BF522
02BED913EE90
ENDCHAR
STARTCHAR uni01F0
ENCODING 496
SWIDTH 263 0
DWIDTH 6 0
BBX 10 22 -3 -5
BITMAP
001D3001C3
0005E21C70
0000ADCC00
00001EF300
0000000000
00028BE600
00025DF600
000009F600
000009F600
000009F600
000009F600
000009F600
000009F600
000009F600
000009F600
000009F600
000009F600
000009F500
00000AF300
1A600BE000
3FF64F7000
08EFD60000
ENDCHAR
STARTCHAR Aringacute
ENCODING 506
SWIDTH 718 0
DWIDTH 17 0
BBX 18 25 0 0
BITMAP
00000000AFD1000000
00000008F910000000
0000006D3000000000
0000002BEB20000000
000000B607B0000000
000000E102D0000000
000000B707B0000000
0000002BEB20000000
000000000000000000
00000003F300000000
0000000AF900000000
0000001FFF10000000
0000008CDF80000000
000000E67FE0000000
000005E12FF6000000
00000C900BFC000000
00003F3005FF400000
00009C0000EFB00000
0001F600009FF20000
0007FEEEEEEFF90000
000D9000000BFE1000
005F20000004FF7000
00CA00000000DFE100
07F900000001CFF910
DFFFE100004FFFFFF2
ENDCHAR
STARTCHAR aringacute
ENCODING 507
SWIDTH 480 0
DWIDTH 12 0
BBX 12 21 0 0
BITMAP
00000AFD1000
00008F910000
0005D4000000
0002BEB20000
000A706B0000
000D201E0000
000B707B0000
0002BEB20000
000000000000
0029DEEA1000
02EB008FA000
08F7001EF100
07F5000DF300
0020000CF300
0000159EF300
002AD83CF300
05FB100CF300
0EF2000CF300
1FF1000CF300
0CF8015BF522
02BED913EE90
ENDCHAR
STARTCHAR AEacute
ENCODING 508
SWIDTH 894 0
DWIDTH 21 0
BBX 22 20 -1 0
BITMAP
00000000000000AFD10000
00000000000008F9100000
0000000000006D30000000
0000000000000000000000
00000002CFFFFFFFFFFFD0
000000000CAFF311225CE0
000000002E3FF2000002E0
00000000A81FF2000000A0
00000003E11FF200000000
0000000B801FF20000B100
0000005E101FF20000D100
000000D7001FF20016F100
000006FEEEEFFEEEFFF100
00001E70001FF20003E100
00008D00001FF20000B100
0002F500001FF200000004
000AB000001FF200000059
004F3000002FF2000000C7
03DF3000007FF311225BF4
8FFFF9006FFFFFFFFFFFF2
ENDCHAR
STARTCHAR aeacute
ENCODING 509
SWIDTH 709 0
DWIDTH 17 0
BBX 17 17 0 0
BITMAP
00000002FF40000000
00000008F700000000
0000000EA000000000
0000005C0000000000
000000000000000000
004BDED706CEEA2000
05F9009FCC203EE200
0AF5002FF40006FA00
0271000FF10002FF00
0000027FFEEEEEEE20
0005CC6FF000000000
01CE400FF100000000
0AF5000EF400000000
0FF1000CF900000720
1FF1002DFF70007B00
0CF902A2BFFEDEE200
02BED81007DEEA2000
ENDCHAR
STARTCHAR Oslashacute
ENCODING 510
SWIDTH 737 0
DWIDTH 18 0
BBX 16 21 1 -1
BITMAP
00000006FF400000
0000004FC2000000
000002D600000000
0000000000000000
00004ADEED933C00
001CF82004CFE500
01DF5000001EFA00
0AFA0000008AEF60
2FF3000005C19FD0
7FE000002D205FF3
AFC00001C4002FF6
BFB0000A70001FF7
BFC0007A00001FF6
AFD004D100002FF5
8FE02D2000004FF2
3FF5C50000008FC0
0CFE80000000DF40
02EF50000008F900
04DDF820039F8000
1D306BEEED930000
0100000000000000
ENDCHAR
STARTCHAR oslashacute
ENCODING 511
SWIDTH 514 0
DWIDTH 12 0
BBX 12 18 0 -1
BITMAP
000001FF4000
000007F80000
00000DA00000
00005C100000
000000000100
0004BDEC7A60
008F8107FF10
04FA0002EFA0
0BF4000C6FF2
1FF200970CF6
2FF106B00BF7
2FF13D100BF7
1FF4C3000CF5
0CFE60000EF1
06FD00004FA0
04FF8103DC10
0C26CEEC7100
010000000000
ENDCHAR
STARTCHAR uni0218
ENCODING 536
SWIDTH 504 0
DWIDTH 12 0
BBX 12 23 0 -7
BITMAP
0018DEFFFF60
01DD3014DF70
08F600002F70
0CF500000980
0BFB00000480
07FFA1000000
00BFFE600000
0009FFFC4000
00003CFFF900
0000006EFF90
00000001DFF1
2B0000003FF4
1F1000000FF3
1F9000002FE0
0FF92003CF50
0EFFFEEDA300
000000000000
00003CA10000
00009FF60000
00005EF70000
000000C50000
000006C00000
000057000000
ENDCHAR
STARTCHAR uni0219
ENCODING 537
SWIDTH 394 0
DWIDTH 9 0
BBX 9 19 0 -7
BITMAP
007DEE9B10
09E302BF10
0FB0001E20
0FE3000A20
0AFE700000
01BFFD5000
0006EFF900
000018FF70
1A00007FB0
0F10004FB0
0FC3019F50
0D8DEEB500
0000000000
0005C80000
000DFF2000
0008EF3000
00001F1000
0000A80000
0007500000
ENDCHAR
STARTCHAR uni021A
ENCODING 538
SWIDTH 603 0
DWIDTH 14 0
BBX 15 23 0 -7
BITMAP
6FFFEEFFEEEFFE00
7E4000DF5002BE00
880000DF50002F00
940000DF50000C10
200000DF50000200
000000DF50000000
000000DF50000000
000000DF50000000
000000DF50000000
000000DF50000000
000000DF50000000
000000DF50000000
000000DF50000000
000000EF60000000
000004FFB1000000
0003EFFFFFA00000
0000000000000000
000000AC30000000
000003FFB0000000
000001DED0000000
00000007A0000000
0000002D30000000
0000019200000000
ENDCHAR
STARTCHAR uni021B
ENCODING 539
SWIDTH 315 0
DWIDTH 8 0
BBX 8 23 0 -7
BITMAP
00042000
000D3000
006F3000
02EF3000
1DFFEED0
00CF3000
00CF3000
00CF3000
00CF3000
00CF3000
00CF3000
00CF3000
00CF3000
00BF4000
008F7073
001BFC50
00000000
0007C600
000FFE00
000BEF10
00003E00
0001B600
00084000
ENDCHAR
STARTCHAR uni0221
ENCODING 545
SWIDTH 674 0
DWIDTH 16 0
BBX 17 21 0 -4
BITMAP
000000059D90000000
00000006BF90000000
000000006F90000000
000000005F90000000
000000005F90000000
0003ADEDBF90000000
005E7104EF90000000
02E800008F90000000
0AF200005F90000000
0EE000005F90000000
2FD000005F90000000
3FE000005F90000000
2FF100005F90000000
0EF600005F902AEB00
0AFE40019FA1C40A40
02EFFEEE6FDB315D10
003BEEA205DFDC9200
0000000000D2000000
000000000770000000
000000001D10000000
000000001400000000
ENDCHAR
STARTCHAR uni0228
ENCODING 552
SWIDTH 626 0
DWIDTH 15 0
BBX 15 21 0 -5
BITMAP
2CEFFFFFFFFFF700
002FF7111236E800
000DF60000006900
000CF60000001300
000CF600002A0000
000CF600004A0000
000CF60002BA0000
000CFEEEEFFA0000
000CF600018A0000
000CF600002A0000
000CF60000000000
000CF60000000840
000CF60000000D20
000DF60000006F00
001EF7111237ED00
2BEFFFFFFFFFFB00
0000002900000000
0000005ED6000000
000000007F000000
000002208E000000
000002ADC4000000
ENDCHAR
STARTCHAR uni0229
ENCODING 553
SWIDTH 464 0
DWIDTH 11 0
BBX 11 17 0 -5
BITMAP
0006CEEB3000
00AC202DE300
06F20004FC00
0CD00000FF20
1FFEEEEEEE40
2FC000000000
2FE000000000
1FF300000000
0CFA00000530
05FF91006C00
009FFFDEE300
0006CFEB3000
000029000000
00005ED60000
0000007F0000
0002208E0000
0002ADC40000
ENDCHAR
STARTCHAR uni0234
ENCODING 564
SWIDTH 399 0
DWIDTH 10 0
BBX 10 21 0 -4
BITMAP
38CD000000
69FE000000
01FE000000
01FE000000
01FE000000
01FE000000
01FE000000
01FE000000
01FE000000
01FE000000
01FE000000
01FE000000
01FE000000
01FE008ED3
01FE0A706A
00DF8704B7
003CFEDB50
0009500000
003B000000
00B4000000
0060000000
ENDCHAR
STARTCHAR uni0235
ENCODING 565
SWIDTH 702 0
DWIDTH 17 0
BBX 17 16 0 -4
BITMAP
19CE629DFB10000000
00AFBA107FA0000000
008FB0000EF1000000
008F70000BF3000000
008F70000AF4000000
008F70000AF4000000
008F70000AF4000000
008F70000AF4000000
008F70000AF403CE70
008F70000AF53B21D0
00BFA00007F8B127A0
3FFFFF4001AFEDC710
00000000003B000000
0000000000B3000000
0000000005A0000000
000000000420000000
ENDCHAR
STARTCHAR uni0236
ENCODING 566
SWIDTH 406 0
DWIDTH 10 0
BBX 10 20 0 -4
BITMAP
0004200000
000D300000
006F300000
02EF300000
1DFFEEE200
00CF300000
00CF300000
00CF300000
00CF300000
00CF300000
00CF300000
00CF300000
00CF305DE5
00CF36B21C
009F9B0289
0019FEDC70
0005900000
000D200000
0068000000
0041000000
ENDCHAR
STARTCHAR uni0237
ENCODING 567
SWIDTH 263 0
DWIDTH 6 0
BBX 8 17 -3 -5
BITMAP
00028BE6
00025DF6
000009F6
000009F6
000009F6
000009F6
000009F6
000009F6
000009F6
000009F6
000009F6
000009F6
000009F5
00000AF3
1A600BE0
3FF64F70
08EFD600
ENDCHAR
STARTCHAR uni0250
ENCODING 592
SWIDTH 475 0
DWIDTH 11 0
BBX 11 12 0 0
BITMAP
4CF906CFD600
51DF6303FF30
00CF3000AF70
00CF3000BF50
00CF3005FB00
00CF35AD7000
00CFD9400000
00CF30001100
00CF3000ED00
00AF5001FE00
004FC206F700
0005CFDC5000
ENDCHAR
STARTCHAR uni0251
ENCODING 593
SWIDTH 542 0
DWIDTH 13 0
BBX 13 12 0 0
BITMAP
0003ADED7A9000
005E7105FF9000
02E800008F9000
0AF200006F9000
0EE000006F9000
2FD000006F9000
3FE000006F9000
2FF100006F9000
0EF600006F9000
0AFE3002BFA000
02EFFEDE8FE620
003BEE925EB820
ENDCHAR
STARTCHAR uni0252
ENCODING 594
SWIDTH 544 0
DWIDTH 13 0
BBX 13 12 0 0
BITMAP
28BE519EEB3000
26EF8DDEFFE200
009FC3003EF900
009F600005FE00
009F600001FF20
009F600000DF30
009F600000DF20
009F600000EE00
009F600001FA00
009F800008F200
009FE4017E5000
00987DEDA30000
ENDCHAR
STARTCHAR uni0253
ENCODING 595
SWIDTH 518 0
DWIDTH 12 0
BBX 11 18 1 0
BITMAP
002ADEC60000
01E508FF3000
09E0009D2000
0EC000000000
2FC000000000
2FC000000000
3FC04CED6000
3FC5FDFFF600
3FEA201BFE10
3FD00001FF50
3FC00000CF80
3FC00000AF90
3FC000009F70
3FC00000AF50
3FC00000DF10
3FC00004F800
3FF7003DA000
06BEEDB60000
ENDCHAR
STARTCHAR uni0254
ENCODING 596
SWIDTH 454 0
DWIDTH 11 0
BBX 10 12 0 0
BITMAP
003AEEC600
03EEDEFF90
0C60017FF4
3500000AFA
00000004FE
00000000FF
00000000EF
00000000ED
08800001F9
0FF40007F2
0AFC105E60
018DEDA400
ENDCHAR
STARTCHAR uni0255
ENCODING 597
SWIDTH 447 0
DWIDTH 11 0
BBX 10 15 0 -3
BITMAP
0005BDED70
008D402EF8
04F40006FC
0BD0000064
0FB0000000
2FB0000000
3FC0000000
1FE0019DC4
0DF60B705C
07FE89001D
00CFF50089
001CEFEC70
001C000000
0067000000
0082000000
ENDCHAR
STARTCHAR uni0256
ENCODING 598
SWIDTH 528 0
DWIDTH 13 0
BBX 16 22 0 -5
BITMAP
000000059D900000
00000006BF900000
000000006F900000
000000006F900000
000000006F900000
0003ADECBF900000
005E7104EF900000
02E800008F900000
0AF200006F900000
0EE000006F900000
2FD000006F900000
3FE000006F900000
2FF100006F900000
0EF600006F900000
0AFE4002BF900000
02EFFEDE8F900000
003BEEA25F900000
000000004F900000
000000003F900000
000000001EA00370
0000000009D13EF2
00000000008DFD70
ENDCHAR
STARTCHAR uni0257
ENCODING 599
SWIDTH 542 0
DWIDTH 13 0
BBX 16 18 0 0
BITMAP
00000000004BED91
0000000004E31DF7
000000000CB004D5
000000002F900000
000000004F900000
000000005F900000
0003ADECBF900000
005E7104EF900000
02E800008F900000
0AF200006F900000
0EE000006F900000
2FD000006F900000
3FE000006F900000
2FF100006F900000
0EF600006F900000
0AFE4002BFA00000
02EFFEDE9FE62000
003BEE915EC93000
ENDCHAR
STARTCHAR uni0258
ENCODING 600
SWIDTH 466 0
DWIDTH 11 0
BBX 11 12 0 0
BITMAP
0007DED91000
01CE401AD100
08F70001EA00
0EF30000AF10
1EEEEEEEFF40
000000009F50
00000000BF50
00000000EF30
17000007FE00
0A81006FF800
02EFDEFFB000
002AEEC70000
ENDCHAR
STARTCHAR uni0259
ENCODING 601
SWIDTH 464 0
DWIDTH 11 0
BBX 11 12 0 0
BITMAP
002AEEC60000
02EFDFFFB000
0A81018FF700
17000008FD00
00000001FF20
00000000CF40
00000000AF40
2FFEEEEEFF30
0EF20000BE00
0AF60001E800
02DE301BC000
0029EED70000
ENDCHAR
STARTCHAR uni025A
ENCODING 602
SWIDTH 642 0
DWIDTH 15 0
BBX 16 12 0 0
BITMAP
002AEEC600000000
03EEDFFFB0000000
0B70018FF72B7032
14000008FF8BB093
00000001FF33CD80
00000000CF400000
00000000AF400000
2FFEEEEEFF200000
0EF20000BE000000
0AF60001E7000000
02DE301BB0000000
0029EED700000000
ENDCHAR
STARTCHAR uni025B
ENCODING 603
SWIDTH 399 0
DWIDTH 10 0
BBX 9 12 0 0
BITMAP
005BEEEA20
08F8009FC0
0DF1000CB0
0CF2000000
02CB200000
002CFFB000
04EB300000
0DF2000000
2FF0000000
1FF1000030
0AF91006A0
007CEEC700
ENDCHAR
STARTCHAR uni025C
ENCODING 604
SWIDTH 398 0
DWIDTH 10 0
BBX 9 12 0 0
BITMAP
05CEEEA300
4FE302DE20
3D60008F70
0000009F50
000015E800
003EFF6000
000016FB10
0000009F70
0000006FA0
3000007F90
3B3003DE20
03ADED9200
ENDCHAR
STARTCHAR uni025D
ENCODING 605
SWIDTH 575 0
DWIDTH 14 0
BBX 14 12 0 0
BITMAP
05CEEEA2000000
4FE302DE200000
3C50008F78C005
0000009FA7F239
000015C600AEB2
003EFF92000000
000016FE200000
0000009F800000
0000006FA00000
3000007F800000
3B3003DE200000
03ADED92000000
ENDCHAR
STARTCHAR uni025E
ENCODING 606
SWIDTH 500 0
DWIDTH 12 0
BBX 12 12 0 0
BITMAP
00039DEEB500
006F92019F70
04FA00001FD0
0BF300002FB0
0FE00002BD20
2FC00AFFC100
2FC00002BE40
0FE000002FD0
0BF200000FF2
04FA00003FF1
006F8103CF90
00039DEEC600
ENDCHAR
STARTCHAR uni025F
ENCODING 607
SWIDTH 272 0
DWIDTH 7 0
BBX 10 17 -3 -5
BITMAP
00029BE700
00001AF700
000008F700
000008F700
0006EEFEE4
000008F700
000008F700
000008F700
000008F700
000008F700
000008F700
000008F700
000008F600
000008F400
1C900AE000
2FF83E7000
06DFD60000
ENDCHAR
STARTCHAR uni0260
ENCODING 608
SWIDTH 541 0
DWIDTH 13 0
BBX 16 23 0 -5
BITMAP
00000000003BDEB4
0000000003E21BFE
000000000CA001BC
000000002F900000
000000005F900000
000000006F900000
0003ADEBAF900000
005E6005FF900000
02F800009F900000
0AF200006F900000
0EE000006F900000
2FD000006F900000
3FE000006F900000
2FF100006F900000
0EF600006F900000
0AFE4002BF900000
02EFFEDEAF900000
003BEEA26F800000
000000006F700000
000000008F500000
06C30000CE100000
09FE4019F4000000
018CEEDA30000000
ENDCHAR
STARTCHAR uni0261
ENCODING 609
SWIDTH 521 0
DWIDTH 13 0
BBX 11 17 0 -5
BITMAP
0003ADEC7890
005E6005FF90
02F800009F90
0AF200006F90
0EE000006F90
2FD000006F90
3FE000006F90
2FF100006F90
0EF600006F90
0AFE4002BF90
02EFFEDEAF90
003BEEA26F80
000000006F70
000000008F50
06C30000CE10
09FE4019F500
018CEEDA3000
ENDCHAR
STARTCHAR uni0262
ENCODING 610
SWIDTH 535 0
DWIDTH 13 0
BBX 13 12 0 0
BITMAP
00039DEFFFF200
006FA2004DF200
04FC000002F200
0BF5000000B200
0FF20000000000
2FF10000000000
2FF10004FFFF50
1FF300001EF500
0DF600000CF200
06FD00000CF200
009FB3004EF200
0005AEEEC82000
ENDCHAR
STARTCHAR uni0263
ENCODING 611
SWIDTH 479 0
DWIDTH 12 0
BBX 13 17 -1 -5
BITMAP
5FFFFA004FFFE0
02EF900001EA00
007FB00002F200
001FF20008B000
000AF8000E4000
0004FE005D0000
0000DF50B70000
00007FB2E10000
00001FF8900000
00000AFF300000
000003FE000000
000004FF500000
00000B8FB00000
00002D0DF10000
00006A09F30000
00006C0AF10000
00001BED500000
ENDCHAR
STARTCHAR uni0264
ENCODING 612
SWIDTH 466 0
DWIDTH 11 0
BBX 11 12 0 0
BITMAP
2BEE915CEC30
CF11BFB11FC0
DC007EE20CE0
1103C4FA0120
000A40CF2000
002D007F8000
0068003FC000
0095001FE000
00A5000FD000
0087002FB000
003D209F3000
0006DED50000
ENDCHAR
STARTCHAR uni0265
ENCODING 613
SWIDTH 553 0
DWIDTH 13 0
BBX 14 17 0 -5
BITMAP
38CF30016AE500
25EF30015DF500
00CF30000AF500
00CF30000AF500
00CF30000AF500
00CF30000AF500
00CF30000AF500
00CF40000AF500
00BF60000AF500
008FC1019EF500
003FFFDF7AF500
0006DFC40AF500
000000000AF500
000000000AF500
000000000AF600
000000000AF900
000000000AFFF3
ENDCHAR
STARTCHAR uni0266
ENCODING 614
SWIDTH 577 0
DWIDTH 14 0
BBX 14 18 0 0
BITMAP
00005CEEA20000
0007C12DFC0000
001E7002D90000
006F6000000000
008F6000000000
009F6000000000
009F607DFC3000
009F6BEDFFE000
009FE7103EF400
009F700009F700
009F600008F800
009F600006F800
009F600006F800
009F600006F800
009F600006F800
009F600007F900
01CF90000AFC10
4FFFFF22FFFFF5
ENDCHAR
STARTCHAR uni0267
ENCODING 615
SWIDTH 562 0
DWIDTH 13 0
BBX 12 23 0 -5
BITMAP
00005CEEA200
0006C12DFC00
001E7002D900
006F60000000
008F60000000
009F60000000
009F607DFC30
009F6BEDFFE1
009FE7102EF5
009F700009F7
009F600007F8
009F600006F8
009F600006F8
009F600006F8
009F600006F8
009F600006F8
01CF900006F8
4FFFFF2006F8
0000000006F8
0000000007F6
0000065008F2
00001FF83D90
000006DFD800
ENDCHAR
STARTCHAR uni0268
ENCODING 616
SWIDTH 295 0
DWIDTH 7 0
BBX 7 17 0 0
BITMAP
006E8000
00BFE000
004C6000
00000000
00000000
06AD8000
16CF8000
007F8000
007F8000
007F8000
3EEFFE50
007F8000
007F8000
007F8000
007F9000
009FB000
1EFFFF40
ENDCHAR
STARTCHAR uni0269
ENCODING 617
SWIDTH 286 0
DWIDTH 7 0
BBX 8 12 0 0
BITMAP
28BE3000
37FF3000
00CF3000
00CF3000
00CF3000
00CF3000
00CF3000
00CF3000
00CF3000
00CF3000
009F7073
002CFC50
ENDCHAR
STARTCHAR uni026A
ENCODING 618
SWIDTH 287 0
DWIDTH 7 0
BBX 7 12 0 0
BITMAP
3FFFFF20
00BF9000
008F7000
008F7000
008F7000
008F7000
008F7000
008F7000
008F7000
008F7000
00BF9000
3FFFFE20
ENDCHAR
STARTCHAR uni026B
ENCODING 619
SWIDTH 290 0
DWIDTH 7 0
BBX 7 17 0 0
BITMAP
16AE7000
27DF7000
008F7000
008F7000
008F7000
008F7000
008F7020
3CFF71A0
A19FFC40
208F7000
008F7000
008F7000
008F7000
008F7000
008F7000
00BFA000
3FFFFF40
ENDCHAR
STARTCHAR uni026C
ENCODING 620
SWIDTH 318 0
DWIDTH 8 0
BBX 9 17 -1 0
BITMAP
0038CF2000
0024EF2000
0000DF2000
0000DF2000
0000DF2000
02BEFF2000
0CA0DF2000
1F40DF2000
1F60DF2580
0AE7EFCC10
018CFF7100
0000DF2000
0000DF2000
0000DF2000
0000DF2000
0002FF5000
007FFFFE00
ENDCHAR
STARTCHAR uni026D
ENCODING 621
SWIDTH 248 0
DWIDTH 6 0
BBX 9 22 0 -5
BITMAP
48CD000000
59FE000000
01FE000000
01FE000000
01FE000000
01FE000000
01FE000000
01FE000000
01FE000000
01FE000000
01FE000000
01FE000000
01FE000000
01FE000000
01FE000000
01FE000000
01FE000000
00FE000000
00EE000000
00AF003A30
003F74EF60
0004CFEA10
ENDCHAR
STARTCHAR uni026E
ENCODING 622
SWIDTH 590 0
DWIDTH 14 0
BBX 14 22 0 -5
BITMAP
27AE6000000000
25CF6000000000
009F6000000000
009F6000000000
009F6000000000
009FEEEEEEEFF6
009F6000009FC0
009F600004FF30
009F60001DF700
009F60009FC000
009F6004FE2000
009F601DF70000
009F607FF73000
009F60135BFC30
009F6000006FE2
00CF9000000BF8
4FFFFF300007FB
000000000007FB
000000000009F8
0000AD10001EE2
0000CFB004CE30
00002AEEEB6100
ENDCHAR
STARTCHAR uni026F
ENCODING 623
SWIDTH 846 0
DWIDTH 20 0
BBX 20 12 0 0
BITMAP
28BE30048CF00049CD00
37FF30048FF00059FE00
00CF30000FF00002FE00
00CF30000FF00001FE00
00CF30000FF00001FE00
00CF30000FF00001FE00
00CF30000FF00001FE00
00CF30000FF00001FE00
00CF30000FF00001FE00
00AF50003FF10005FE00
005FC206CCF9017AFF10
0006DFC701BEEB40FDA4
ENDCHAR
STARTCHAR uni0270
ENCODING 624
SWIDTH 826 0
DWIDTH 20 0
BBX 20 17 0 -5
BITMAP
38CF30049CF00059CD00
25EF30037FF00038FE00
00CF30000FF00002FE00
00CF30000FF00001FE00
00CF30000FF00001FE00
00CF30000FF00001FE00
00CF30000FF00001FE00
00CF30000FF00001FE00
00CF40001FF10002FE00
00AFB104DEF8005CFE00
005FFFDF56FFEED2FE00
0006DEB3008EE910FE00
0000000000000000FE00
0000000000000000FE00
0000000000000000FE00
0000000000000000FF30
0000000000000000FFFB
ENDCHAR
STARTCHAR uni0271
ENCODING 625
SWIDTH 835 0
DWIDTH 20 0
BBX 19 17 0 -5
BITMAP
29CE629DFD505BEEA100
00AFCA204FFC9107FB00
008FA0000BF80000EF10
008F70000AF50000DF20
008F70000AF50000CF30
008F70000AF50000CF30
008F70000AF50000CF30
008F70000AF50000CF30
008F70000AF50000CF30
008F70000AF60000CF30
00CFA0001DFA0000CF30
3FFFFF37FFFFF300CF20
0000000000000000DF20
0000000000000000DF00
0000000000027200EB00
000000000007FE46F400
000000000001AEEC4000
ENDCHAR
STARTCHAR uni0272
ENCODING 626
SWIDTH 574 0
DWIDTH 14 0
BBX 17 17 -3 -5
BITMAP
00029CE529DFC30000
00000BFB9105FD0000
000009F90000BF4000
000009F600008F6000
000009F600008F7000
000009F600008F8000
000009F600008F8000
000009F600008F8000
000009F600008F8000
000009F600008F8000
000009F60000BFB000
000009F6004FFFFF40
000009F50000000000
000009F30000000000
07400BE00000000000
3FF64F600000000000
08EFC6000000000000
ENDCHAR
STARTCHAR uni0273
ENCODING 627
SWIDTH 563 0
DWIDTH 14 0
BBX 17 17 0 -5
BITMAP
29CE529DFC30000000
00BFB9105FD0000000
009FA0000BF5000000
009F600008F7000000
009F600007F8000000
009F600007F8000000
009F600007F8000000
009F600007F8000000
009F600007F8000000
009F700007F8000000
00CFA00007F8000000
3FFFFF3007F8000000
0000000006F8000000
0000000004F8000000
0000000001FA005600
00000000008E37FF10
000000000008DFD600
ENDCHAR
STARTCHAR uni0274
ENCODING 628
SWIDTH 568 0
DWIDTH 14 0
BBX 14 12 0 0
BITMAP
8FFF40004FFFF4
04FFE20001CD20
00CFFC00007900
00C7FF90007800
00C36FF6007800
00C309FE307800
00C300BFD17800
00C3001DFA7800
00C30003EFD800
00C400005FF800
02F7000008F800
8FFFD00000A800
ENDCHAR
STARTCHAR uni0275
ENCODING 629
SWIDTH 514 0
DWIDTH 12 0
BBX 12 12 0 0
BITMAP
0004BDED8100
008F7004ED20
04F900006FB0
0BF400000EF2
1FF100000CF6
2FFEEEEEEFF7
2FF100000BF7
1FF300000CF5
0CF600000EF1
06FC00004F90
00AF9103DC10
0006BEEC7100
ENDCHAR
STARTCHAR uni0276
ENCODING 630
SWIDTH 732 0
DWIDTH 18 0
BBX 17 12 0 0
BITMAP
0004AEEFFFEEEFFF10
008F9101DF40004F20
05FC0000BF40000A30
0CF60000BF40000310
1FF30000BF4003A000
2FF20000BFEEFFA000
2FF20000BF4005A000
1FF30000BF4000A000
0CF60000BF40000070
05FB0000BF40000590
009F9101DF40004E70
0005BEEFFFEEEFFF50
ENDCHAR
STARTCHAR uni0277
ENCODING 631
SWIDTH 672 0
DWIDTH 16 0
BBX 16 12 0 0
BITMAP
000039DEEDA40000
001AF820027FB100
00BF40000003FC10
06FA000000008F80
0CF4001991002FE0
1FF2004FF5000FF3
2FF1002FF4000EF4
2FF2000EF2000EF4
1EF4000BE0001FF2
0AF8000AD0006FB0
01DE305A7702EE20
002AEEA108DEA200
ENDCHAR
STARTCHAR uni0278
ENCODING 632
SWIDTH 658 0
DWIDTH 16 0
BBX 15 22 0 -5
BITMAP
0000059CC0000000
0000048FC0000000
0000002FC0000000
0000002FC0000000
0000002FC0000000
00029DEFFED92000
005ED42FC17FF500
02FE102FC005FF20
0AF7002FC000CF90
0EF3002FC0007FD0
2FF1002FC0004FE0
2FF1002FC0004FD0
1FF3002FC0006FB0
0CF7002FC0009F60
05FD102FC001ED00
009FB22FC02CD200
0004ADDFECC71000
0000002FC0000000
0000002FC0000000
0000002FD0000000
0000004FE1000000
00000BFFFFA00000
ENDCHAR
STARTCHAR uni0279
ENCODING 633
SWIDTH 380 0
DWIDTH 9 0
BBX 9 12 0 0
BITMAP
008FFFFF60
00009FD100
00005FA000
00005FA000
00005FA000
00005FA000
00005FA000
00005FA000
00009FA000
6B26BFA000
CFFB4FE930
7EB14EA510
ENDCHAR
STARTCHAR uni027A
ENCODING 634
SWIDTH 374 0
DWIDTH 9 0
BBX 9 17 0 0
BITMAP
00059DA000
0016BFA000
00005FA000
00005FA000
00005FA000
00005FA000
00005FA000
00005FA000
00005FA000
00005FA000
00005FA000
00005FA000
00005FA000
00009FA000
6B26BFA000
CFFB4FE930
7EB14EA510
ENDCHAR
STARTCHAR uni027B
ENCODING 635
SWIDTH 375 0
DWIDTH 9 0
BBX 12 17 0 -5
BITMAP
008FFFFF6000
00009FD10000
00005FA00000
00005FA00000
00005FA00000
00005FA00000
00005FA00000
00005FA00000
00009FA00000
6B26BFA00000
CFFB4FA00000
7EB14FA00000
00003FA00000
00002FB00000
00000DC00481
000006F55FF3
0000006DFE80
ENDCHAR
STARTCHAR uni027C
ENCODING 636
SWIDTH 378 0
DWIDTH 9 0
BBX 9 17 0 -5
BITMAP
049E51AE80
2AEF5AFFD0
009FB82B70
009FB00000
009F600000
009F600000
009F600000
009F600000
009F600000
009F600000
009F600000
009F600000
009F600000
009F600000
009F600000
00CFA00000
5FFFFF9000
ENDCHAR
STARTCHAR uni027D
ENCODING 637
SWIDTH 373 0
DWIDTH 9 0
BBX 9 17 0 -5
BITMAP
16AE31BE60
39EF4CFFB0
00BFB53B60
00BF900000
00BF400000
00BF400000
00BF400000
00BF400000
00BF400000
00BF400000
00BF400000
00BF400000
00AF400000
008F500000
005F601960
000CB3AFC0
0002AEFC30
ENDCHAR
STARTCHAR uni027E
ENCODING 638
SWIDTH 371 0
DWIDTH 9 0
BBX 9 12 0 0
BITMAP
00018DFC40
000AA08FA0
003F600520
008F500000
00AF400000
00BF400000
00BF400000
00BF400000
00BF400000
00BF400000
01DF900000
7FFFFF7000
ENDCHAR
STARTCHAR uni027F
ENCODING 639
SWIDTH 371 0
DWIDTH 9 0
BBX 9 12 0 0
BITMAP
5DFC700000
CF70B90000
35008F2000
00006F6000
00006F8000
00006F9000
00006F9000
00006F9000
00006F9000
00006F9000
0000AFC100
009FFFFF50
ENDCHAR
STARTCHAR uni0280
ENCODING 640
SWIDTH 494 0
DWIDTH 12 0
BBX 13 12 0 0
BITMAP
1BFFFEEC700000
009F7018F90000
008F7000FF1000
008F7000EF2000
008F7002FD0000
008F714CE40000
008FEFF8100000
008F74FE200000
008F707FD10000
008F700CFA0000
00CF9002EF9000
3FFFFE106FFF30
ENDCHAR
STARTCHAR uni0281
ENCODING 641
SWIDTH 494 0
DWIDTH 12 0
BBX 13 12 0 0
BITMAP
3FFFFE106FFF30
00CF9002EF9100
008F700BFA0000
008F708FD10000
008F74FE200000
008FEFF8100000
008F703CE40000
008F7002FD0000
008F7000EF2000
008F7000FF1000
009F7018FA0000
1BFFFEEC700000
ENDCHAR
STARTCHAR uni0282
ENCODING 642
SWIDTH 395 0
DWIDTH 9 0
BBX 9 17 0 -5
BITMAP
007DEE9B10
09E302BF10
0FB0001E20
0FE3000A20
0AFE700000
01BFFD5000
0006EFF900
010018FF70
1B00007FB0
1F20004FB0
0FC3019F50
0F8DEEB500
0F10000000
0E10000000
0C20140000
0890CF0000
009EE70000
ENDCHAR
STARTCHAR uni0283
ENCODING 643
SWIDTH 253 0
DWIDTH 6 0
BBX 12 23 -3 -5
BITMAP
0000002AEEA2
000001D61CF9
000007F102B5
00000CF10000
00000DF00000
00000EF00000
00000EF00000
00000EF00000
00000EF00000
00000EF00000
00000EF00000
00000EF00000
00000EF00000
00000EF00000
00000EF00000
00000EF00000
00000EF00000
00000EF00000
00000EF00000
00000ED00000
3A200FA00000
6FC14F400000
19EEC5000000
ENDCHAR
STARTCHAR uni0284
ENCODING 644
SWIDTH 286 0
DWIDTH 7 0
BBX 11 22 -2 -5
BITMAP
0000007DFD50
000008D16FC0
00001F900320
00005F700000
00007F700000
00008F700000
00009F700000
00009F700000
00009F700000
00009F700000
00009F700000
00009F700000
00009F700000
00009F700000
00009F700000
00009F700000
006EFFEE5000
00009F600000
00009F500000
1100AE100000
DE41D7000000
7EEC60000000
ENDCHAR
STARTCHAR uni0285
ENCODING 645
SWIDTH 361 0
DWIDTH 9 0
BBX 12 17 0 -5
BITMAP
3CFD91000000
BF70AB000000
56006F300000
00005F700000
00005F900000
00005FA00000
00005FA00000
00005FA00000
00005FA00000
00005FA00000
00005FA00000
00005FA00000
00004FA00000
00003FA00000
00000EB00591
000008E13EF2
0000008DED70
ENDCHAR
STARTCHAR uni0286
ENCODING 646
SWIDTH 253 0
DWIDTH 6 0
BBX 12 23 -3 -5
BITMAP
0000002AEEA2
000001D61CF9
000007F102A5
00000CF10000
00000EF00000
00000EF00000
00000EF00000
00000EF00000
00000EF00000
00000EF00000
00000EF00000
00000EF00000
00000EF00000
00000EF00000
00000EF00000
00000EF00000
00000EF00000
00000EF00000
019DEFF10000
0C710FFD6000
1E001FB19100
0E307F400000
04CEC5000000
ENDCHAR
STARTCHAR uni0287
ENCODING 647
SWIDTH 315 0
DWIDTH 8 0
BBX 7 16 0 -4
BITMAP
19EE7000
821DF200
000AF400
000AF500
000AF500
000AF500
000AF500
000AF500
000AF500
000AF500
000AF500
5EEFFE80
000AFA00
000AD100
000A6000
00050000
ENDCHAR
STARTCHAR uni0288
ENCODING 648
SWIDTH 309 0
DWIDTH 7 0
BBX 8 21 1 -5
BITMAP
00850000
00D50000
06F50000
2EF40000
CFFEEE00
0BF40000
0BF40000
0BF40000
0BF40000
0BF40000
0BF40000
0BF40000
0BF40000
0BF40000
0BF40000
0AF40000
0AF50000
08F50000
04F701B7
00CC3BFC
0019EFC3
ENDCHAR
STARTCHAR uni0289
ENCODING 649
SWIDTH 580 0
DWIDTH 14 0
BBX 14 12 0 0
BITMAP
3BDE4005BDE600
14EF40014DF600
00BF400009F600
00BF400009F600
00BF400009F600
5EFFEEEEEFFEE1
00BF400009F600
00BF400009F600
00AF500009F600
008F80000BF600
003FE302BDF800
0005CFD928EC81
ENDCHAR
STARTCHAR uni028A
ENCODING 650
SWIDTH 548 0
DWIDTH 13 0
BBX 12 12 1 0
BITMAP
AFFF300EFFD0
01BA0007E100
03E20000E500
0CC000009E10
5F7000005F80
BF5000003FE0
EF4000002FF1
EF4000002FF1
CF6000004FE0
5FC00000AF70
09F91017FA00
004ADEDB5000
ENDCHAR
STARTCHAR uni028B
ENCODING 651
SWIDTH 530 0
DWIDTH 13 0
BBX 12 12 0 0
BITMAP
4BDF30007E50
14EF30007FE1
00CF30000CF4
00CF300003F7
00CF300000B9
00CF30000088
00CF30000077
00CF30000094
00BF400000B1
009F70000370
002FE4005900
0003AEEC6000
ENDCHAR
STARTCHAR uni028C
ENCODING 652
SWIDTH 495 0
DWIDTH 12 0
BBX 13 12 -1 0
BITMAP
000000DA000000
000004FF100000
00000AEF700000
00001E5FD00000
00007A0EF30000
0000D508F90000
0004E003FE1000
000A8000CF6000
001F30006FC000
007C00001FF300
02EA00000DFB00
3FFFE001FFFFF0
ENDCHAR
STARTCHAR uni028D
ENCODING 653
SWIDTH 764 0
DWIDTH 18 0
BBX 20 12 -1 0
BITMAP
000000E800006F200000
000005FE0000BF800000
00000BEF4002EFD00000
00002E6F90087DF40000
0000791FE00D28FA0000
0000D40BF55B02FF1000
0003E005FAA500BF7000
00098001EFD0005FD000
001E30009F90001EF300
006D00004FD00009F900
01DB00002FF60006FF40
2FFFE003FFFFB08FFFF8
ENDCHAR
STARTCHAR uni028E
ENCODING 654
SWIDTH 492 0
DWIDTH 12 0
BBX 14 18 -1 0
BITMAP
00000000002100
000000003CFF60
00000001D9BE60
00000009900000
0000001E100000
0000007A000000
000000D6000000
000004FA000000
00000AFF100000
00001D9F800000
0000684FE10000
0000C30CF70000
0003D005FD0000
00098000DF5000
000E40007FC000
005E00001EF400
01CB00000CFC10
1FFFF001EFFFF1
ENDCHAR
STARTCHAR uni028F
ENCODING 655
SWIDTH 454 0
DWIDTH 11 0
BBX 13 12 -1 0
BITMAP
5FFFF7006FFF40
03EF600006D200
006FB0000B4000
000BF600590000
0002EE21C10000
00007FA8700000
00000CFC000000
000006F9000000
000006F9000000
000006F9000000
000009FC000000
0002EFFFF50000
ENDCHAR
STARTCHAR uni0290
ENCODING 656
SWIDTH 458 0
DWIDTH 11 0
BBX 14 17 0 -5
BITMAP
0CFFEEEEFF1000
0CA1000DF80000
0D20008FD00000
080003FF400000
00000CF9000000
00007FD1000000
0002FF50000000
000BFA00000000
006FE1000B3000
02EF60001E1000
0AFB0001AF0000
3FFEEEEFFF0000
000000001E0000
000000001F0000
000000000E1013
000000000A71DE
0000000001BEE6
ENDCHAR
STARTCHAR uni0291
ENCODING 657
SWIDTH 458 0
DWIDTH 11 0
BBX 11 16 0 -4
BITMAP
0CFFEEEEFF10
0CA1000DF800
0D20008FD000
080003FF4000
00000CF90000
00007FD10000
0002FF500000
000BFA000000
006FE108DD40
02EF60B706A0
0AFB08800880
3FFEEFEDC810
0000A5000000
0003C0000000
000A50000000
000900000000
ENDCHAR
STARTCHAR uni0292
ENCODING 658
SWIDTH 443 0
DWIDTH 11 0
BBX 11 17 0 -5
BITMAP
0FFFEEEFFD00
0F70003FF400
1D0000CF8000
040008FC0000
00004FE20000
0001DF600000
000AFA000000
000BDEA60000
000002AFC100
0000000AFA00
00000002FF10
00000000FF30
00000000FF30
05100002FE10
6FA00008F700
4FF4028F8000
05CEEC930000
ENDCHAR
STARTCHAR uni0293
ENCODING 659
SWIDTH 443 0
DWIDTH 11 0
BBX 11 21 0 -9
BITMAP
0FFFEEEFFD00
0F70003FF400
1D0000CF8000
040008FC0000
00004FE20000
0001DF600000
000AFA000000
000BDEA50000
000002BFB100
0000000BF900
00000004FE00
00000001FF20
07EB2001FF10
2D15D103FE00
3D007809F700
0B820C8FB000
018CEFE60000
000000C40000
0000003C0000
0000000A6000
000000025000
ENDCHAR
STARTCHAR uni0294
ENCODING 660
SWIDTH 383 0
DWIDTH 9 0
BBX 10 18 0 0
BITMAP
017CEEB400
0CE302CF30
4FB0004FB0
3F80001FF0
0100000FF1
0000001FF1
0000004FD0
000000AF60
000006FA00
0014AD5000
009F700000
009F600000
009F600000
009F600000
009F600000
009F600000
01CFA00000
6FFFFF7000
ENDCHAR
STARTCHAR uni0295
ENCODING 661
SWIDTH 383 0
DWIDTH 9 0
BBX 9 18 0 0
BITMAP
007CEDA200
0BE502DE20
7F70008F70
CF40005F50
EF30000100
DF40000000
AF60000000
4FC0000000
08F8000000
005CB51000
00005FC000
00003FC000
00003FC000
00003FC000
00003FC000
00004FC000
00008FE100
004FFFFF80
ENDCHAR
STARTCHAR uni0296
ENCODING 662
SWIDTH 408 0
DWIDTH 10 0
BBX 10 17 0 0
BITMAP
059D900000
16BF900000
006F900000
005F900000
005F900000
005F900000
005F900000
004EC30000
00004DB200
000001EE20
0000006FA0
0000002FF0
0000000FF1
1A40000FF1
5FA0002FC0
1ED0009F40
02ACBCA300
ENDCHAR
STARTCHAR uni0297
ENCODING 663
SWIDTH 437 0
DWIDTH 10 0
BBX 11 17 0 -5
BITMAP
0002ADEC6000
003E702EF600
00DB0008FC00
05F40001C900
0AF100000000
0ED000000000
1FC000000000
2FB000000000
3FB000000000
2FC000000000
1FE000000000
0EF100000000
0BF600000000
06FD10000B10
00DFB313B800
003EFFFFC000
0003ACB70000
ENDCHAR
STARTCHAR uni0298
ENCODING 664
SWIDTH 736 0
DWIDTH 18 0
BBX 17 17 0 0
BITMAP
000005ADEED9300000
0001BE82003AF80000
002EE30000008FA000
00CF500000000BF700
06FB0000000003FE10
0CF60000000000CF60
1FF300000000008FA0
3FF10005EC10007FC0
3FF0000BFF40006FD0
2FF10004EC10007FC0
1FF300000000008FA0
0BF70000000000CF60
05FC0000000003FE10
00BF400000000BF700
002DE20000008FB000
0001BE72003BF90000
000004ADEEC8300000
ENDCHAR
STARTCHAR uni0299
ENCODING 665
SWIDTH 485 0
DWIDTH 12 0
BBX 11 12 0 0
BITMAP
2BFFEEEC8100
009F7017FC00
008F7000EF20
008F7000FF20
008F7018F900
008FEEFE5000
008F7027F900
008F7000AF80
008F70007FC0
008F70008FB0
00AF7003DF50
3CFFFEEDA300
ENDCHAR
STARTCHAR uni029A
ENCODING 666
SWIDTH 500 0
DWIDTH 12 0
BBX 12 12 0 0
BITMAP
005BEED93000
08F91029F600
0DF10000AF30
0CF200003FB0
02CB20000EF0
002CFFA00CF2
04EB20000CF2
0DF200000EF0
2FF000003FB0
1FF30000AF30
09FC3018F600
006CEED93000
ENDCHAR
STARTCHAR uni029B
ENCODING 667
SWIDTH 536 0
DWIDTH 13 0
BBX 16 16 0 0
BITMAP
000000000009EE90
00000000007A0AF1
0000000000B40130
0000000000D20000
00039DEFFFF20000
006FB2004DF20000
04FC000002F20000
0BF6000000A20000
0FF3000000000000
1FF1000000000000
2FF20004FFFF6000
1FF300001DF50000
0CF700000BF20000
06FD10000BF20000
009FB3004EF20000
0004AEEED8200000
ENDCHAR
STARTCHAR uni029C
ENCODING 668
SWIDTH 599 0
DWIDTH 14 0
BBX 14 12 0 0
BITMAP
3FFFFF20BFFFF9
00BF900003FF20
008F700000FE00
008F700000FE00
008F700000FE00
008FEEEEEEFE00
008F700000FE00
008F700000FE00
008F700000FE00
008F700000FE00
00BFA00003FF20
3FFFFE20BFFFF9
ENDCHAR
STARTCHAR uni029D
ENCODING 669
SWIDTH 263 0
DWIDTH 6 0
BBX 9 21 -2 -5
BITMAP
0000AE5000
0000FFB000
00007C4000
0000000000
0028BE6000
0025DF6000
00009F6000
00009F6000
00009F6000
00009F6000
00009F6000
00009F6000
00009F6000
00009F6000
00009F6000
00009F6000
07CEFF7000
7C20AFE910
B500BF1740
9902E90000
1AED810000
ENDCHAR
STARTCHAR uni029E
ENCODING 670
SWIDTH 542 0
DWIDTH 13 0
BBX 13 17 0 -5
BITMAP
DFFFF52FFFFF40
04EF90009FC000
004FF4006F9000
0006FE306F9000
00008FD26F9000
00000AFC7F9000
000000CFDF9000
0000008A6F9000
00000AB06F9000
0001BB006F9000
004DF1006F9000
1FFFFE206F9000
000000006F9000
000000006F9000
000000006F9000
000000006FC100
000000006FFF70
ENDCHAR
STARTCHAR uni029F
ENCODING 671
SWIDTH 440 0
DWIDTH 11 0
BBX 11 12 0 0
BITMAP
7FFFFF000000
02EF70000000
00DF30000000
00CF30000000
00CF30000000
00CF30000000
00CF30000000
00CF30000000
00CF30000610
00CF30000E10
00EF40009D00
5DFFFDDFFB00
ENDCHAR
STARTCHAR uni02A0
ENCODING 672
SWIDTH 541 0
DWIDTH 13 0
BBX 16 23 0 -5
BITMAP
00000000003ADEB4
0000000003D21BFE
000000000CA001CC
000000002F900000
000000005F900000
000000006F900000
0003ADECBF900000
005E6005FF900000
02F800009F900000
0AF200006F900000
0EE000006F900000
2FD000006F900000
3FE000006F900000
2FF100006F900000
0EF600006F900000
0AFE4002BF900000
02EFFEDEAF900000
003BEEA26F900000
000000006F900000
000000006F900000
000000006F900000
00000001BFC10000
0000009FFFFF2000
ENDCHAR
STARTCHAR uni02A1
ENCODING 673
SWIDTH 393 0
DWIDTH 9 0
BBX 10 18 0 0
BITMAP
006CEEC500
0AF402BF50
3FD0002FD0
1E90000EF1
0000000DF3
0000000EF2
0000003FD0
000000AF60
000008F800
0028CA3000
007F800000
007F800000
3EEFEEE400
007F800000
007F800000
008F800000
00BFC10000
4FFFFF8000
ENDCHAR
STARTCHAR uni02A2
ENCODING 674
SWIDTH 393 0
DWIDTH 9 0
BBX 9 18 0 0
BITMAP
007CEDB300
0AF611CF30
5F90006F90
AF50003F70
CF50000000
BF60000000
8F90000000
1EE1000000
04EC200000
0018CA5000
00001FE000
00001FE000
00CEEFFEA0
00001FE000
00001FE000
00002FE000
00006FF300
002EFFFFA0
ENDCHAR
STARTCHAR uni02A3
ENCODING 675
SWIDTH 830 0
DWIDTH 20 0
BBX 20 17 0 0
BITMAP
000000059D9000000000
00000006BF9000000000
000000006F9000000000
000000005F9000000000
000000005F9000000000
0003ADEDCFFFFFFFFFF0
005E7103EFA11111DFA0
02E800007F900008FE10
0AF200005F90003FF500
0EE000005F9000DF9000
2FD000005F9008FD1000
3FE000005F903FF40000
2FF100005F90DF900020
0EF600005F98FD1000D1
0AFE4002BFDFF40002F0
02EFFEEE8FFF91113CF0
003BEEA24FFFFFFFFFE0
ENDCHAR
STARTCHAR uni02A4
ENCODING 676
SWIDTH 838 0
DWIDTH 20 0
BBX 20 22 0 -5
BITMAP
000000059D9000000000
00000006BF9000000000
000000006F9000000000
000000005F9000000000
000000005F9000000000
0003ADEDCFFEEEEEEFF4
005E7103EF900000AFD1
02E800006F900005FF30
0AF200005F90001EF800
0EE000005F9000AFC000
2FD000005F9005FE2000
3FE000005F901DF60000
2FF100005F907FF73000
0EF600005F90136CFB20
0AFE4002BFA000008FE1
02EFFEEE8FE620000DF7
003BEEA24EB9200009F9
000000000000000008FA
00000000000000000AF7
0000000000CC00002ED1
0000000000EF8003CD20
00000000003BECCA6000
ENDCHAR
STARTCHAR uni02A5
ENCODING 677
SWIDTH 829 0
DWIDTH 20 0
BBX 20 21 0 -4
BITMAP
000000059D9000000000
00000006BF9000000000
000000006F9000000000
000000005F9000000000
000000005F9000000000
0003ADEDCFFEEEEEFFF0
005E7103EF900001DFA0
02E800007F900009FE10
0AF200005F90004FF500
0EE000005F9000DFA000
2FD000005F9008FE1000
3FE000005F903FF50000
2FF100005F90CFA00000
0EF600005F97FE119DC2
0AFE40019FCFF51C5088
02EFFEEE8FFFA0A500A7
003BEEA24FFFEEFEDB70
0000000000000C300000
0000000000005A000000
000000000000C2000000
00000000000160000000
ENDCHAR
STARTCHAR uni02A6
ENCODING 678
SWIDTH 614 0
DWIDTH 15 0
BBX 13 16 1 0
BITMAP
00420000000000
00C30000000000
04F30000000000
1CF30000000000
AFFEEEFFFEBA60
0CF308F6018F60
0CF30BF0000B60
0CF30AF6000660
0CF304FF920000
0CF3005EFE7000
0CF30002AFFC10
0CF3000003DFA0
0CF40000003FE0
09F80000002FD0
02EF820014CF50
0017BEEEDB7200
ENDCHAR
STARTCHAR uni02A7
ENCODING 679
SWIDTH 513 0
DWIDTH 12 0
BBX 15 23 0 -5
BITMAP
00000000019DEC30
000000000B90AFD0
000310003F501A80
000C30008F400000
005F3000AF400000
02EF3000BF400000
1DFFEEEEFF400000
00CF3000BF400000
00CF3000BF400000
00CF3000BF400000
00CF3000BF400000
00CF3000BF400000
00CF3000BF400000
00CF3000BF400000
00CF3000BF400000
00BF4000BF400000
008F7073BF400000
002BFC50BF400000
00000000BF300000
00000000BF200000
00007300CE000000
0003FE21E7000000
00008DFD70000000
ENDCHAR
STARTCHAR uni02A8
ENCODING 680
SWIDTH 687 0
DWIDTH 16 0
BBX 15 16 1 0
BITMAP
0042000000000000
00C3000000000000
04F3000000000000
1DF3000000000000
AFFEED006CEEC600
0CF3000BB203FF50
0CF3007E10008F80
0CF300EA00000300
0CF303F800000000
0CF305F700000000
0CF306F900000000
0CF305FD006CEB10
0CF302FF6B920890
0BF400BFF50005A0
09FA029FFB201B40
02CFDA539DEDB400
ENDCHAR
STARTCHAR uni02A9
ENCODING 681
SWIDTH 866 0
DWIDTH 21 0
BBX 19 23 0 -5
BITMAP
00007DEC500000000000
0008C08FF00000000000
001F800AC00000000000
005F7000000000000000
007F7000000000000000
008F7000000000000000
5EEFEEEEEFFB06CFD700
008F700005FDB402CF40
008F700003FE20005FA0
008F700003FC00002FC0
008F700003FC00001FE0
008F700003FC00001FE0
008F700003FC00001FE0
008F700003FC00001FE0
008F700003FC00001FE0
009F700003FC00001FE0
01CFC10006FE10001FE0
8FFFFFD0CFFFF9001FE0
00000000000000001FD0
00000000000000002FB0
00000000000037103F70
000000000000BFC3AD10
0000000000003CFEA200
ENDCHAR
STARTCHAR uni02AA
ENCODING 682
SWIDTH 595 0
DWIDTH 14 0
BBX 14 17 0 0
BITMAP
48CD0000000000
58FE0000000000
01FE0000000000
01FE0000000000
01FE0000000000
01FE0018DED8C0
01FE00AD202CF0
01FE01F90002F0
01FE01FD1000C0
01FE00CFE60000
01FE002DFFC400
01FE00007EFF80
01FE0000019FF4
01FE00000009F8
00EF00000007F7
008F9100027EC1
0004ADEEEDA600
ENDCHAR
STARTCHAR uni02AB
ENCODING 683
SWIDTH 580 0
DWIDTH 14 0
BBX 13 17 0 0
BITMAP
27AE6000000000
25DF6000000000
009F6000000000
009F6000000000
009F6000000000
009FFFFFFFFFC0
009F611112EF50
009F600009FB00
009F60003FF200
009F6000CF7000
009F6006FD0000
009F601EF40000
009F60AF900010
009F64FE1000D0
009F6DF60004D0
00BFDFC1114DC0
3CFFFFFFFFFFB0
ENDCHAR
STARTCHAR uni02AC
ENCODING 684
SWIDTH 599 0
DWIDTH 14 0
BBX 15 17 0 0
BITMAP
BFFF1BFFF00EFF20
09F4009F4001E200
02FA005FA0068000
009F30AAF20C1000
002FA292F9490000
000AFA20BEA20000
0002FB004FA00000
0000310003100000
BFFE1BFFE00EFF20
0BF400BF4000E300
04F8004F7003A000
00DD007FD0085000
008F40B8F30C0000
002FA292F9490000
000BF840CE930000
0006FD007FC00000
0001E8002F700000
ENDCHAR
STARTCHAR uni02AD
ENCODING 685
SWIDTH 479 0
DWIDTH 12 0
BBX 9 16 1 0
BITMAP
5FFFFFFFC0
5FDDDDDEC0
5F000008C0
5F000008C0
5F000008C0
5F000008C0
5F000008C0
2700000460
0000000000
5FFFFFFFC0
5FDDDDDEC0
5F000008C0
5F000008C0
5F000008C0
5F000008C0
5F000008C0
ENDCHAR
STARTCHAR uni02AE
ENCODING 686
SWIDTH 595 0
DWIDTH 14 0
BBX 16 17 -1 -5
BITMAP
5DEC6000016AE500
BF51E700027EF500
1300BE00000AF500
0000AF300009F500
0000AF500009F500
0000AF500009F500
0000AF500009F500
0000AF600009F500
00009F80000AF500
00006FE2019EF500
00001EFFDF89F500
000004DFC509F500
000000000009F500
000000000009F500
000000000009F600
000000000009F900
000000000009FFF3
ENDCHAR
STARTCHAR uni02AF
ENCODING 687
SWIDTH 600 0
DWIDTH 14 0
BBX 18 17 -1 -5
BITMAP
5DEC6000016AE50000
BF51E700027EF50000
1300BE00000AF50000
0000AF300009F50000
0000AF500009F50000
0000AF500009F50000
0000AF500009F50000
0000AF600009F50000
00009F80000AF50000
00006FE2019EF50000
00001EFFDF89F50000
000004DFC509F50000
000000000009F50000
000000000007F60000
000000000003F70076
000000000000BC39FD
00000000000019EFD4
ENDCHAR
STARTCHAR uni02B0
ENCODING 688
SWIDTH 488 0
DWIDTH 12 0
BBX 12 14 0 6
BITMAP
4BEC00000000
13FC00000000
00FC00000000
00FC00000000
00FC2AEE7000
00FEB43CF400
00FD1004F800
00FC0001FA00
00FC0001FB00
00FC0000FB00
00FC0000FB00
00FC0000FB00
01FD0002FD00
4DFFD25EFFD2
ENDCHAR
STARTCHAR uni02B1
ENCODING 689
SWIDTH 488 0
DWIDTH 12 0
BBX 12 15 0 6
BITMAP
00029CC91000
002D20AF8000
009C00063000
00DC00000000
00EC00000000
00FC2AEE7000
00FEB43CF400
00FD1004F800
00FC0001FA00
00FC0001FB00
00FC0000FB00
00FC0000FB00
00FC0000FB00
01FD0002FD00
4DFFD25EFFD2
ENDCHAR
STARTCHAR uni02B2
ENCODING 690
SWIDTH 222 0
DWIDTH 5 0
BBX 7 18 -2 2
BITMAP
0002DC00
0003FE10
00001100
00000000
004CED00
0001ED00
0000ED00
0000ED00
0000ED00
0000ED00
0000ED00
0000ED00
0000ED00
0000ED00
0000EC00
2400E900
AF63F400
3DFD6000
ENDCHAR
STARTCHAR uni02B3
ENCODING 691
SWIDTH 325 0
DWIDTH 8 0
BBX 8 10 0 6
BITMAP
3BEB1BE5
01FCA9F6
00EF4010
00EC0000
00EC0000
00EC0000
00EC0000
00EC0000
01FD0000
4DFFD600
ENDCHAR
STARTCHAR uni02B4
ENCODING 692
SWIDTH 325 0
DWIDTH 8 0
BBX 8 10 0 6
BITMAP
004DFFE6
0000BF30
00009F20
00009F20
00009F20
00009F20
00009F20
0101EF20
3FBBAF40
3EC28EC5
ENDCHAR
STARTCHAR uni02B5
ENCODING 693
SWIDTH 325 0
DWIDTH 8 0
BBX 10 13 0 3
BITMAP
004DFFE700
0000BF4000
00009F2000
00009F2000
00009F2000
00009F2000
00009F2000
0101EF2000
3FBBAF2000
3EC27F2000
00005F2000
00001E41A6
000003ACB3
ENDCHAR
STARTCHAR uni02B6
ENCODING 694
SWIDTH 443 0
DWIDTH 11 0
BBX 11 10 0 6
BITMAP
3DFFD307FE50
00FE001EE100
00EC00AF5000
00EC04FA0000
00EC0CD10000
00EECF920000
00EC007F6000
00EC001FD000
00EC004FB000
2BFFBCDA2000
ENDCHAR
STARTCHAR uni02B7
ENCODING 695
SWIDTH 653 0
DWIDTH 16 0
BBX 17 10 -1 6
BITMAP
1DFFD14EFFA00BFF80
00CF3002FE0000C600
005F7000AF3001E100
000ED000CF80069000
0009F403BDD00B4000
0003FA0958F41D0000
0000DF1D03F9680000
00007F9900DEB20000
00002FF3007FC00000
00000BC0002F600000
ENDCHAR
STARTCHAR uni02B8
ENCODING 696
SWIDTH 427 0
DWIDTH 10 0
BBX 11 14 0 2
BITMAP
CFFE404DFD20
0BF50003E100
05FA00078000
00DF200C3000
006F802C0000
001EE0760000
0008F5C10000
0002FCA00000
0000AF400000
00005D000000
000098000000
0002E1000000
6FBC70000000
4DE700000000
ENDCHAR
STARTCHAR uni02B9
ENCODING 697
SWIDTH 296 0
DWIDTH 7 0
BBX 5 8 1 9
BITMAP
005E40
00CF50
01FE00
06F600
0AD000
0E6000
4D0000
240000
ENDCHAR
STARTCHAR uni02BA
ENCODING 698
SWIDTH 456 0
DWIDTH 11 0
BBX 9 8 1 9
BITMAP
005E407E20
00CF50EF30
01FE04FC00
06F608F400
0AD00CC000
0E602F4000
4D006C0000
2400230000
ENDCHAR
STARTCHAR uni02BB
ENCODING 699
SWIDTH 245 0
DWIDTH 6 0
BBX 4 7 1 11
BITMAP
0001
02B5
1D30
6C00
9EC5
8FFB
2CE5
ENDCHAR
STARTCHAR uni02BC
ENCODING 700
SWIDTH 244 0
DWIDTH 6 0
BBX 4 7 1 11
BITMAP
5C90
CFF5
8FF7
00D5
04D0
5B20
2000
ENDCHAR
STARTCHAR uni02BD
ENCODING 701
SWIDTH 244 0
DWIDTH 6 0
BBX 4 7 1 11
BITMAP
1AC3
7FFA
9FF6
7B00
1D20
04C4
0012
ENDCHAR
STARTCHAR uni02BE
ENCODING 702
SWIDTH 203 0
DWIDTH 5 0
BBX 5 5 0 12
BITMAP
4EC400
006E10
001F30
006E10
4EC400
ENDCHAR
STARTCHAR uni02BF
ENCODING 703
SWIDTH 203 0
DWIDTH 5 0
BBX 5 5 0 12
BITMAP
06DE20
3F4000
5E0000
3F4000
05CE20
ENDCHAR
STARTCHAR uni02C0
ENCODING 704
SWIDTH 364 0
DWIDTH 9 0
BBX 7 9 1 9
BITMAP
29DEC400
CF419F30
CB002FB0
00000FD0
00002FC0
00008F60
0159E700
05F91000
05F60000
ENDCHAR
STARTCHAR uni02C1
ENCODING 705
SWIDTH 364 0
DWIDTH 9 0
BBX 8 9 0 9
BITMAP
007DED71
07F608F8
0ED001E8
2FB00000
1FD00000
0AF40000
01AE7400
0002CF10
0000AF10
ENDCHAR
STARTCHAR uni02C2
ENCODING 706
SWIDTH 324 0
DWIDTH 8 0
BBX 7 9 0 10
BITMAP
00000020
000018D0
0005DD50
02AF8100
1EE30000
04DD5000
0007EB30
00002AE0
00000040
ENDCHAR
STARTCHAR uni02C3
ENCODING 707
SWIDTH 324 0
DWIDTH 8 0
BBX 7 9 0 10
BITMAP
01000000
1E600000
07EC3000
002AF910
00005FD0
0007EB30
04DE5000
1F910000
13000000
ENDCHAR
STARTCHAR uni02C4
ENCODING 708
SWIDTH 324 0
DWIDTH 8 0
BBX 8 6 0 12
BITMAP
000B8000
005FF200
01D8BB00
08D02F50
2F4008E1
BA0001D9
ENDCHAR
STARTCHAR uni02C5
ENCODING 709
SWIDTH 324 0
DWIDTH 8 0
BBX 8 6 0 12
BITMAP
BA0000D9
2F4007E1
08D02E50
01D7AB00
005FF200
000B8000
ENDCHAR
STARTCHAR circumflex
ENCODING 710
SWIDTH 342 0
DWIDTH 8 0
BBX 8 4 0 13
BITMAP
001EF300
00AECD00
05E31C80
1D3001C3
ENDCHAR
STARTCHAR caron
ENCODING 711
SWIDTH 342 0
DWIDTH 8 0
BBX 8 4 0 13
BITMAP
1D3001C3
05E31C80
00AECD00
001EF300
ENDCHAR
STARTCHAR uni02C8
ENCODING 712
SWIDTH 284 0
DWIDTH 7 0
BBX 2 7 2 11
BITMAP
1E
1E
1E
1E
1E
1E
1E
ENDCHAR
STARTCHAR uni02C9
ENCODING 713
SWIDTH 350 0
DWIDTH 8 0
BBX 8 1 0 14
BITMAP
4EEEEEEA
ENDCHAR
STARTCHAR uni02CA
ENCODING 714
SWIDTH 222 0
DWIDTH 5 0
BBX 5 4 0 13
BITMAP
00CF80
03FB00
0AD100
1E2000
ENDCHAR
STARTCHAR uni02CB
ENCODING 715
SWIDTH 222 0
DWIDTH 5 0
BBX 5 4 0 13
BITMAP
3FF200
06F800
009E10
000B60
ENDCHAR
STARTCHAR uni02CC
ENCODING 716
SWIDTH 284 0
DWIDTH 7 0
BBX 2 7 2 -5
BITMAP
1E
1E
1E
1E
1E
1E
1E
ENDCHAR
STARTCHAR uni02CD
ENCODING 717
SWIDTH 342 0
DWIDTH 8 0
BBX 8 1 0 -4
BITMAP
AEEEEEED
ENDCHAR
STARTCHAR uni02CE
ENCODING 718
SWIDTH 222 0
DWIDTH 5 0
BBX 5 4 0 -4
BITMAP
3FF200
06F800
009E10
000B60
ENDCHAR
STARTCHAR uni02CF
ENCODING 719
SWIDTH 223 0
DWIDTH 5 0
BBX 5 4 0 -4
BITMAP
00CF80
03FB00
0AD100
1E2000
ENDCHAR
STARTCHAR uni02D0
ENCODING 720
SWIDTH 341 0
DWIDTH 8 0
BBX 4 11 2 0
BITMAP
AFFC
5FF7
0EF2
0AC0
0000
0000
0000
0AC0
0EF2
5FF7
AFFC
ENDCHAR
STARTCHAR uni02D1
ENCODING 721
SWIDTH 341 0
DWIDTH 8 0
BBX 4 4 2 8
BITMAP
AFFC
5FF7
0EF2
0AC0
ENDCHAR
STARTCHAR uni02D2
ENCODING 722
SWIDTH 341 0
DWIDTH 8 0
BBX 6 7 1 2
BITMAP
3ED910
001AD1
0001F6
0000E7
0001F6
002BD1
3ED910
ENDCHAR
STARTCHAR uni02D3
ENCODING 723
SWIDTH 341 0
DWIDTH 8 0
BBX 6 7 1 2
BITMAP
018DE6
0BC200
3F4000
5F2000
3F4000
0BC300
018DE6
ENDCHAR
STARTCHAR uni02D4
ENCODING 724
SWIDTH 341 0
DWIDTH 8 0
BBX 6 6 1 3
BITMAP
006800
006800
006800
006800
AEEFEC
111111
ENDCHAR
STARTCHAR uni02D5
ENCODING 725
SWIDTH 341 0
DWIDTH 8 0
BBX 6 5 1 4
BITMAP
AEEEEC
006800
006800
006800
003400
ENDCHAR
STARTCHAR uni02D6
ENCODING 726
SWIDTH 341 0
DWIDTH 8 0
BBX 6 5 1 4
BITMAP
006800
006800
4EEFE6
006800
006800
ENDCHAR
STARTCHAR uni02D7
ENCODING 727
SWIDTH 341 0
DWIDTH 8 0
BBX 6 1 1 6
BITMAP
4EEEE6
ENDCHAR
STARTCHAR breve
ENCODING 728
SWIDTH 353 0
DWIDTH 8 0
BBX 8 4 0 13
BITMAP
4900002A
1E4001B7
0AFEDFE2
019DEC30
ENDCHAR
STARTCHAR dotaccent
ENCODING 729
SWIDTH 194 0
DWIDTH 5 0
BBX 3 3 1 14
BITMAP
7C30
FFA0
AE50
ENDCHAR
STARTCHAR ring
ENCODING 730
SWIDTH 265 0
DWIDTH 6 0
BBX 6 5 0 13
BITMAP
04DD90
1E31B6
3C0079
1E31B6
05DD90
ENDCHAR
STARTCHAR ogonek
ENCODING 731
SWIDTH 277 0
DWIDTH 7 0
BBX 6 7 0 -6
BITMAP
000410
00A700
09A000
2F6000
3FA137
0BFFC2
003200
ENDCHAR
STARTCHAR tilde
ENCODING 732
SWIDTH 381 0
DWIDTH 9 0
BBX 9 3 0 13
BITMAP
02AC400440
0CFFF61A10
2A139DD400
ENDCHAR
STARTCHAR hungarumlaut
ENCODING 733
SWIDTH 350 0
DWIDTH 8 0
BBX 8 4 0 13
BITMAP
00DF6BF9
05FA2FC1
0AC18E20
1D20D400
ENDCHAR
STARTCHAR uni02DE
ENCODING 734
SWIDTH 205 0
DWIDTH 5 0
BBX 6 4 -1 5
BITMAP
001000
3BB015
88E156
01BEA1
ENDCHAR
STARTCHAR uni02DF
ENCODING 735
SWIDTH 302 0
DWIDTH 7 0
BBX 7 6 0 12
BITMAP
07100610
1CB17E30
01CDE300
008FC100
07E5DB10
1C402D30
ENDCHAR
STARTCHAR uni02E0
ENCODING 736
SWIDTH 413 0
DWIDTH 10 0
BBX 11 14 -1 2
BITMAP
1DFFD205EFD0
00CF50005C00
005F9000A500
000EE101D000
0008F6068000
0002FC0C2000
0000BF5B0000
00006FD50000
00001EF00000
00001EF50000
000068FA0000
0000A2AE0000
0000C18E0000
00006CD50000
ENDCHAR
STARTCHAR uni02E1
ENCODING 737
SWIDTH 244 0
DWIDTH 6 0
BBX 6 14 0 6
BITMAP
3BEC00
13FC00
00EC00
00EC00
00EC00
00EC00
00EC00
00EC00
00EC00
00EC00
00EC00
00EC00
01FD00
3DFFD3
ENDCHAR
STARTCHAR uni02E2
ENCODING 738
SWIDTH 337 0
DWIDTH 8 0
BBX 8 10 0 6
BITMAP
03BBCAB0
0E7007D0
2F7000C0
1FF81000
06FFE600
003CFFA0
37005EF4
3B0006F6
3F5007F2
3BCCCB40
ENDCHAR
STARTCHAR uni02E3
ENCODING 739
SWIDTH 445 0
DWIDTH 11 0
BBX 11 10 0 6
BITMAP
3EFFD16FFA00
01DF400C7000
004FC05A0000
0008F6B10000
0001DF500000
0000CEC00000
000897F70000
004D10DF3000
02E3004FD100
6FFB01DFFE20
ENDCHAR
STARTCHAR uni02E4
ENCODING 740
SWIDTH 364 0
DWIDTH 9 0
BBX 8 14 1 6
BITMAP
02ABAD80
3E9009F8
AF1003F9
EE000021
FE000000
DF100000
6F900000
07EB5200
0016FC00
0000EC00
0000EC00
0000EC00
0001FD00
008DFFC5
ENDCHAR
STARTCHAR uni02E5
ENCODING 741
SWIDTH 423 0
DWIDTH 10 0
BBX 9 17 1 0
BITMAP
BEEEEEEF20
0000001F30
0000001F30
0000001F30
0000001F30
0000001F30
0000001F30
0000001F30
0000001F30
0000001F30
0000001F30
0000001F30
0000001F30
0000001F30
0000001F30
0000001F30
0000000710
ENDCHAR
STARTCHAR uni02E6
ENCODING 742
SWIDTH 414 0
DWIDTH 10 0
BBX 8 18 1 0
BITMAP
00000001
0000004F
0000004F
0000004F
0000004F
0000004F
EEEEEEEF
0000004F
0000004F
0000004F
0000004F
0000004F
0000004F
0000004F
0000004F
0000004F
0000004F
0000004E
ENDCHAR
STARTCHAR uni02E7
ENCODING 743
SWIDTH 414 0
DWIDTH 10 0
BBX 8 18 1 0
BITMAP
00000001
0000004F
0000004F
0000004F
0000004F
0000004F
0000004F
0000004F
0000004F
EEEEEEEF
0000004F
0000004F
0000004F
0000004F
0000004F
0000004F
0000004F
00000026
ENDCHAR
STARTCHAR uni02E8
ENCODING 744
SWIDTH 414 0
DWIDTH 10 0
BBX 8 18 1 0
BITMAP
00000001
0000004F
0000004F
0000004F
0000004F
0000004F
0000004F
0000004F
0000004F
0000004F
0000004F
0000004F
EEEEEEEF
0000004F
0000004F
0000004F
0000004F
00000026
ENDCHAR
STARTCHAR uni02E9
ENCODING 745
SWIDTH 414 0
DWIDTH 10 0
BBX 8 18 1 0
BITMAP
00000001
0000004F
0000004F
0000004F
0000004F
0000004F
0000004F
0000004F
0000004F
0000004F
0000004F
0000004F
0000004F
0000004F
0000004F
0000004F
0000004F
EEEEEEEE
ENDCHAR
STARTCHAR uni02EC
ENCODING 748
SWIDTH 341 0
DWIDTH 8 0
BBX 8 6 0 -4
BITMAP
38300184
1DC009E1
05F62F70
00BEBD00
002FF400
0008A000
ENDCHAR
STARTCHAR uni02ED
ENCODING 749
SWIDTH 380 0
DWIDTH 9 0
BBX 9 4 0 14
BITMAP
1EEEEEEE30
0000000000
0000000000
1EEEEEEE30
ENDCHAR
STARTCHAR uni02F7
ENCODING 759
SWIDTH 381 0
DWIDTH 9 0
BBX 9 3 0 -4
BITMAP
02AC400440
0CFFF61A10
29139DD400
ENDCHAR
STARTCHAR uni0300
ENCODING 768
SWIDTH 0 0
DWIDTH 0 0
BBX 5 4 -9 13
BITMAP
1EF500
04FB00
006F20
000990
ENDCHAR
STARTCHAR uni0301
ENCODING 769
SWIDTH 0 0
DWIDTH 0 0
BBX 5 4 -7 13
BITMAP
05FE10
0CF400
3F6000
980000
ENDCHAR
STARTCHAR uni0302
ENCODING 770
SWIDTH 0 0
DWIDTH 0 0
BBX 7 4 -9 13
BITMAP
00AF9000
04FBF400
1D708D00
98000880
ENDCHAR
STARTCHAR uni0303
ENCODING 771
SWIDTH 0 0
DWIDTH 0 0
BBX 9 3 -10 13
BITMAP
02AC400440
0CFFF61A10
2A139DD400
ENDCHAR
STARTCHAR uni0304
ENCODING 772
SWIDTH 0 0
DWIDTH 0 0
BBX 7 1 -9 14
BITMAP
EEEEEED0
ENDCHAR
STARTCHAR uni0305
ENCODING 773
SWIDTH 0 0
DWIDTH 0 0
BBX 10 1 -10 14
BITMAP
8EEEEEEEEE
ENDCHAR
STARTCHAR uni0306
ENCODING 774
SWIDTH 0 0
DWIDTH 0 0
BBX 7 4 -9 13
BITMAP
D00000C0
C70008B0
7FEDEF40
06DEC500
ENDCHAR
STARTCHAR uni0307
ENCODING 775
SWIDTH 0 0
DWIDTH 0 0
BBX 3 3 -7 14
BITMAP
6C50
DFC0
7E70
ENDCHAR
STARTCHAR uni0308
ENCODING 776
SWIDTH 0 0
DWIDTH 0 0
BBX 9 3 -10 14
BITMAP
2B9000AB10
7FF203FF60
3EB001CD20
ENDCHAR
STARTCHAR uni0309
ENCODING 777
SWIDTH 0 0
DWIDTH 0 0
BBX 5 5 -8 13
BITMAP
1AED40
4E19D0
0208E0
001C60
01E200
ENDCHAR
STARTCHAR uni030A
ENCODING 778
SWIDTH 0 0
DWIDTH 0 0
BBX 5 5 -8 13
BITMAP
2BEB20
B607A0
E102D0
B607B0
2BEB20
ENDCHAR
STARTCHAR uni030B
ENCODING 779
SWIDTH 0 0
DWIDTH 0 0
BBX 8 4 -8 13
BITMAP
06FD4FE1
0CE3AF50
3F51E800
9806A000
ENDCHAR
STARTCHAR uni030C
ENCODING 780
SWIDTH 0 0
DWIDTH 0 0
BBX 7 4 -9 13
BITMAP
98000880
1D707D00
04FAF400
00AF9000
ENDCHAR
STARTCHAR uni030D
ENCODING 781
SWIDTH 0 0
DWIDTH 0 0
BBX 3 5 -7 13
BITMAP
3F20
3F20
3F20
3F20
3F20
ENDCHAR
STARTCHAR uni030E
ENCODING 782
SWIDTH 0 0
DWIDTH 0 0
BBX 5 5 -8 13
BITMAP
D608D0
D608D0
D608D0
D608D0
D608D0
ENDCHAR
STARTCHAR uni030F
ENCODING 783
SWIDTH 0 0
DWIDTH 0 0
BBX 8 4 -11 13
BITMAP
2FF3EF60
06F93FB0
009E06F2
000B5098
ENDCHAR
STARTCHAR uni0310
ENCODING 784
SWIDTH 0 0
DWIDTH 0 0
BBX 7 6 -9 13
BITMAP
006C5000
10CFC020
D07E71D0
C70008A0
6FEDEF40
06DEC500
ENDCHAR
STARTCHAR uni0311
ENCODING 785
SWIDTH 0 0
DWIDTH 0 0
BBX 7 4 -9 13
BITMAP
07CEC500
7B203D40
C10004A0
50000050
ENDCHAR
STARTCHAR uni0312
ENCODING 786
SWIDTH 0 0
DWIDTH 0 0
BBX 4 6 -8 13
BITMAP
0026
05C2
0E20
2FC7
2FFE
09E8
ENDCHAR
STARTCHAR uni0313
ENCODING 787
SWIDTH 0 0
DWIDTH 0 0
BBX 4 6 -7 13
BITMAP
7C60
FFE0
BEF1
03E0
1B60
8400
ENDCHAR
STARTCHAR uni0314
ENCODING 788
SWIDTH 0 0
DWIDTH 0 0
BBX 4 6 -8 13
BITMAP
06C7
1FFE
2FEA
0E20
06B1
0048
ENDCHAR
STARTCHAR uni0315
ENCODING 789
SWIDTH 0 0
DWIDTH 0 0
BBX 3 5 -6 12
BITMAP
9F60
AF30
BE00
C800
B200
ENDCHAR
STARTCHAR uni0316
ENCODING 790
SWIDTH 0 0
DWIDTH 0 0
BBX 5 4 -9 -5
BITMAP
1EF500
04FB00
007F20
000990
ENDCHAR
STARTCHAR uni0317
ENCODING 791
SWIDTH 0 0
DWIDTH 0 0
BBX 5 4 -7 -5
BITMAP
01FF40
07F800
0DA000
5C1000
ENDCHAR
STARTCHAR uni0318
ENCODING 792
SWIDTH 0 0
DWIDTH 0 0
BBX 5 5 -8 -6
BITMAP
000C20
000C20
3EEF20
000C20
000C20
ENDCHAR
STARTCHAR uni0319
ENCODING 793
SWIDTH 0 0
DWIDTH 0 0
BBX 5 5 -8 -6
BITMAP
3C0000
3C0000
3FEE30
3C0000
3C0000
ENDCHAR
STARTCHAR uni031A
ENCODING 794
SWIDTH 0 0
DWIDTH 0 0
BBX 7 5 -9 12
BITMAP
2EEEEF10
00004F10
00004F10
00004F10
00002700
ENDCHAR
STARTCHAR uni031B
ENCODING 795
SWIDTH 0 0
DWIDTH 0 0
BBX 5 5 -5 11
BITMAP
001720
005FB0
000DB0
000C80
6ED800
ENDCHAR
STARTCHAR uni031C
ENCODING 796
SWIDTH 0 0
DWIDTH 0 0
BBX 4 5 -8 -6
BITMAP
06DC
3E20
5B00
2E30
05DB
ENDCHAR
STARTCHAR uni031D
ENCODING 797
SWIDTH 0 0
DWIDTH 0 0
BBX 5 4 -8 -5
BITMAP
008000
00F000
00F000
DEFEC0
ENDCHAR
STARTCHAR uni031E
ENCODING 798
SWIDTH 0 0
DWIDTH 0 0
BBX 5 4 -8 -5
BITMAP
CEFEB0
00F000
00F000
00E000
ENDCHAR
STARTCHAR uni031F
ENCODING 799
SWIDTH 0 0
DWIDTH 0 0
BBX 5 5 -8 -6
BITMAP
00E000
00E000
CEFEB0
00E000
00E000
ENDCHAR
STARTCHAR uni0320
ENCODING 800
SWIDTH 0 0
DWIDTH 0 0
BBX 5 1 -8 -4
BITMAP
CEEEB0
ENDCHAR
STARTCHAR uni0321
ENCODING 801
SWIDTH 0 0
DWIDTH 0 0
BBX 8 8 -11 -7
BITMAP
00000352
00000AF5
00000AF5
00000AF3
1C700CE0
4FF42E70
0AFFE800
00120000
ENDCHAR
STARTCHAR uni0322
ENCODING 802
SWIDTH 0 0
DWIDTH 0 0
BBX 7 8 -6 -7
BITMAP
35200000
AF500000
9F500000
7F600000
4F700AA0
0CB18FE0
01AFFE60
00012000
ENDCHAR
STARTCHAR uni0323
ENCODING 803
SWIDTH 0 0
DWIDTH 0 0
BBX 3 3 -7 -4
BITMAP
6C50
DFC0
7E70
ENDCHAR
STARTCHAR uni0324
ENCODING 804
SWIDTH 0 0
DWIDTH 0 0
BBX 9 3 -10 -4
BITMAP
2B9000AB10
7FF203FF60
3EB001CD20
ENDCHAR
STARTCHAR uni0325
ENCODING 805
SWIDTH 0 0
DWIDTH 0 0
BBX 5 5 -8 -6
BITMAP
2BEB20
B607A0
E102D0
B607B0
2BEB20
ENDCHAR
STARTCHAR uni0326
ENCODING 806
SWIDTH 0 0
DWIDTH 0 0
BBX 4 6 -7 -7
BITMAP
7C60
FFE0
BEF1
03E0
1B60
8400
ENDCHAR
STARTCHAR uni0327
ENCODING 807
SWIDTH 0 0
DWIDTH 0 0
BBX 5 6 -8 -5
BITMAP
014000
055000
08ED40
000AC0
210BB0
3BEB20
ENDCHAR
STARTCHAR uni0328
ENCODING 808
SWIDTH 0 0
DWIDTH 0 0
BBX 6 7 -8 -6
BITMAP
002200
05B100
4E1000
CB0000
DE2271
6FFE50
013100
ENDCHAR
STARTCHAR uni0329
ENCODING 809
SWIDTH 0 0
DWIDTH 0 0
BBX 3 4 -7 -6
BITMAP
3F20
3F20
3F20
3F20
ENDCHAR
STARTCHAR uni032A
ENCODING 810
SWIDTH 0 0
DWIDTH 0 0
BBX 7 3 -9 -4
BITMAP
7EEEEE60
87000870
77000760
ENDCHAR
STARTCHAR uni032B
ENCODING 811
SWIDTH 0 0
DWIDTH 0 0
BBX 9 4 -10 -4
BITMAP
0000100100
4B01E00C30
2D14F21D10
07DC7CD600
ENDCHAR
STARTCHAR uni032C
ENCODING 812
SWIDTH 0 0
DWIDTH 0 0
BBX 7 4 -9 -5
BITMAP
98000880
1D707D00
04FAF400
00AF9000
ENDCHAR
STARTCHAR uni032D
ENCODING 813
SWIDTH 0 0
DWIDTH 0 0
BBX 7 4 -9 -5
BITMAP
00AF9000
04FBF400
1D708D00
98000880
ENDCHAR
STARTCHAR uni032E
ENCODING 814
SWIDTH 0 0
DWIDTH 0 0
BBX 7 4 -9 -5
BITMAP
D00000C0
C70008B0
7FEDEF40
06DEC500
ENDCHAR
STARTCHAR uni032F
ENCODING 815
SWIDTH 0 0
DWIDTH 0 0
BBX 7 4 -9 -5
BITMAP
04ACA400
6FFFFF40
C82019A0
D00000C0
ENDCHAR
STARTCHAR uni0330
ENCODING 816
SWIDTH 0 0
DWIDTH 0 0
BBX 9 3 -10 -4
BITMAP
03BB200710
1EFFE42A00
5714AEB200
ENDCHAR
STARTCHAR uni0331
ENCODING 817
SWIDTH 0 0
DWIDTH 0 0
BBX 7 1 -9 -3
BITMAP
EEEEEED0
ENDCHAR
STARTCHAR uni0332
ENCODING 818
SWIDTH 0 0
DWIDTH 0 0
BBX 13 1 -12 -3
BITMAP
9EEEEEEEEEEE90
ENDCHAR
STARTCHAR uni0333
ENCODING 819
SWIDTH 0 0
DWIDTH 0 0
BBX 13 4 -12 -6
BITMAP
9EEEEEEEEEEE90
00000000000000
00000000000000
9EEEEEEEEEEE90
ENDCHAR
STARTCHAR uni0334
ENCODING 820
SWIDTH 0 0
DWIDTH 0 0
BBX 9 2 -10 5
BITMAP
08DD942940
57039DD700
ENDCHAR
STARTCHAR uni0335
ENCODING 821
SWIDTH 0 0
DWIDTH 0 0
BBX 9 1 -10 6
BITMAP
4EEEEEEE30
ENDCHAR
STARTCHAR uni0336
ENCODING 822
SWIDTH 0 0
DWIDTH 0 0
BBX 13 1 -12 6
BITMAP
9EEEEEEEEEEE90
ENDCHAR
STARTCHAR uni0337
ENCODING 823
SWIDTH 0 0
DWIDTH 0 0
BBX 7 6 -9 6
BITMAP
00000130
00004D60
0008C300
02C91000
6D500000
42000000
ENDCHAR
STARTCHAR uni0338
ENCODING 824
SWIDTH 0 0
DWIDTH 0 0
BBX 11 21 -11 -4
BITMAP
000000000550
000000001E50
000000007D00
00000000D700
00000004E100
0000000B9000
0000002F3000
0000009B0000
000001E50000
000006D00000
00000D700000
00004E100000
0000B9000000
0002F3000000
0009B0000000
001E50000000
006D00000000
00D700000000
04E100000000
0B9000000000
2F3000000000
ENDCHAR
STARTCHAR uni0339
ENCODING 825
SWIDTH 0 0
DWIDTH 0 0
BBX 4 5 -7 -6
BITMAP
CD50
03E1
00C4
03E1
CC40
ENDCHAR
STARTCHAR uni033A
ENCODING 826
SWIDTH 0 0
DWIDTH 0 0
BBX 7 3 -9 -4
BITMAP
87000870
87000870
7EEEEE60
ENDCHAR
STARTCHAR uni033B
ENCODING 827
SWIDTH 0 0
DWIDTH 0 0
BBX 5 4 -8 -6
BITMAP
AEEE90
A50690
A50690
9EEE90
ENDCHAR
STARTCHAR uni033C
ENCODING 828
SWIDTH 0 0
DWIDTH 0 0
BBX 9 3 -10 -5
BITMAP
1CEB4BEB10
1308F70410
0000A00000
ENDCHAR
STARTCHAR uni033D
ENCODING 829
SWIDTH 0 0
DWIDTH 0 0
BBX 5 5 -8 13
BITMAP
410130
7C2C60
08F700
1CBD20
870790
ENDCHAR
STARTCHAR uni033E
ENCODING 830
SWIDTH 0 0
DWIDTH 0 0
BBX 3 9 -7 12
BITMAP
0030
1C60
9A00
AC00
6F40
0DA0
09B0
2D50
7300
ENDCHAR
STARTCHAR uni033F
ENCODING 831
SWIDTH 0 0
DWIDTH 0 0
BBX 11 4 -11 13
BITMAP
3EEEEEEEEE30
000000000000
000000000000
3EEEEEEEEE30
ENDCHAR
STARTCHAR uni0346
ENCODING 838
SWIDTH 0 0
DWIDTH 0 0
BBX 7 4 -9 12
BITMAP
FEEEEEE0
F60006E0
F60006E0
72000360
ENDCHAR
STARTCHAR uni0347
ENCODING 839
SWIDTH 0 0
DWIDTH 0 0
BBX 9 4 -10 -5
BITMAP
5EEEEEEE40
0000000000
0000000000
5EEEEEEE40
ENDCHAR
STARTCHAR uni034C
ENCODING 844
SWIDTH 0 0
DWIDTH 0 0
BBX 9 6 -10 13
BITMAP
02AC400440
0CFFF51A10
2A139DD400
02AC400440
0CFFF61A10
2A139DD400
ENDCHAR
STARTCHAR uni034D
ENCODING 845
SWIDTH 0 0
DWIDTH 0 0
BBX 13 5 -12 -7
BITMAP
00181000181000
03D4000005C200
2EFFEEEEEFFE10
03D4000004D300
00191000181000
ENDCHAR
STARTCHAR uni0359
ENCODING 857
SWIDTH 0 0
DWIDTH 0 0
BBX 7 8 -9 -9
BITMAP
002E2000
D82F19B0
9E8B9E80
008F7000
8E8A9D70
D81E09C0
003F2000
002D1000
ENDCHAR
STARTCHAR uni035C
ENCODING 860
SWIDTH 0 0
DWIDTH 0 0
BBX 18 4 -9 -6
BITMAP
2A00000000000000B2
0C70000000000008B0
01BD8410000148DB10
00038CDEEEEDC83000
ENDCHAR
STARTCHAR uni0360
ENCODING 864
SWIDTH 0 0
DWIDTH 0 0
BBX 12 3 -6 13
BITMAP
19DEA4000007
A5016DC5105A
7000005BED91
ENDCHAR
STARTCHAR uni0361
ENCODING 865
SWIDTH 0 0
DWIDTH 0 0
BBX 12 5 -6 13
BITMAP
0038BCCB8300
09FFFFFFFF70
6F83100139F4
B6000000007A
600000000006
ENDCHAR
STARTCHAR uni0362
ENCODING 866
SWIDTH 0 0
DWIDTH 0 0
BBX 19 5 -9 -7
BITMAP
00000000000000072000
0000000000000002D300
DEEEEEEEEEEEEEEEFE30
0000000000000002E300
00000000000000072000
ENDCHAR
STARTCHAR uni037E
ENCODING 894
SWIDTH 261 0
DWIDTH 6 0
BBX 4 16 1 -4
BITMAP
0BE4
2FF9
0CE4
0000
0000
0000
0000
0000
0000
0AC4
4FFD
1DEF
004E
0098
08A0
0400
ENDCHAR
STARTCHAR tonos
ENCODING 900
SWIDTH 165 0
DWIDTH 4 0
BBX 4 4 0 13
BITMAP
0FF3
1FC0
3F50
4D00
ENDCHAR
STARTCHAR dieresistonos
ENCODING 901
SWIDTH 426 0
DWIDTH 10 0
BBX 10 4 0 13
BITMAP
0000AF8010
2EE2BF2DF5
2DD1CA0BE4
0000D30000
ENDCHAR
STARTCHAR Alphatonos
ENCODING 902
SWIDTH 718 0
DWIDTH 17 0
BBX 18 16 0 0
BITMAP
07FA0003F300000000
09F4000AF900000000
0AC0001FFF10000000
0C50008CDF80000000
000000E67FE0000000
000005E12FF6000000
00000C900BFC000000
00003F3005FF400000
00009C0000EFB00000
0001F600009FF20000
0007FEEEEEEFF90000
000D9000000BFE1000
005F20000004FF7000
00CA00000000DFE100
07F900000001CFF910
DFFFE100004FFFFFF2
ENDCHAR
STARTCHAR anoteleia
ENCODING 903
SWIDTH 261 0
DWIDTH 6 0
BBX 4 3 1 9
BITMAP
0BE4
2FF9
0CE4
ENDCHAR
STARTCHAR Epsilontonos
ENCODING 904
SWIDTH 745 0
DWIDTH 18 0
BBX 19 16 -1 0
BITMAP
0FF33CFFFFFFFFFFF500
1FB0003FF5111237F600
3F40000FF40000008600
4C00000EF40000002200
0000000EF40000480000
0000000EF40000680000
0000000EF40002C80000
0000000EFEEEEFF80000
0000000EF40001A80000
0000000EF40000480000
0000000EF40000000000
0000000EF40000000A20
0000000EF40000001E00
0000000FF40000008D00
0000003FF5111248FB00
00003CEFFFFFFFFFF900
ENDCHAR
STARTCHAR Etatonos
ENCODING 905
SWIDTH 896 0
DWIDTH 22 0
BBX 22 16 -1 0
BITMAP
0FF34FFFFFF9003EFFFFF9
1FB0006FF90000004FFA10
3F40000FF40000000EF500
4C00000EF40000000DF500
0000000EF40000000DF500
0000000EF40000000DF500
0000000EF40000000DF500
0000000EFEEEEEEEEFF500
0000000EF40000000DF500
0000000EF40000000DF500
0000000EF40000000DF500
0000000EF40000000DF500
0000000EF40000000DF500
0000000FF40000000EF500
0000005FF90000004FFA00
00004EFFFFF9003EFFFFF9
ENDCHAR
STARTCHAR Iotatonos
ENCODING 906
SWIDTH 478 0
DWIDTH 11 0
BBX 12 16 -1 0
BITMAP
0FF34FFFFFF9
1FB0005FFA10
3F40000EF500
4C00000EF400
0000000EF400
0000000EF400
0000000EF400
0000000EF400
0000000EF400
0000000EF400
0000000EF400
0000000EF400
0000000EF400
0000000EF500
0000004FFA00
00004EFFFFF9
ENDCHAR
STARTCHAR Omicrontonos
ENCODING 908
SWIDTH 806 0
DWIDTH 19 0
BBX 20 16 -1 0
BITMAP
0FF300017BDEDC710000
1FB0004ED51017EE5000
3F4005FD2000003EF500
4C001EF500000006FE20
00007FD000000000EF80
0000DF9000000000AFD0
0000FF70000000008FF0
0002FF60000000006FF2
0002FF60000000006FF1
0000FF70000000007FE0
0000DFA0000000009FB0
00008FE000000000DF60
00002EF500000004FD10
000005FD1000001CF400
0000005ED51004DE4000
000000017CDEEC710000
ENDCHAR
STARTCHAR Upsilontonos
ENCODING 910
SWIDTH 787 0
DWIDTH 19 0
BBX 20 16 -1 0
BITMAP
7FB0BFFFFFA0003FFFFF
8F4004EFF3000000CE50
AC00004FF7000001E500
B5000008FE200009A000
00000001DFB0003E2000
000000004FF500B70000
000000000AFD15D00000
0000000001EF8D400000
00000000006FFA000000
00000000000EF4000000
00000000000EF4000000
00000000000EF4000000
00000000000EF4000000
00000000000FF5000000
00000000005FFA100000
000000005EFFFFFB0000
ENDCHAR
STARTCHAR Omegatonos
ENCODING 911
SWIDTH 830 0
DWIDTH 20 0
BBX 20 16 -1 0
BITMAP
0FF300016BDFEC830000
1FB0005EE72015DF8000
3F4005FE3000001CF900
4C001EF700000003FF40
00007FF100000000CFB0
0000BFD0000000009FE0
0000CFC0000000008FF0
0000CFC0000000009FF0
0000AFE000000000BFC0
00005FF200000000EF70
00000DF800000005FE10
000313EE1000000CF503
0008504F9000006F602B
0006D203E70004E501B9
0004FFFFFF300FFFFFF7
0003FFFFFF400FFFFFF5
ENDCHAR
STARTCHAR iotadieresistonos
ENCODING 912
SWIDTH 259 0
DWIDTH 6 0
BBX 10 17 -2 0
BITMAP
0000BF7000
2ED1CE2DD2
3FE1D91EE2
0100E20000
0000000000
0004FD0000
0005FB0000
0005F90000
0006F70000
0006F60000
0006F40000
0007F20000
0007F10000
0007F10000
0006F40210
0003FFCD10
00008EC300
ENDCHAR
STARTCHAR Alpha
ENCODING 913
SWIDTH 718 0
DWIDTH 17 0
BBX 18 16 0 0
BITMAP
00000003F300000000
0000000AF900000000
0000001FFF10000000
0000008CDF80000000
000000E67FE0000000
000005E12FF6000000
00000C900BFC000000
00003F3005FF400000
00009C0000EFB00000
0001F600009FF20000
0007FEEEEEEFF90000
000D9000000BFE1000
005F20000004FF7000
00CA00000000DFE100
07F900000001CFF910
DFFFE100004FFFFFF2
ENDCHAR
STARTCHAR Beta
ENCODING 914
SWIDTH 618 0
DWIDTH 15 0
BBX 14 16 0 0
BITMAP
2CEFFFFFED9300
001FF60027FF60
000DF600008FE0
000CF600004FF3
000CF600004FF1
000CF600007FC0
000CF60016EB20
000CFEEFFF7000
000CF60026ED50
000CF600003FF4
000CF600000AFC
000CF6000008FE
000CF6000009FD
000DF600001EF9
002FF60004CFC1
2CEFFFEEFEB600
ENDCHAR
STARTCHAR Gamma
ENCODING 915
SWIDTH 569 0
DWIDTH 14 0
BBX 13 16 1 0
BITMAP
BEFFFFFFFFFF00
01EF722235CF10
00DF6000002F20
00CF6000000C20
00CF6000000410
00CF6000000000
00CF6000000000
00CF6000000000
00CF6000000000
00CF6000000000
00CF6000000000
00CF6000000000
00CF6000000000
00DF6000000000
03FFB100000000
DFFFFFC0000000
ENDCHAR
STARTCHAR Delta
ENCODING 916
SWIDTH 667 0
DWIDTH 16 0
BBX 16 16 0 0
BITMAP
00000009B0000000
0000001FF2000000
0000008FF9000000
000001E8FE100000
000006C0DF700000
00000D508FD00000
00005D002FF50000
0000C7000BFB0000
0004E10005FF2000
000A900000EF9000
002F2000008FE100
009B0000002FF700
01F40000000BFD00
08C000000005FF50
1EFFFFFFFFFFFFB0
5FFFFFFFFFFFFFF1
ENDCHAR
STARTCHAR Epsilon
ENCODING 917
SWIDTH 626 0
DWIDTH 15 0
BBX 15 16 0 0
BITMAP
2CEFFFFFFFFFF700
002FF7111236E800
000DF60000006900
000CF60000001300
000CF600002A0000
000CF600004A0000
000CF60002BA0000
000CFEEEEFFA0000
000CF600018A0000
000CF600002A0000
000CF60000000000
000CF60000000840
000CF60000000D20
000DF60000006F00
001EF7111237ED00
2BEFFFFFFFFFFB00
ENDCHAR
STARTCHAR Zeta
ENCODING 918
SWIDTH 594 0
DWIDTH 14 0
BBX 14 16 0 0
BITMAP
05FFFEEEEEFFF5
06F8100001DFC0
07A0000009FF20
085000004FF700
01000001DFC000
00000009FE2000
0000005FF70000
000001EFC00000
00000AFE200000
00005FF7000000
0001EFC0000000
000AFE20000014
005FF700000077
01EFB0000000D5
0BFE2000002AF2
4FFFEEEEEFFFF0
ENDCHAR
STARTCHAR Eta
ENCODING 919
SWIDTH 777 0
DWIDTH 19 0
BBX 18 16 0 0
BITMAP
2EFFFFFB001EFFFFFB
004FFB1000003EFC10
000DF60000000CF700
000CF60000000BF700
000CF60000000BF700
000CF60000000BF700
000CF60000000BF700
000CFEEEEEEEEFF700
000CF60000000BF700
000CF60000000BF700
000CF60000000BF700
000CF60000000BF700
000CF60000000BF700
000DF60000000CF700
003FFB1000002EFB10
2EFFFFFB001EFFFFFB
ENDCHAR
STARTCHAR Theta
ENCODING 920
SWIDTH 738 0
DWIDTH 18 0
BBX 16 16 1 0
BITMAP
00004ADEED930000
001CFA3115CF8000
01DF7000000BF900
0AFC00000001EF50
2FF5000000009FC0
7FF1180000905FF2
AFD01C1002B03FF5
BFC01FFFFFC02FF7
BFD01FFFFFC02FF7
AFE01A2112A03FF6
7FF1000000005FF3
2FF5000000009FD0
0AFB00000001EF70
01EF60000009FB00
002CF93114BFA100
00005ADEEC930000
ENDCHAR
STARTCHAR Iota
ENCODING 921
SWIDTH 357 0
DWIDTH 9 0
BBX 8 16 0 0
BITMAP
3EFFFFFA
004FFB10
000DF600
000CF600
000CF600
000CF600
000CF600
000CF600
000CF600
000CF600
000CF600
000CF600
000CF600
000DF600
003FFB10
3EFFFFFA
ENDCHAR
STARTCHAR Kappa
ENCODING 922
SWIDTH 702 0
DWIDTH 17 0
BBX 17 16 0 0
BITMAP
3EFFFFFA03EFFFFA00
004FFB10001FFB2000
000DF600003F900000
000CF60002E8000000
000CF6003E60000000
000CF603E500000000
000CF63E4000000000
000CF9E90000000000
000CFBFF7000000000
000CF65FF700000000
000CF605FF80000000
000CF6004FF8000000
000CF60004FF900000
000DF600005FF90000
003FFB10000EFFA200
3EFFFFFA03EFFFFFA0
ENDCHAR
STARTCHAR Lambda
ENCODING 923
SWIDTH 710 0
DWIDTH 17 0
BBX 17 16 0 0
BITMAP
00000006E100000000
0000000CF700000000
0000003FFD00000000
00000099EF50000000
000001E29FB0000000
000006B03FF3000000
00000C600CF9000000
00004E1006FF100000
0000A90001EF700000
0001F300009FE00000
0007C000003FF50000
000D6000000CFC0000
004F10000006FF4000
00BA00000001FFB000
06F900000001EFF600
DFFFE200007FFFFFD0
ENDCHAR
STARTCHAR Mu
ENCODING 924
SWIDTH 895 0
DWIDTH 21 0
BBX 21 16 0 0
BITMAP
4FFFFC0000000006FFFF50
007FFF400000000CFFA000
001FFFA00000003FFF5000
001F9FF1000000ACDF4000
001F3FF7000001F5DF4000
001F2AFD000007E0DF4000
001F23FF50000D70DF4000
001F20CFB0004F10DF4000
001F205FF200BA00DF4000
001F200DF902F300DF4000
001F2007FE18C000DF4000
001F2001FF7E6000DF4000
001F20009FFE0000DF4000
002F30003FF80000DF5000
007F80000BF20003FFA000
5FFFFF4005A000EFFFFF60
ENDCHAR
STARTCHAR Nu
ENCODING 925
SWIDTH 742 0
DWIDTH 18 0
BBX 18 16 0 0
BITMAP
4FFFF3000007FFFFF2
01AFFD1000001CF900
001FFFA0000005F200
001FCFF7000003F000
001F3CFF300003F000
001F22EFD10003F000
001F205FFB0003F000
001F2008FF7003F000
001F2000BFF403F000
001F20001DFE13F000
001F200003EFB3F000
001F2000005FFBF000
001F20000009FFF000
002F30000000BFF000
008F900000001EF000
4FFFFF40000003E000
ENDCHAR
STARTCHAR Xi
ENCODING 926
SWIDTH 648 0
DWIDTH 16 0
BBX 14 16 1 0
BITMAP
5FFFFFFFFFFFE0
6FFFFFFFFFFFF0
6D4111111127F0
770000000000D0
21000000000020
0029000001B000
002D200007B000
002FFFFFFFB000
002FFFFFFFB000
002D311128B000
0029000001B000
10000000000011
C1000000000076
BA3222222225E5
AFFFFFFFFFFFF4
9FFFFFFFFFFFF3
ENDCHAR
STARTCHAR Omicron
ENCODING 927
SWIDTH 738 0
DWIDTH 18 0
BBX 16 16 1 0
BITMAP
00004ADEEC930000
001BF82004CF9000
01DF5000000BFB00
0AFA00000001EF70
2FF4000000009FD0
7FF0000000004FF3
9FC0000000002FF6
BFC0000000001FF7
BFC0000000001FF7
AFD0000000002FF5
7FF0000000004FF2
2FF4000000008FC0
0AFA00000000DF50
01EF50000008F900
002CF820029F8000
00005ADEED930000
ENDCHAR
STARTCHAR Pi
ENCODING 928
SWIDTH 759 0
DWIDTH 18 0
BBX 18 16 0 0
BITMAP
2CEFFFFFFFFFFFFFC4
002FF71111114FF400
000DF60000003FF100
000CF60000003FF000
000CF60000003FF000
000CF60000003FF000
000CF60000003FF000
000CF60000003FF000
000CF60000003FF000
000CF60000003FF000
000CF60000003FF000
000CF60000003FF000
000CF60000003FF000
000DF70000003FF100
002FFA0000007FF500
2EFFFFE8005EFFFFE5
ENDCHAR
STARTCHAR Rho
ENCODING 929
SWIDTH 569 0
DWIDTH 14 0
BBX 12 16 1 0
BITMAP
AEFFFFFDC810
01EF7014BFE3
00CF60000CFB
00CF600007FF
00CF600005FF
00CF600006FD
00CF60000BF6
00CF7014BF90
00CFEFEC9400
00CF60000000
00CF60000000
00CF60000000
00CF60000000
00DF70000000
03FFB1000000
DFFFFFC00000
ENDCHAR
STARTCHAR Sigma
ENCODING 931
SWIDTH 604 0
DWIDTH 15 0
BBX 14 16 0 0
BITMAP
3FFFFFFFFFFFE0
08FF7222225DE0
00AFE3000003F0
001CFD100000D1
0002EFB0000010
00003FF8000000
000005FF500000
0000008F800000
000000BB000000
000008D1000000
00006E20000000
0003E40000002B
002E7000000089
01CB11111127F6
0AFFFFFFFFFFF4
4FFFFFFFFFFFF2
ENDCHAR
STARTCHAR Tau
ENCODING 932
SWIDTH 603 0
DWIDTH 14 0
BBX 15 16 0 0
BITMAP
6FFFEEFFEEEFFE00
7E4000DF5002BE00
880000DF50002F00
940000DF50000C10
200000DF50000200
000000DF50000000
000000DF50000000
000000DF50000000
000000DF50000000
000000DF50000000
000000DF50000000
000000DF50000000
000000DF50000000
000000EF60000000
000004FFB1000000
0003EFFFFFA00000
ENDCHAR
STARTCHAR Upsilon
ENCODING 933
SWIDTH 647 0
DWIDTH 16 0
BBX 17 16 -1 0
BITMAP
2FFFFFF50008FFFF90
018FFC0000002FC200
0009FF2000005E1000
0001DFB00001D50000
00004FF50008B00000
00000AFE102E200000
000001EF90A8000000
0000006FF7D1000000
0000000BFF50000000
00000005FE00000000
00000004FE00000000
00000004FE00000000
00000004FE00000000
00000005FF00000000
0000000AFF60000000
00000AFFFFFF600000
ENDCHAR
STARTCHAR Phi
ENCODING 934
SWIDTH 718 0
DWIDTH 17 0
BBX 17 16 0 0
BITMAP
00000CFFFFFE100000
0000001CFE20000000
00000009FB00000000
0005BEFEFFFEC71000
01BFC408FB14BFE300
09FC0008FB000BFD00
0EF60008FB0004FF40
2FF40008FB0001FF50
2FF50008FB0002FF50
0EF80008FB0004FF20
08FE2008FB000AFB00
00AFD618FB039FC100
00049CDEFFDC950000
00000008FB00000000
0000001CFE20000000
00000CFFFFFE100000
ENDCHAR
STARTCHAR Chi
ENCODING 935
SWIDTH 664 0
DWIDTH 16 0
BBX 16 16 0 0
BITMAP
8FFFFFE100CFFFF9
01AFFA000008FA10
001CFD00000DB000
0003FF80007D1000
00007FF203E30000
00000CFB1D600000
000003FFC9000000
0000007FF2000000
0000007FFB000000
000004E4FF700000
00002E507FF30000
0000CA000CFC0000
0008D10003FF8000
005F300000AFF400
05FD0000007FFE30
EFFFF5000CFFFFFC
ENDCHAR
STARTCHAR Psi
ENCODING 936
SWIDTH 720 0
DWIDTH 17 0
BBX 18 16 0 0
BITMAP
CD600BFFFFFE103BD2
0AF6001BFE2002EE10
06FB0007FC0007FA00
05FD0007FB0008FA00
06FC0007FB0008FA00
06FC0007FB0007FA00
06FD0007FB0008F900
03FF1007FB000BF700
00BF8007FB004FE100
001BF827FB16ED2000
00005BEFFFEC710000
00000007FB00000000
00000007FB00000000
00000007FC00000000
0000000BFE20000000
00000BFFFFFE200000
ENDCHAR
STARTCHAR Omega
ENCODING 937
SWIDTH 777 0
DWIDTH 19 0
BBX 17 16 1 0
BITMAP
000027CEFDB7100000
0007FD51027EE50000
009FC1000003EF5000
05FF300000007FE100
0BFC000000001FF700
0EF9000000000DFA00
1FF8000000000CFC00
1FF8000000000DFB00
0DFA000000000FF800
09FD000000003FF300
02FF400000009FA000
306FB0000002EE2120
C108F500000AE30670
AA106E30008E303E50
8FFFFFE004FFFFFF30
7FFFFFF004FFFFFF10
ENDCHAR
STARTCHAR Iotadieresis
ENCODING 938
SWIDTH 357 0
DWIDTH 9 0
BBX 9 20 0 0
BITMAP
4C7001BA00
AFE005FF40
5E9002DC10
0000000000
3EFFFFFA00
004FFB1000
000DF60000
000CF60000
000CF60000
000CF60000
000CF60000
000CF60000
000CF60000
000CF60000
000CF60000
000CF60000
000CF60000
000DF60000
003FFB1000
3EFFFFFA00
ENDCHAR
STARTCHAR Upsilondieresis
ENCODING 939
SWIDTH 647 0
DWIDTH 16 0
BBX 17 20 -1 0
BITMAP
000005C5002B900000
00000CFC007FF20000
000007E7003EB00000
000000000000000000
2FFFFFF50008FFFF90
018FFC0000002FC200
0009FF2000005E1000
0001DFB00001D50000
00004FF50008B00000
00000AFE102E200000
000001EF90A8000000
0000006FF7D1000000
0000000BFF50000000
00000005FE00000000
00000004FE00000000
00000004FE00000000
00000004FE00000000
00000005FF00000000
0000000AFF60000000
00000AFFFFFF600000
ENDCHAR
STARTCHAR alphatonos
ENCODING 940
SWIDTH 561 0
DWIDTH 13 0
BBX 14 17 0 0
BITMAP
000000FF300000
000001FB000000
000003F4000000
000004C0000000
00000000000000
0005CED700DF80
008FFFFF53FE10
04FB423AC8F700
0BA00000CED000
0E2000008F5000
2E0000008D0000
3E000000BC0000
2F100003FD0000
0E60000B6F1000
0BE624BA2F7043
04FFFFD11FFDC0
005DEB2009FB20
ENDCHAR
STARTCHAR epsilontonos
ENCODING 941
SWIDTH 381 0
DWIDTH 9 0
BBX 8 17 1 0
BITMAP
00008FA0
00009F40
0000AC00
0000C500
00000000
028DFEB3
3EFFFFF7
9F832491
AA000000
5C001000
08ADF400
1C579200
A8000000
F8000010
EE7226E6
7FFFFFF4
06CFEB50
ENDCHAR
STARTCHAR etatonos
ENCODING 942
SWIDTH 510 0
DWIDTH 12 0
BBX 12 23 -1 -6
BITMAP
00000006FC00
00000007F600
00000008D000
0000000A7000
000000000000
01BE8007EE50
0AFFF16FFFE1
2B29F3D927F5
0102F7A000D8
0001FC3000A9
0001FC00009A
0003F800008A
0005F500009A
0008F50000AA
000AF40000BA
000DF30000D9
000FF20000F9
0000000002F8
0000000004F8
0000000007F7
000000000AF6
000000000DF6
000000000630
ENDCHAR
STARTCHAR iotatonos
ENCODING 943
SWIDTH 259 0
DWIDTH 6 0
BBX 6 17 1 0
BITMAP
05FC00
07F600
08E000
097000
000000
4FD000
5FB000
5F9000
6F7000
6F6000
6F4000
7F2000
7F1000
7F1000
6F4021
3FFCD1
08EC30
ENDCHAR
STARTCHAR upsilondieresistonos
ENCODING 944
SWIDTH 491 0
DWIDTH 12 0
BBX 12 17 -1 0
BITMAP
000005FD0000
00AE56F78E70
00BF67E19F80
000109800100
000000000000
01BE9000A700
0BFFF2001D70
2A2CF10006F1
000AE00001F6
000BC00000F9
000C800000EA
000D600001FA
000E400004F7
000D50000BF3
000BC424BFB0
0007FFFFFD20
00008DFD8100
ENDCHAR
STARTCHAR alpha
ENCODING 945
SWIDTH 561 0
DWIDTH 13 0
BBX 14 12 0 0
BITMAP
0005CED700DF80
008FFFFF53FE10
04FB423AC8F700
0BA00000CED000
0E2000008F5000
2E0000008D0000
3E000000BC0000
2F100003FD0000
0E60000B6F1000
0BE624BA2F7043
04FFFFD11FFDC0
005DEB2009FB20
ENDCHAR
STARTCHAR beta
ENCODING 946
SWIDTH 530 0
DWIDTH 13 0
BBX 11 24 1 -6
BITMAP
00004BEEA100
0007FFFFFB00
003FB424BF20
00BB00001F30
02F200001F10
06C000007900
0A900029A100
0D70EFF80000
0F50CA4C8000
2F500001C700
3F4000003F20
4F4000000D70
5F6000000CA0
6F9000000CB0
7FE100002FA0
8F9C4125DF50
9F4AFFFFFB00
9F408EEC7000
AF5000000000
BF5000000000
CF6000000000
DF6000000000
DD4000000000
200000000000
ENDCHAR
STARTCHAR gamma
ENCODING 947
SWIDTH 466 0
DWIDTH 11 0
BBX 12 17 -1 -5
BITMAP
01AEA0000BFA
09FFF6001FF4
1B35FB006FC0
01009E00BF40
00004F11FC00
00001F26F400
00000D3BC000
00000C5F5000
00000A9D0000
000009E60000
000009D00000
00000CB00000
00002FB00000
00007FA00000
0000BF900000
0000EF600000
00008E200000
ENDCHAR
STARTCHAR delta
ENCODING 948
SWIDTH 479 0
DWIDTH 12 0
BBX 11 18 0 0
BITMAP
0006CEEB6000
002F536DFD20
003F2001BC00
000DC2000200
0002DE500000
00002CF80000
00018CFF9000
004EFFEFF600
02EE7205FD00
09D20000BF40
0E3000005F80
1E0000002F90
3C0000001F80
2E0000003F70
0F600000BF20
0BF7225BF900
03FFFFFFB100
004BEEC60000
ENDCHAR
STARTCHAR epsilon
ENCODING 949
SWIDTH 381 0
DWIDTH 9 0
BBX 8 12 1 0
BITMAP
028DFEB3
3EFFFFF7
9F832491
AA000000
5C001000
08ADF400
1C579200
A8000000
F8000010
EE7226E6
7FFFFFF4
06CFEB50
ENDCHAR
STARTCHAR zeta
ENCODING 950
SWIDTH 386 0
DWIDTH 9 0
BBX 10 25 0 -7
BITMAP
0000230000
0002E20000
000AD0009A
000AE11BFE
0003DDDFD6
00003EE500
0003ED2000
001DD20000
009E300000
02F5000000
08B0000000
0D40000000
0E00000000
2C00000000
2E00000000
1F80000000
0BFE962000
03EFFFFC30
0028DFFFE1
0000015AF5
00000000D4
00000001D0
000388AE50
0004FFD400
0001950000
ENDCHAR
STARTCHAR eta
ENCODING 951
SWIDTH 510 0
DWIDTH 12 0
BBX 12 18 -1 -6
BITMAP
01BE8007EE50
0AFFF16FFFE1
2B29F3D927F5
0102F7A000D8
0001FC3000A9
0001FC00009A
0003F800008A
0005F500009A
0008F50000AA
000AF40000BA
000DF30000D9
000FF20000F9
0000000002F8
0000000004F8
0000000007F7
000000000AF6
000000000DF6
000000000630
ENDCHAR
STARTCHAR theta
ENCODING 952
SWIDTH 514 0
DWIDTH 12 0
BBX 11 19 1 0
BITMAP
000001000000
0008EFD50000
00AFFFFF5000
05FA314DE100
0CB00003F600
3F200000BA00
7B0000006E00
980000003F10
B60000002F20
CFFFFFFFFF30
C83333333F30
C70000001F20
A90000002F00
8D0000005D00
5F300000BA00
1EB00004F500
08FA326ED000
01CFFFFE3000
0019EEB30000
ENDCHAR
STARTCHAR iota
ENCODING 953
SWIDTH 259 0
DWIDTH 6 0
BBX 6 12 1 0
BITMAP
4FD000
5FB000
5F9000
6F7000
6F6000
6F4000
7F2000
7F1000
7F1000
6F4021
3FFCD1
08EC30
ENDCHAR
STARTCHAR kappa
ENCODING 954
SWIDTH 495 0
DWIDTH 12 0
BBX 13 12 -1 0
BITMAP
01AEB000029E00
0AFFF6004EFE00
3B29F703EFC600
0103F61DF70000
0002F4AE300000
0002F6F5000000
0002FDA8000000
0003FC1E100000
0004F80B900000
0007F505F82280
000AF400DFFF60
000CF4002DE800
ENDCHAR
STARTCHAR lambda
ENCODING 955
SWIDTH 506 0
DWIDTH 12 0
BBX 13 18 0 0
BITMAP
0009EB10000000
007FFF70000000
00B34DB0000000
000005E0000000
000001F2000000
000000D4000000
000001E7000000
000008F9000000
00001EBB000000
00008F4D000000
0001EA2F100000
0008F40F300000
001FD00E500000
009F700C900000
02FF200AE00000
09FB0007F92750
2FF50003FFFD10
8FE000007EC200
ENDCHAR
STARTCHAR mu
ENCODING 956
SWIDTH 552 0
DWIDTH 13 0
BBX 13 18 1 -6
BITMAP
3FF00004FD0000
3FD00004FB0000
3FB00004F80000
3F900004F60000
3F700005F30000
3F500007F10000
3F30000BE00000
3F30002EF00000
4F700098F20000
6FE205E3F70430
8DCEDF80EFDD00
AD2CE9007EC200
BE000000000000
CF000000000000
DF100000000000
EF200000000000
EC200000000000
20000000000000
ENDCHAR
STARTCHAR nu
ENCODING 957
SWIDTH 453 0
DWIDTH 11 0
BBX 12 13 -1 -1
BITMAP
02CE70005C40
0CFFF2001EE1
492AF6000CF5
0002F8000CF5
0000C9000DF3
0000AA002FE0
00008A008F80
00007901EE10
00006909F500
0000695F8000
00007BEB0000
00008FC10000
000036100000
ENDCHAR
STARTCHAR xi
ENCODING 958
SWIDTH 390 0
DWIDTH 9 0
BBX 10 23 0 -5
BITMAP
0019100000
00BB000000
00CD105AE3
0019DEFFD3
002CE94100
00DD200000
02F4000000
01E5000100
003B6BEF40
004DBDFE20
03C2000000
0D20000000
2E00000000
2F20000000
1EE7300000
08FFFEA500
007EFFFFC1
000158CFF6
00000002C8
0000000077
00001236D1
0002FFFE40
0000CC8100
ENDCHAR
STARTCHAR omicron
ENCODING 959
SWIDTH 475 0
DWIDTH 11 0
BBX 11 12 0 0
BITMAP
0004BEEC4000
007FFFFFF500
03FC5226EE00
0AC100004F40
0E4000000C70
2F0000000980
2E0000000980
1F2000000C60
0E9000005F20
08FA4238FB00
01DFFFFFD200
0019DFD81000
ENDCHAR
STARTCHAR pi
ENCODING 960
SWIDTH 591 0
DWIDTH 14 0
BBX 14 12 0 0
BITMAP
007CEFFFFFFFFA
0BFFFFFFFFFFF8
4B322D111A7111
31003C000C5000
00006A000E3000
0000A7002F2000
0001E4005F1000
0006F2007F1000
000CD0008F3000
004FA0008FA263
00CF60005FFFD0
04FF10000AEC20
ENDCHAR
STARTCHAR rho
ENCODING 961
SWIDTH 515 0
DWIDTH 12 0
BBX 11 18 1 -6
BITMAP
0004BEEB4000
007FFFFFF400
03FD6226ED00
0AD100003F30
0E6000000C60
3F3000000A70
5F3000000B60
6F6000000E40
6FD000008E00
7FAB424AF800
7F3DFFFFC100
7F33CFD81000
8F4000000000
8F5000000000
8F7000000000
8F8000000000
8E8000000000
100000000000
ENDCHAR
STARTCHAR uni03C2
ENCODING 962
SWIDTH 377 0
DWIDTH 9 0
BBX 10 17 0 -5
BITMAP
0005BEFD70
009FFFFF70
06F9422520
0C60000000
1E00000000
2D00000000
1F10000000
0EA0000000
09FD610000
01DFFE8200
0019FFFE30
000017CFC0
00000004F1
00000000E0
0001124B90
0004FFFB10
0000DC5000
ENDCHAR
STARTCHAR sigma
ENCODING 963
SWIDTH 545 0
DWIDTH 13 0
BBX 14 12 0 0
BITMAP
0003AEFFFFFFF1
006FFFFFFFFFD0
03FE7321A61110
0AD200002D0000
0E5000000C6000
1F1000000AB000
2F1000000AD000
1F3000000DC000
0EA000005F9000
09FA4237FF2000
01EFFFFFF60000
002AEFD9300000
ENDCHAR
STARTCHAR tau
ENCODING 964
SWIDTH 392 0
DWIDTH 9 0
BBX 11 12 -1 0
BITMAP
003AEFFFFF70
05FFFFFFFF50
0C6229811100
13000B600000
00000E400000
00001F300000
00004F200000
00006F200000
00007F400000
00007FA25300
00004FFFD100
000009EC3000
ENDCHAR
STARTCHAR upsilon
ENCODING 965
SWIDTH 491 0
DWIDTH 12 0
BBX 12 12 -1 0
BITMAP
01BE9000A700
0BFFF2001D70
2A2CF10006F1
000AE00001F6
000BC00000F9
000C800000EA
000D600001FA
000E400004F7
000D50000BF3
000BC424BFB0
0007FFFFFD20
00008DFD8100
ENDCHAR
STARTCHAR phi
ENCODING 966
SWIDTH 603 0
DWIDTH 14 0
BBX 14 18 0 -5
BITMAP
00001410000000
0008FF306DEA10
00AFFC16FFFFA0
05FA100ED429F3
0B90004F3000D7
0E10008D000099
1E0000AB000089
1E0000B90000A7
0E4000C80002F4
0AD300C8003DD0
03EFB8EB8CFE30
004DFFFFFFC300
00016AFD830000
000000FA000000
000002FB000000
000003FC000000
000004FE000000
000004B6000000
ENDCHAR
STARTCHAR chi
ENCODING 967
SWIDTH 462 0
DWIDTH 11 0
BBX 14 17 -2 -5
BITMAP
003DE500001EF9
00DFFF30008FE2
05825E9001EF50
010007E009F900
000001E32FD100
000000B7AF3000
0000006DF70000
0000004FC00000
000000AF400000
000005FE700000
00001EC6B00000
0000BF43E10000
0006FB00E50000
002EF300BB0000
00BFA0006F7154
06FF20001EFFE1
1EF9000005ED50
ENDCHAR
STARTCHAR psi
ENCODING 968
SWIDTH 620 0
DWIDTH 15 0
BBX 15 24 -1 -6
BITMAP
0000000187000000
00000002FE000000
00000001FD000000
00000001FB000000
00000000FA000000
00000000F8000000
01AEB000F804A100
09FFF300F700AB00
2B2CF301F7003F40
0109F101F6000E90
000AC001F6000DB0
000B8001F5000DC0
000D6002F5000EB0
000D5002F4005F80
000C9002F402DF30
0008F944F78EF900
0001DFFFFFFFA000
000019DFFD940000
00000006F4000000
00000007F5000000
00000008F6000000
0000000AF7000000
0000000BD5000000
0000000100000000
ENDCHAR
STARTCHAR omega
ENCODING 969
SWIDTH 660 0
DWIDTH 16 0
BBX 15 12 0 0
BITMAP
0003A900001A3000
005FF8000003E400
03FE810000009D10
0AE3000ED2002F60
0E60002FF2000DB0
2F10003FF0000BD0
1F00002FB0000AF0
0F10000F60000CE0
0C70000E40002FB0
07F623ABC425DF60
01EFFFD1BFFFFC00
003CEC201AEE9100
ENDCHAR
STARTCHAR iotadieresis
ENCODING 970
SWIDTH 259 0
DWIDTH 6 0
BBX 8 16 -1 0
BITMAP
9E5005E9
EFA00AFE
7C4004C7
00000000
004FD000
005FB000
005F9000
006F7000
006F6000
006F4000
007F2000
007F1000
007F1000
006F4021
003FFCD1
0008EC30
ENDCHAR
STARTCHAR upsilondieresis
ENCODING 971
SWIDTH 491 0
DWIDTH 12 0
BBX 12 16 -1 0
BITMAP
004EB001DD20
008FF104FF50
003C8001AB10
000000000000
01BE9000A700
0BFFF2001D70
2A2CF10006F1
000AE00001F6
000BC00000F9
000C800000EA
000D600001FA
000E400004F7
000D50000BF3
000BC424BFB0
0007FFFFFD20
00008DFD8100
ENDCHAR
STARTCHAR omicrontonos
ENCODING 972
SWIDTH 475 0
DWIDTH 11 0
BBX 11 17 0 0
BITMAP
000000EF4000
000000FC0000
000001F60000
000003D00000
000000000000
0004BEEC4000
007FFFFFF500
03FC5226EE00
0AC100004F40
0E4000000C70
2F0000000980
2E0000000980
1F2000000C60
0E9000005F20
08FA4238FB00
01DFFFFFD200
0019DFD81000
ENDCHAR
STARTCHAR upsilontonos
ENCODING 973
SWIDTH 491 0
DWIDTH 12 0
BBX 12 17 -1 0
BITMAP
0000007FB000
0000008F4000
000000AC0000
000000B50000
000000000000
01BE9000A700
0BFFF2001D70
2A2CF10006F1
000AE00001F6
000BC00000F9
000C800000EA
000D600001FA
000E400004F7
000D50000BF3
000BC424BFB0
0007FFFFFD20
00008DFD8100
ENDCHAR
STARTCHAR omegatonos
ENCODING 974
SWIDTH 660 0
DWIDTH 16 0
BBX 15 17 0 0
BITMAP
00000006FC000000
00000007F5000000
00000009D0000000
0000000A70000000
0000000000000000
0003A900001A3000
005FF8000003E400
03FE810000009D10
0AE3000ED2002F60
0E60002FF2000DB0
2F10003FF0000BD0
1F00002FB0000AF0
0F10000F60000CE0
0C70000E40002FB0
07F623ABC425DF60
01EFFFD1BFFFFC00
003CEC201AEE9100
ENDCHAR
STARTCHAR uni03D0
ENCODING 976
SWIDTH 438 0
DWIDTH 11 0
BBX 9 18 1 0
BITMAP
00006DEA10
0009FFFF80
006F8327D0
01E60000D0
07E00000C0
0DCC5118B0
3F3CFFFF40
6F01AFE700
9E00000000
AD3AEFB200
BFFFFFFD10
AFE8324D60
9F300004A0
6F700001B0
2FD00004A0
0BFA325E70
02EFFFFD10
002BEEA200
ENDCHAR
STARTCHAR uni03D1
ENCODING 977
SWIDTH 541 0
DWIDTH 13 0
BBX 13 18 0 0
BITMAP
00005DEC400000
0005FFFFF30000
000DC426FB0000
002E10006F2000
004B00000D7000
003B000008A000
000D000005C000
0009700003E100
0001DA4212FF30
00012DFFFFFF10
06EF616CEFF600
2FFFC00000D200
862EC00001F100
000BB00004E000
0009B0000CB000
0006E424BF6000
0002FFFFFC0000
00005CEE910000
ENDCHAR
STARTCHAR uni03D2
ENCODING 978
SWIDTH 616 0
DWIDTH 15 0
BBX 15 16 0 0
BITMAP
29DFD700004CED20
4338FF6004C38FA0
00005FD00D209FA0
00000BF24A001610
000005F6A5000000
000002F8D1000000
000000EDC0000000
000000DFA0000000
000000CF80000000
000000CF70000000
000000CF60000000
000000CF60000000
000000CF60000000
000000CF70000000
000002FFC1000000
0003EFFFFFD00000
ENDCHAR
STARTCHAR uni03D5
ENCODING 981
SWIDTH 575 0
DWIDTH 14 0
BBX 13 23 0 -5
BITMAP
00000038500000
0000007FA00000
0000008F800000
0000008F700000
0000008F500000
0000009F400000
0002AEFFFD6000
005FFFFFFFF800
02FE73AE26EF40
0AD200BD001DA0
0E5000CC0006D0
2F0000CB0003E0
2F0000DA0003D0
1F3000E90008B0
0CC100F8004F60
05FE74F95AFC00
007FFFFFFFC100
00039DFDA50000
000005F6000000
000007F6000000
000009F5000000
00000BF5000000
00000CF5000000
ENDCHAR
STARTCHAR uni03D6
ENCODING 982
SWIDTH 821 0
DWIDTH 20 0
BBX 20 12 0 0
BITMAP
03ADFFFFFFFFFFFFFFFB
3EFFFFFFFFFFFFFFFFF8
B632AF721111112E7111
3002F50002510009D000
0007B00009F90006F200
000A70000BF80004F500
000A60000BF40004F600
000980000AD00005F500
0006D00008A0000BF300
0002FA326DD6239FC000
00009FFFF65FFFFF4000
000009EE7006DEC40000
ENDCHAR
STARTCHAR uni03D8
ENCODING 984
SWIDTH 627 0
DWIDTH 15 0
BBX 15 16 0 0
BITMAP
00017BDFEC710000
004DE62026EE5000
02EF3000003FF300
0AFA0000000AFB00
0FF700000006FF10
2FF600000005FF20
2FF600000005FF20
0EF800000007FE00
09FC0000000BF900
02EF5000004FD100
002CF94348EC2000
000049DFD9400000
0000009F80000000
000000AF90000000
000000CFC0000000
0000BEFFFDA00000
ENDCHAR
STARTCHAR uni03D9
ENCODING 985
SWIDTH 475 0
DWIDTH 11 0
BBX 11 18 0 -6
BITMAP
0004BEEB4000
006FFFFFF400
03FD5227ED00
0AD100005F40
0E5000000C70
1F0000000A80
2E0000000980
2F1000000B70
0E6000003F30
0AF61015DC00
02EFFEFFE300
003BFFFB2000
00004F300000
00005F300000
00007F400000
00009F600000
0000BF700000
000075000000
ENDCHAR
STARTCHAR uni03DA
ENCODING 986
SWIDTH 578 0
DWIDTH 14 0
BBX 13 16 0 0
BITMAP
00016BEFEA57A0
003DE62027FFA0
02EF3000005FA0
09FA0000000CA0
0EF600000007A0
1FF500000004A0
2FF50000000000
0FF70000000000
0AFD0000000000
03EF8000000000
004DFB51010000
00017BEFFC0000
00000006FC0000
00000007FC0000
0000000AFE1000
00000ADFFFEC20
ENDCHAR
STARTCHAR uni03DB
ENCODING 987
SWIDTH 490 0
DWIDTH 12 0
BBX 12 17 0 -5
BITMAP
00006BDEFFFC
003DFFFFFFF9
02EB64321233
0A7000000000
0E0000000000
2D0000000000
1F1000000000
0EA000000000
09FC50000000
01DFFD700000
002AFFFC1000
000028DF7000
00000009A000
00000005A000
0001136D4000
000AFFF60000
0004EA200000
ENDCHAR
STARTCHAR uni03DC
ENCODING 988
SWIDTH 588 0
DWIDTH 14 0
BBX 14 16 0 0
BITMAP
2CFFFFFFFFFFFA
002FF7222225DA
000DF60000004B
000CF600000004
000CF600004900
000CF600005900
000CF60002C900
000CFEEEEFF900
000CF600019900
000CF600004900
000CF600000000
000CF600000000
000CF600000000
000DF700000000
003FFC10000000
2EFFFFFD000000
ENDCHAR
STARTCHAR uni03DD
ENCODING 989
SWIDTH 386 0
DWIDTH 9 0
BBX 13 18 -3 -6
BITMAP
00001FFFFFFF10
00001FFFFFFD00
00001F91111100
00001F80000000
00000F80000000
00000F80000000
00000E70000000
00000EBBEF8000
00000FBBDF7000
00000F50000000
00001F30000000
00002F20000000
00004E00000000
00007B00000000
0000C700000000
6329F200000000
5FFF9000000000
09EA1000000000
ENDCHAR
STARTCHAR uni03DE
ENCODING 990
SWIDTH 525 0
DWIDTH 13 0
BBX 12 16 0 0
BITMAP
000EFFFF3000
00008F600000
0000C8000000
0006C0000000
001E30000000
009900000000
04E211111111
0CFFFFFFFFFE
5FFFFFFFFFF7
0000000006C0
000000001E40
000000009A00
00000003E200
0000001C7000
000002BF4000
00007FFFF900
ENDCHAR
STARTCHAR uni03DF
ENCODING 991
SWIDTH 434 0
DWIDTH 10 0
BBX 12 16 -1 0
BITMAP
06ED20000000
3FFF90000000
743EA0000000
000A90000000
000970000000
000B40000000
000D00049700
003A6AEFF500
008FFFFBE100
00DD9412C000
001000078000
0000000B6000
0000000E5000
0000001FA274
0000000FFFC0
00000008EB20
ENDCHAR
STARTCHAR uni03E0
ENCODING 992
SWIDTH 697 0
DWIDTH 17 0
BBX 17 16 0 0
BITMAP
000006FF3000000000
000000DFA000000000
0000006FF200000000
0000001EFA00000000
0000002EFF20000000
000000ABEFA0000000
000003F38FF2000000
00000B901EF9000000
00005F202EFF200000
0000D8009CEF900000
0007E103F38FF20000
001E700CA01EF90000
008D005F2008FF2000
02F601D80002FF9000
0AC008E10002FFF500
4F402F70009FFFFFB0
ENDCHAR
STARTCHAR uni03E1
ENCODING 993
SWIDTH 458 0
DWIDTH 11 0
BBX 11 23 -1 -7
BITMAP
5EA200000000
5FFE60000000
06EFF8000000
002CFF700000
00009FF50000
000007FE1000
0000009F9000
0000015FF200
0016AEE7F800
02FFFA10CE00
00DD50006F30
000000001F80
00000026BFA0
00006CFF9AD0
0000CFD507E0
0000361006F0
0000000005F0
0000000005E0
0000000005D0
0000000007A0
000000000A60
000000000D20
000000001800
ENDCHAR
STARTCHAR uni03F0
ENCODING 1008
SWIDTH 504 0
DWIDTH 12 0
BBX 13 12 0 0
BITMAP
09E900000BFE00
6FFF30006FF400
936F7001EF7000
000C800AFA0000
0009905FC10000
000772EF500000
00076CFE100000
0009AF9B000000
000DFD1D300000
006FF30BC20430
03EF7006FFFF20
0EFB00008EE500
ENDCHAR
STARTCHAR uni03F1
ENCODING 1009
SWIDTH 467 0
DWIDTH 11 0
BBX 10 18 1 -6
BITMAP
0018DFD700
01DFFFFF70
09E6225EE0
1E200003F3
6B000000D5
9A000000D5
AD000002F3
BFA3115DE1
AADFFFFF70
8D2BFFD600
5F70110000
1EF9100000
05FFE80000
004CFF9000
000029E000
001126C000
00DFFD2000
007D810000
ENDCHAR
STARTCHAR uni03F4
ENCODING 1012
SWIDTH 737 0
DWIDTH 18 0
BBX 16 16 1 0
BITMAP
00004ADEEC930000
001CF83015CF9000
01DF5000000BFA00
0AF900000001EF60
2FF3000000008FD0
7FE0000000004FF3
AFC0000000002FF5
BFFFFFFFFFFFFFF7
BFC3333333334FF6
AFD0000000002FF5
7FF1000000005FF2
2FF5000000009FC0
0BFB00000001EF40
01EF60000009F900
002CF93114BF8000
00005ADEFD930000
ENDCHAR
STARTCHAR uni03F5
ENCODING 1013
SWIDTH 380 0
DWIDTH 9 0
BBX 9 12 0 0
BITMAP
0006CEEB30
009FFFFF70
05E7324810
0B50000000
0E00012000
1FFFFFF100
1F43331000
0F40000000
0CA0000300
07FA326E50
01DFFFFF40
0019EEC500
ENDCHAR
ENDFONT
